SplineFontDB: 3.0
FontName: KisStM
FullName: Sorts Mill Kis
FamilyName: Sorts Mill Kis
Weight: Regular
Copyright: Copyright (C) 2010 Barry Schwartz
UComments: "Cut 3200-dpi samples to 640 pixels high. Scale by a factor of 1.1.+AAoACgAA-Cut 6400-dpi samples to 1280 pixels high. Scale by a factor of 1.1." 
Version: 000.001
ItalicAngle: 0
UnderlinePosition: -100
UnderlineWidth: 49
Ascent: 700
Descent: 300
LayerCount: 3
Layer: 0 0 "Back"  1
Layer: 1 0 "Fore"  0
Layer: 2 0 "backup"  0
NeedsXUIDChange: 1
XUID: [1021 658 797806517 2478896]
FSType: 0
OS2Version: 0
OS2_WeightWidthSlopeOnly: 0
OS2_UseTypoMetrics: 1
CreationTime: 1263111985
ModificationTime: 1284790101
OS2TypoAscent: 0
OS2TypoAOffset: 1
OS2TypoDescent: 0
OS2TypoDOffset: 1
OS2TypoLinegap: 90
OS2WinAscent: 0
OS2WinAOffset: 1
OS2WinDescent: 0
OS2WinDOffset: 1
HheadAscent: 0
HheadAOffset: 1
HheadDescent: 0
HheadDOffset: 1
OS2Vendor: 'PfEd'
Lookup: 3 0 0 "'aalt' Access All Alternates lookup 0"  {"'aalt' Access All Alternates lookup 0 subtable"  } ['aalt' ('DFLT' <'dflt' > ) ]
Lookup: 3 0 0 "'aalt' Access All Alternates in Latin lookup 0"  {"'aalt' Access All Alternates in Latin lookup 0 subtable"  } ['aalt' ('latn' <'ROM ' 'MOL ' 'TRK ' 'AZE ' 'CRT ' 'dflt' > ) ]
Lookup: 1 0 0 "romanian"  {"romanian subtable"  } ['locl' ('latn' <'ROM ' 'MOL ' > ) ]
Lookup: 1 0 0 "turkish"  {"turkish subtable"  } ['locl' ('latn' <'TRK ' 'AZE ' 'CRT ' > ) ]
Lookup: 1 0 0 "'ss01' Style Set 1 in Latin lookup 2"  {"'ss01' Style Set 1 in Latin lookup 2 subtable"  } ['ss01' ('latn' <'dflt' 'ROM ' 'MOL ' 'TRK ' 'AZE ' 'CRT ' > 'DFLT' <'dflt' > ) ]
Lookup: 1 0 0 "'smcp' Lowercase to Small Capitals in Latin lookup 3"  {"'smcp' Lowercase to Small Capitals in Latin lookup 3 subtable"  } ['smcp' ('latn' <'dflt' 'ROM ' 'MOL ' 'TRK ' 'AZE ' 'CRT ' > 'DFLT' <'dflt' > ) ]

StartChar: a
Encoding: 97 97 0
Width: 402
VWidth: 0
Flags: HW
HStem: -13 40<101.5 204.392> -8 52<296.5 364.663> 369 35<139.213 275.169>
VStem: 32 71<275.523 336.775> 38 85<34.394 122.745> 247 77<51.4188 187 203.22 350.691>
AnchorPoint: "top" 197 500 basechar 0
AnchorPoint: "l;bl" 0 10 basechar 0
AnchorPoint: "l;x" 20 385 basechar 0
AnchorPoint: "l;o" 0 200 basechar 0
AnchorPoint: "r;bl" 402 10 basechar 0
AnchorPoint: "r;x" 377 385 basechar 0
AnchorPoint: "r;o" 392 200 basechar 0
LayerCount: 3
Fore
SplineSet
247 187 m 1xac
 238 184 217 178 193 167 c 0
 159 151 123 133 123 81 c 0
 123 51 141 27 167 27 c 0
 177 27 247 40 247 98 c 2
 247 187 l 1xac
386 55 m 0
 386 15 336 -8 309 -8 c 0x74
 284 -8 260 0 251 48 c 1
 230 17 186 -13 126 -13 c 0
 77 -13 38 16 38 71 c 0xac
 38 125 95 168 247 209 c 1
 247 282 l 2
 247 327 238 369 173 369 c 0
 142 369 103 348 103 333 c 0
 103 328 112 314 112 296 c 0
 112 265 91 250 71 250 c 0
 50 250 32 266 32 297 c 0
 32 314 50 336 66 347 c 0
 107 376 162 404 225 404 c 0
 324 404 324 357 324 231 c 2
 324 125 l 2
 324 75 325 44 344 44 c 0x74
 367 44 367 65 381 65 c 0
 385 65 386 60 386 55 c 0
EndSplineSet
Layer: 2
SplineSet
38 71 m 4xac
 38 125 95 168 247 209 c 5
 247 282 l 6
 247 327 242 369 177 369 c 4
 133 369 107 350 107 333 c 4
 107 328 112 314 112 296 c 4
 112 265 95 250 75 250 c 4
 54 250 32 266 32 297 c 4
 32 341 129 404 225 404 c 4
 324 404 324 357 324 231 c 6
 324 125 l 6
 324 75 325 44 344 44 c 4
 367 44 365 65 379 65 c 4
 384 65 386 59 386 52 c 4
 386 17 336 -8 309 -8 c 4x74
 284 -8 260 0 251 48 c 5
 230 17 186 -13 126 -13 c 4
 77 -13 38 16 38 71 c 4xac
247 187 m 5
 238 184 217 178 193 167 c 4
 159 151 123 133 123 81 c 4
 123 51 141 27 167 27 c 4xac
 177 27 247 40 247 98 c 6
 247 187 l 5
EndSplineSet
AlternateSubs2: "'aalt' Access All Alternates lookup 0 subtable" a.sc
AlternateSubs2: "'aalt' Access All Alternates in Latin lookup 0 subtable" a.sc
Substitution2: "'smcp' Lowercase to Small Capitals in Latin lookup 3 subtable" a.sc
EndChar

StartChar: M
Encoding: 77 77 1
Width: 890
VWidth: 0
Flags: HW
HStem: 0 21G<32.5 189.5 403 414.5 596.5 858.5> 616 20G<91.5 256 687 836.5>
VStem: 98 32<33.9267 179.058> 686 92<34.1803 354.476>
DStem2: 272 620 225 476 0.332125 -0.943235<45.5382 526.91> 447 123 426 10 0.410666 0.911786<0 474.563>
AnchorPoint: "top" 447 730 basechar 0
AnchorPoint: "l;bl" 0 10 basechar 0
AnchorPoint: "l;o" 20 200 basechar 0
AnchorPoint: "l;hi" 60 610 basechar 0
AnchorPoint: "l;x" 30 385 basechar 0
AnchorPoint: "r;hi2" 850 670 basechar 0
AnchorPoint: "r;bl" 890 10 basechar 0
AnchorPoint: "r;o" 870 200 basechar 0
AnchorPoint: "r;hi" 860 610 basechar 0
AnchorPoint: "r;x" 870 385 basechar 0
LayerCount: 3
Fore
SplineSet
836 636 m 1
 837 634 839 630 839 626 c 0
 839 604 783.116210938 624.923828125 766 599 c 0
 758.053710938 586.96484375 757 563 757 520 c 0
 757 493 774.068359375 113.006835938 775 104 c 2
 778 75 l 2
 785.443359375 3.044921875 860 35 860 10 c 0
 860 6 859 2 858 0 c 1
 597 0 l 1
 596 2 594 6 594 10 c 0
 594 28 638 17 665 30 c 0
 684 40 686 56 686 77 c 2
 686 96 l 2
 686 133 669 545 666 545 c 0
 661 545 634.149414062 478.93359375 600 402 c 2
 426 10 l 2
 421 -2 419 -4 410 -4 c 2
 408 -4 l 2
 398 -4 398 -3 393 12 c 2
 225 476 l 2
 209.817382812 517.934570312 197 545 196 545 c 0
 195 545 192 525 187 496 c 0
 178.352539062 441.232421875 168.829101562 379.935546875 161 322 c 0
 152 254 130 111 130 60 c 0
 130 31 141 29 160 24 c 0
 173 21 191 19 191 10 c 0
 191 6 190 2 189 0 c 1
 33 0 l 1
 32 2 30 6 30 10 c 0
 30 27 72 17 87 39 c 0
 92 47 96 60 98 75 c 0
 103 118 111.716796875 164.041015625 119 213 c 2
 137 334 l 2
 158 469 176 584 176 588 c 0
 176 595 174 599 171 603 c 0
 155 620 90 605 90 626 c 0
 90 630 91 634 92 636 c 1
 250 636 l 2
 262 636 267 634 272 620 c 2
 447 123 l 1
 594 451 l 1
 674 627 l 2
 677 634 683 636 691 636 c 2
 836 636 l 1
EndSplineSet
Layer: 2
SplineSet
836 636 m 5
 837 634 839 630 839 626 c 4
 839 604 783 625 766 599 c 4
 758 587 757 563 757 520 c 4
 757 493 774 113 775 104 c 6
 778 75 l 6
 785 3 860 35 860 10 c 4
 860 6 859 2 858 0 c 5
 597 0 l 5
 596 2 594 6 594 10 c 4
 594 28 638 17 665 30 c 4
 684 40 686 56 686 77 c 6
 686 96 l 6
 686 133 669 545 666 545 c 4
 661 545 634 479 600 402 c 6
 426 10 l 6
 421 -2 419 -4 410 -4 c 6
 408 -4 l 6
 398 -4 398 -3 393 12 c 6
 225 476 l 6
 210 518 197 545 196 545 c 4
 195 545 184 493 175 431 c 4
 153 290 130 118 130 60 c 4
 130 31 141 29 160 24 c 4
 173 21 191 19 191 10 c 4
 191 6 190 2 189 0 c 5
 33 0 l 5
 32 2 30 6 30 10 c 4
 30 27 72 17 87 39 c 4
 92 47 96 60 98 75 c 4
 122 274 176 582 176 588 c 4
 176 595 174 599 171 603 c 4
 155 620 90 605 90 626 c 4
 90 630 91 634 92 636 c 5
 250 636 l 6
 262 636 267 634 272 620 c 6
 447 123 l 5
 594 451 l 5
 674 627 l 6
 677 634 683 636 691 636 c 6
 836 636 l 5
EndSplineSet
AlternateSubs2: "'aalt' Access All Alternates lookup 0 subtable" M.c2
AlternateSubs2: "'aalt' Access All Alternates in Latin lookup 0 subtable" M.c2
Substitution2: "'c2sc' Capitals to Small Capitals in Latin lookup 4 subtable" M.c2
EndChar

StartChar: b
Encoding: 98 98 2
Width: 471
VWidth: 0
Flags: HW
HStem: -13 24<197.897 279.338> 378 26<197.247 291.907> 644 20G<82.5 137.5>
VStem: 66 77<57.6226 343.709 360 595.22> 350 86<98.7435 299.928>
AnchorPoint: "top" 97 730 basechar 0
AnchorPoint: "l;hi2" 0 670 basechar 0
AnchorPoint: "l;bl" 0 10 basechar 0
AnchorPoint: "l;x" 0 385 basechar 0
AnchorPoint: "l;o" 0 200 basechar 0
AnchorPoint: "r;bl" 451 10 basechar 0
AnchorPoint: "r;x" 451 385 basechar 0
AnchorPoint: "r;o" 471 200 basechar 0
LayerCount: 3
Fore
SplineSet
141 288 m 2
 141 182 l 2
 141 71 175 11 242 11 c 0
 312 11 350 111 350 206 c 0
 350 294 322 378 249 378 c 0
 199 378 141 346 141 288 c 2
66 552 m 2
 66 623 5 584 5 609 c 0
 5 640 29 610 136 664 c 1
 139 664 144 662 145 658 c 0
 145 656 143 609 143 605 c 2
 143 360 l 1
 143 360 196 404 260 404 c 0
 374 404 436 302 436 199 c 0
 436 94 374 -13 243 -13 c 0
 206 -13 171 -3 146 9 c 0
 133 15 113 26 108 26 c 0
 95 26 86 2 72 2 c 2
 70 2 l 1
 65 3 63 6 63 13 c 0
 63 21 66 62 66 80 c 2
 66 552 l 2
EndSplineSet
Layer: 2
SplineSet
66 552 m 6
 66 623 5 584 5 609 c 4
 5 640 29 607 136 664 c 5
 139 664 144 662 145 658 c 4
 145 656 143 609 143 605 c 6
 143 362 l 5
 166 376 l 6
 186 388 218 404 260 404 c 4
 374 404 434 302 434 199 c 4
 434 94 371 -13 240 -13 c 4
 154 -13 128 23 113 23 c 4
 102 23 89 6 76 4 c 4
 66 2 63 4 63 13 c 4
 63 21 66 62 66 80 c 6
 66 552 l 6
141 262 m 6
 141 177 l 6
 141 66 172 11 239 11 c 4
 312 11 347 107 347 201 c 4
 347 290 313 376 239 376 c 4
 189 376 141 332 141 262 c 6
EndSplineSet
AlternateSubs2: "'aalt' Access All Alternates lookup 0 subtable" b.sc
AlternateSubs2: "'aalt' Access All Alternates in Latin lookup 0 subtable" b.sc
Substitution2: "'smcp' Lowercase to Small Capitals in Latin lookup 3 subtable" b.sc
EndChar

StartChar: c
Encoding: 99 99 3
Width: 403
VWidth: 0
Flags: HW
HStem: -13 58<164.196 286.328> 379 25<175.04 251.806>
VStem: 25 79<110.824 293.65>
AnchorPoint: "cedilla" 212 -80 basechar 0
AnchorPoint: "top" 219 500 basechar 0
AnchorPoint: "l;bl" 30 10 basechar 0
AnchorPoint: "l;x" 30 385 basechar 0
AnchorPoint: "l;o" 0 200 basechar 0
AnchorPoint: "r;bl" 383 10 basechar 0
AnchorPoint: "r;x" 403 385 basechar 0
AnchorPoint: "r;o" 403 200 basechar 0
LayerCount: 3
Back
SplineSet
354 106 m 4
 360 106 366 101 366 94 c 4
 366 90 363.995117188 87.0029296875 361 82 c 4
 314.926757812 5.0439453125 243 -13 207 -13 c 4
 147 -13 25 18 25 197 c 4
 25 316 105 404 232 404 c 4
 318 404 368 360 368 325 c 4
 368 310 354 289 332 289 c 4
 276 289 280 379 219 379 c 4
 161 379 104 322 104 217 c 4
 104 75 181 45 233 45 c 4
 276 45 311 61 343 97 c 4
 348 102 350 106 354 106 c 4
EndSplineSet
Fore
SplineSet
354 106 m 0
 360 106 366 101 366 94 c 0
 366 80 304 -13 207 -13 c 0
 147 -13 25 18 25 197 c 0
 25 316 105 404 232 404 c 0
 318 404 368 360 368 325 c 0
 368 310 354 289 332 289 c 0
 306 289 293 308 281 328 c 0
 266 352 252 379 219 379 c 0
 161 379 104 322 104 217 c 0
 104 75 181 45 233 45 c 0
 317 45 343 106 354 106 c 0
EndSplineSet
Layer: 2
SplineSet
368 94 m 5
 322 6 245 -13 207 -13 c 4
 147 -13 25 18 25 197 c 4
 25 316 105 404 232 404 c 4
 318 404 368 360 368 325 c 4
 368 310 354 289 332 289 c 4
 276 289 280 379 219 379 c 4
 161 379 104 322 104 217 c 4
 104 75 181 45 233 45 c 4
 280 45 317 64 352 108 c 5
 361 104 365 100 368 94 c 5
EndSplineSet
AlternateSubs2: "'aalt' Access All Alternates lookup 0 subtable" c.sc
AlternateSubs2: "'aalt' Access All Alternates in Latin lookup 0 subtable" c.sc
Substitution2: "'smcp' Lowercase to Small Capitals in Latin lookup 3 subtable" c.sc
EndChar

StartChar: d
Encoding: 100 100 4
Width: 473
VWidth: 0
Flags: HW
HStem: -13 40<179.128 272.606> 380 24<180.55 276.133> 644 20G<335 390.5>
VStem: 25 85<108.701 285.851> 319 77<50.1562 349.5 389 595.22>
AnchorPoint: "top" 350 730 basechar 0
AnchorPoint: "commaright" 449 540 basechar 0
AnchorPoint: "l;bl" 20 10 basechar 0
AnchorPoint: "l;x" 20 385 basechar 0
AnchorPoint: "l;o" 0 200 basechar 0
AnchorPoint: "r;bl" 473 10 basechar 0
AnchorPoint: "r;x" 463 385 basechar 0
AnchorPoint: "r;hi" 463 610 basechar 0
AnchorPoint: "r;o" 473 200 basechar 0
LayerCount: 3
Fore
SplineSet
321 127 m 2
 321 256 l 2
 321 340 290 380 225 380 c 0
 148 380 110 298 110 214 c 0
 110 125 151 27 241 27 c 0
 270 27 294 40 309 66 c 0
 318 82 321 81 321 127 c 2
247 404 m 0
 270 404 305 394 319 389 c 1
 319 552 l 2
 319 623 258 584 258 609 c 0
 258 640 281 611 389 664 c 1
 392 664 397 662 398 658 c 0
 398 656 396 609 396 605 c 2
 396 92 l 2
 396 9 457 60 457 28 c 0
 457 4 428 23 336 -13 c 1
 327 -13 l 1
 325 42 l 1
 294 16 248 -13 199 -13 c 0
 88 -13 25 86 25 188 c 0
 25 295 93 404 247 404 c 0
EndSplineSet
Layer: 2
SplineSet
247 404 m 4
 276 404 298 396 319 391 c 5
 319 552 l 6
 319 623 258 584 258 609 c 4
 258 640 282 607 389 664 c 5
 392 664 397 662 398 658 c 4
 398 656 396 609 396 605 c 6
 396 92 l 6
 396 9 457 60 457 28 c 4
 457 4 426 26 334 -13 c 5
 325 -13 l 5
 325 42 l 5
 294 16 259 -13 199 -13 c 4
 88 -13 25 86 25 188 c 4
 25 295 93 404 247 404 c 4
321 127 m 6
 321 256 l 6
 321 340 290 380 225 380 c 4
 148 380 110 298 110 214 c 4
 110 122 155 27 241 27 c 4
 284 27 321 60 321 127 c 6
EndSplineSet
AlternateSubs2: "'aalt' Access All Alternates lookup 0 subtable" d.sc
AlternateSubs2: "'aalt' Access All Alternates in Latin lookup 0 subtable" d.sc
Substitution2: "'smcp' Lowercase to Small Capitals in Latin lookup 3 subtable" d.sc
EndChar

StartChar: e
Encoding: 101 101 5
Width: 409
VWidth: 0
Flags: HW
HStem: -13 58<168.434 299.618> 251 21<111 288.015> 379 25<169.088 250.018>
VStem: 25 78<114.775 273.059> 291 81<272.88 337.101>
AnchorPoint: "top" 213 500 basechar 0
AnchorPoint: "l;bl" 30 10 basechar 0
AnchorPoint: "l;x" 30 385 basechar 0
AnchorPoint: "l;o" 0 200 basechar 0
AnchorPoint: "r;bl" 389 10 basechar 0
AnchorPoint: "r;x" 389 385 basechar 0
AnchorPoint: "r;o" 409 200 basechar 0
LayerCount: 3
Fore
SplineSet
211 379 m 0
 181 379 125 358 111 272 c 1
 238 272 l 2
 290 272 291 275 291 291 c 0
 291 333 262 379 211 379 c 0
213 404 m 0
 347 404 372 296 372 279 c 0
 372 251 371 251 284 251 c 2
 106 251 l 1
 103 234 103 218 103 202 c 0
 103 111 156 45 251 45 c 0
 278 45 318 51 355 98 c 0
 358 102 361 105 365 105 c 0
 370 105 376 100 376 94 c 0
 376 92 374 89 373 86 c 0
 345 33 293 -13 215 -13 c 0
 137 -13 25 30 25 200 c 0
 25 300 92 404 213 404 c 0
EndSplineSet
Layer: 2
SplineSet
214 404 m 4
 348 404 373 296 373 279 c 4
 373 251 372 251 285 251 c 6
 108 251 l 5
 105 234 104 218 104 202 c 4
 104 113 146 45 240 45 c 4
 267 45 321 48 362 107 c 5
 368 105 376 99 378 94 c 5
 347 29 283 -13 207 -13 c 4
 129 -13 26 30 26 200 c 4
 26 300 93 404 214 404 c 4
212 379 m 4
 182 379 126 358 112 272 c 5
 239 272 l 6
 291 272 292 275 292 291 c 4
 292 333 263 379 212 379 c 4
EndSplineSet
AlternateSubs2: "'aalt' Access All Alternates lookup 0 subtable" e.sc
AlternateSubs2: "'aalt' Access All Alternates in Latin lookup 0 subtable" e.sc
Substitution2: "'smcp' Lowercase to Small Capitals in Latin lookup 3 subtable" e.sc
EndChar

StartChar: f
Encoding: 102 102 6
Width: 270
VWidth: 0
Flags: HW
HStem: 0 21G<16.5 224.5> 349 44<154 264.971> 623 41<195.672 300>
VStem: 77 77<23.2333 349>
AnchorPoint: "top" 224 730 basechar 0
AnchorPoint: "l;bl" 0 10 basechar 0
AnchorPoint: "l;x" 0 385 basechar 0
AnchorPoint: "l;o" 0 200 basechar 0
AnchorPoint: "r;bl" 245 10 basechar 0
AnchorPoint: "r;x" 270 385 basechar 0
AnchorPoint: "r;k;hi" 380 610 basechar 0
AnchorPoint: "r;o" 270 200 basechar 0
LayerCount: 3
Fore
SplineSet
17 0 m 1
 16 2 15 5 15 8 c 0
 15 30 77 -2 77 62 c 2
 77 350 l 1
 77 350 44 351 30 351 c 0
 22 351 16 352 16 362 c 0
 16 377 61 374 69 401 c 0
 90 467 80 520 149 607 c 0
 178 643 230 664 275 664 c 0
 325 664 365 647 365 613 c 0
 365 591 348 575 327 575 c 0
 276 575 266 623 224 623 c 0
 170 623 154 562 154 474 c 2
 154 393 l 1
 252 393 l 2
 263 393 265 389 265 369 c 0
 265 352 255 349 238 349 c 2
 154 349 l 1
 154 62 l 2
 154 -3 226 31 226 8 c 0
 226 5 225 2 224 0 c 1
 17 0 l 1
EndSplineSet
Layer: 2
SplineSet
17 0 m 5
 16 2 15 5 15 8 c 4
 15 30 77 -2 77 62 c 6
 77 350 l 5
 77 350 44 351 30 351 c 4
 22 351 16 352 16 362 c 4
 16 377 61 374 69 401 c 4
 90 467 76 520 145 607 c 4
 174 643 230 664 275 664 c 4
 325 664 365 647 365 613 c 4
 365 591 348 575 327 575 c 4
 276 575 266 623 224 623 c 4
 170 623 154 562 154 474 c 6
 154 393 l 5
 252 393 l 6
 263 393 265 389 265 369 c 4
 265 352 255 349 238 349 c 6
 154 349 l 5
 154 62 l 6
 154 -3 226 31 226 8 c 4
 226 5 225 2 224 0 c 5
 17 0 l 5
EndSplineSet
AlternateSubs2: "'aalt' Access All Alternates lookup 0 subtable" f.sc
AlternateSubs2: "'aalt' Access All Alternates in Latin lookup 0 subtable" f.sc
Substitution2: "'smcp' Lowercase to Small Capitals in Latin lookup 3 subtable" f.sc
EndChar

StartChar: g
Encoding: 103 103 7
Width: 457
VWidth: 0
Flags: HW
HStem: -220 54<119.319 280.604> -28 75<111.292 354.442> 122 20<173.057 238.412> 368 37<344.352 416> 381 23<171.336 239.714>
VStem: 38 44<-182.5 -77.4584> 45 80<182.172 332.575> 57 49<36 102.209> 281 86<193.831 339.163> 365 37<-108.267 -2.50219>
AnchorPoint: "top" 212 500 basechar 0
AnchorPoint: "l;bl" 0 10 basechar 0
AnchorPoint: "l;x" 20 385 basechar 0
AnchorPoint: "l;o" 0 200 basechar 0
AnchorPoint: "l;lo" 20 -200 basechar 0
AnchorPoint: "r;bl" 437 10 basechar 0
AnchorPoint: "r;x" 457 385 basechar 0
AnchorPoint: "r;o" 437 200 basechar 0
AnchorPoint: "r;lo" 417 -200 basechar 0
LayerCount: 3
Back
SplineSet
421 332 m 4xf2
 392 332 390 368 361 368 c 4
 348 368 342 361 336 352 c 5
 348 339 367 305 367 268 c 4
 367 196 308 122 210 122 c 4
 160 122 139 132 134 132 c 4
 128 132 106 108 106 89 c 4xf180
 106 57 132 47 182 47 c 6
 239 47 l 6
 322 47 402 38 402 -45 c 4
 402 -72 389 -101 376 -122 c 4
 335 -185 262 -220 161 -220 c 4
 132 -220 38 -217 38 -148 c 4xf440
 38 -89 86 -39 106 -21 c 5
 70 -10 57 23 57 49 c 4xf1
 57 93 114 140 114 140 c 5
 67 163 45 210 45 258 c 4
 45 331 102 404 210 404 c 4xea
 258 404 295 390 320 367 c 5
 346 393 377 405 404 405 c 4
 428 405 453 389 453 365 c 4
 453 346 438 332 421 332 c 4xf2
365 -77 m 4xe440
 365 -37 334 -28 208 -28 c 6
 173 -28 l 6
 151 -28 127 -26 127 -26 c 5
 113 -39 82 -62 82 -90 c 4
 82 -142 148 -166 217 -166 c 4
 290 -166 365 -139 365 -77 c 4xe440
281 261 m 4xea80
 281 341 246 381 206 381 c 4
 165 381 125 340 125 263 c 4
 125 182 166 142 207 142 c 4
 247 142 281 179 281 261 c 4xea80
EndSplineSet
Fore
SplineSet
361 368 m 0xf2
 348 368 342 361 336 352 c 1
 348 339 367 305 367 268 c 0
 367 196 308 122 210 122 c 0
 160 122 139 132 134 132 c 0
 128 132 106 108 106 89 c 0xf180
 106 57 132 47 182 47 c 2
 239 47 l 2
 322 47 402 38 402 -45 c 0
 402 -72 389 -101 376 -122 c 0
 335 -185 262 -220 161 -220 c 0
 132 -220 38 -217 38 -148 c 0xf440
 38 -89 86 -39 106 -21 c 1
 70 -10 57 23 57 49 c 0xf1
 57 93 114 140 114 140 c 1
 67 163 45 210 45 258 c 0
 45 331 102 404 210 404 c 0xea
 258 404 295 390 320 367 c 1
 346 393 377 405 404 405 c 0
 428 405 453 389 453 365 c 0
 453 346 438 332 421 332 c 0
 407 332 401 339 392 349 c 0
 383 359 376 368 361 368 c 0xf2
365 -77 m 0xe440
 365 -37 334 -28 208 -28 c 2
 173 -28 l 2
 151 -28 127 -26 127 -26 c 1
 113 -39 82 -62 82 -90 c 0
 82 -142 148 -166 217 -166 c 0
 290 -166 365 -139 365 -77 c 0xe440
281 261 m 0xea80
 281 341 246 381 206 381 c 0
 165 381 125 340 125 263 c 0
 125 182 166 142 207 142 c 0
 247 142 281 179 281 261 c 0xea80
EndSplineSet
Layer: 2
SplineSet
286 261 m 4xea80
 286 341 248 381 208 381 c 4
 167 381 127 340 127 263 c 4
 127 182 169 142 210 142 c 4
 250 142 286 179 286 261 c 4xea80
206 -167 m 4
 270 -167 365 -151 365 -77 c 4
 365 -37 334 -26 208 -26 c 6
 173 -26 l 6
 151 -26 127 -24 127 -24 c 5xe240
 127 -24 119 -30 110 -40 c 4
 98 -54 84 -74 84 -96 c 4xe4
 84 -145 132 -167 206 -167 c 4
280 45 m 6
 341 45 402 20 402 -45 c 4
 402 -107 366 -148 328 -175 c 4
 282 -208 219 -220 157 -220 c 4
 122 -220 38 -211 38 -148 c 4xf440
 38 -89 86 -37 106 -19 c 5
 70 -8 57 23 57 49 c 4xf1
 57 93 114 140 114 140 c 5
 67 163 45 210 45 258 c 4
 45 331 102 404 210 404 c 4xea
 258 404 295 390 320 367 c 5
 346 393 377 405 404 405 c 4
 433 405 453 389 453 365 c 4
 453 347 439 332 421 332 c 4
 396 332 383 368 358 368 c 4
 350 368 343 363 336 352 c 5
 348 339 367 305 367 268 c 4
 367 196 308 122 210 122 c 4
 160 122 139 132 134 132 c 4
 128 132 106 108 106 89 c 4xf180
 106 57 132 45 182 45 c 6
 280 45 l 6
EndSplineSet
AlternateSubs2: "'aalt' Access All Alternates lookup 0 subtable" g.sc g.ld
AlternateSubs2: "'aalt' Access All Alternates in Latin lookup 0 subtable" g.sc g.ld
Substitution2: "'smcp' Lowercase to Small Capitals in Latin lookup 3 subtable" g.sc
Substitution2: "'ss01' Style Set 1 in Latin lookup 2 subtable" g.ld
EndChar

StartChar: h
Encoding: 104 104 8
Width: 486
VWidth: 0
Flags: HW
HStem: 0 21G<16.5 214.5 271.5 469.5> 354 50<210.883 312.329> 644 20G<93.5 148.5>
VStem: 77 77<22.8749 324.477 330 595.22> 332 77<22.8749 334.5>
AnchorPoint: "top" 108 730 basechar 0
AnchorPoint: "l;hi2" 10 670 basechar 0
AnchorPoint: "l;bl" 0 10 basechar 0
AnchorPoint: "l;x" 20 385 basechar 0
AnchorPoint: "l;o" 10 200 basechar 0
AnchorPoint: "r;bl" 486 10 basechar 0
AnchorPoint: "r;x" 476 385 basechar 0
AnchorPoint: "r;o" 476 200 basechar 0
LayerCount: 3
Back
SplineSet
17 0 m 5
 16 2 15 5 15 8 c 4
 15 30 77 -2 77 62 c 6
 77 552 l 6
 77 623 16 584 16 609 c 4
 16 640 40 607 147 664 c 5
 150 664 155 662 156 658 c 4
 156 656 154 609 154 605 c 6
 154 332 l 5
 158 338 167 344 173 352 c 4
 193 377 231 404 286 404 c 4
 399 404 409 346 409 227 c 6
 409 62 l 6
 409 0 471 30 471 8 c 4
 471 5 470 2 469 0 c 5
 272 0 l 5
 271 2 270 5 270 8 c 4
 270 30 332 -2 332 62 c 6
 332 221 l 6
 332 318 317 354 250 354 c 4
 193 354 154 314 154 288 c 6
 154 62 l 6
 154 0 216 30 216 8 c 4
 216 5 215 2 214 0 c 5
 17 0 l 5
EndSplineSet
Fore
SplineSet
147 664 m 1
 150 664 155 662 156 658 c 0
 156 656 154 609 154 605 c 2
 154 330 l 1
 183 362 217 404 290 404 c 0
 392 404 409 346 409 227 c 2
 409 62 l 2
 409 0 471 30 471 8 c 0
 471 5 470 2 469 0 c 1
 272 0 l 1
 271 2 270 5 270 8 c 0
 270 30 332 -2 332 62 c 2
 332 221 l 2
 332 318 321 354 254 354 c 0
 223 354 204 347 186 333 c 0
 166 318 154 302 154 288 c 2
 154 62 l 2
 154 0 216 30 216 8 c 0
 216 5 215 2 214 0 c 1
 17 0 l 1
 16 2 15 5 15 8 c 0
 15 30 77 -2 77 62 c 2
 77 552 l 2
 77 623 16 584 16 609 c 0
 16 640 40 610 147 664 c 1
EndSplineSet
Layer: 2
SplineSet
17 0 m 5
 16 2 15 5 15 8 c 4
 15 30 77 -2 77 62 c 6
 77 552 l 6
 77 623 16 584 16 609 c 4
 16 640 40 607 147 664 c 5
 150 664 155 662 156 658 c 4
 156 656 154 609 154 605 c 6
 154 330 l 5
 181 361 l 6
 188 368 223 404 286 404 c 4
 399 404 409 346 409 227 c 6
 409 62 l 6
 409 0 471 30 471 8 c 4
 471 5 470 2 469 0 c 5
 272 0 l 5
 271 2 270 5 270 8 c 4
 270 30 332 -2 332 62 c 6
 332 221 l 6
 332 318 317 354 250 354 c 4
 193 354 154 314 154 288 c 6
 154 62 l 6
 154 0 216 30 216 8 c 4
 216 5 215 2 214 0 c 5
 17 0 l 5
EndSplineSet
AlternateSubs2: "'aalt' Access All Alternates lookup 0 subtable" h.sc
AlternateSubs2: "'aalt' Access All Alternates in Latin lookup 0 subtable" h.sc
Substitution2: "'smcp' Lowercase to Small Capitals in Latin lookup 3 subtable" h.sc
EndChar

StartChar: k
Encoding: 107 107 11
Width: 471
VWidth: 0
Flags: HW
HStem: 0 21G<16.5 214.5 256.5 454.5> 175 23<154 197.79> 373 20G<260.5 440.5> 644 20G<93.5 148.5>
VStem: 77 77<22.8749 174 198.001 595.22>
DStem2: 220 223 265 233 0.660773 0.750586<18.8358 148.187> 261 212 222 135 0.607119 -0.794611<-14.8532 161.586>
AnchorPoint: "top" 108 730 basechar 0
AnchorPoint: "l;hi2" 10 670 basechar 0
AnchorPoint: "cedilla" 237 -80 basechar 0
AnchorPoint: "l;bl" 0 10 basechar 0
AnchorPoint: "l;x" 20 385 basechar 0
AnchorPoint: "l;o" 10 200 basechar 0
AnchorPoint: "r;bl" 471 10 basechar 0
AnchorPoint: "r;x" 461 385 basechar 0
AnchorPoint: "r;o" 441 200 basechar 0
LayerCount: 3
Fore
SplineSet
147 664 m 1
 150 664 155 662 156 658 c 0
 156 656 154 609 154 605 c 2
 154 199 l 1
 154 199 157 198 167 198 c 0
 180 198 199.8203125 199.151367188 220 223 c 2
 286 301 l 2
 303 322 308 336 308 346 c 0
 308 356 303 361 300 364 c 0
 282 381 259 369 259 385 c 0
 259 388 260 391 261 393 c 1
 440 393 l 1
 441 391 442 388 442 385 c 0
 442 365 414.02734375 390.96875 368 350 c 0
 359.005859375 341.994140625 348 330 335 315 c 2
 265 233 l 2
 256 223 256 219 261 212 c 2
 369 68 l 2
 384 49 389 41 397 34 c 0
 421 12 456 25 456 8 c 0
 456 5 455 2 454 0 c 1
 257 0 l 1
 256 2 255 5 255 8 c 0
 255 24 292 13 292 32 c 0
 292 39 286 49 272 68 c 2
 222 135 l 2
 210 150 196 175 170 175 c 0
 165 175 154 174 154 174 c 1
 154 62 l 2
 154 0 216 30 216 8 c 0
 216 5 215 2 214 0 c 1
 17 0 l 1
 16 2 15 5 15 8 c 0
 15 30 77 -2 77 62 c 2
 77 552 l 2
 77 623 16 584 16 609 c 0
 16 640 40 610 147 664 c 1
EndSplineSet
Layer: 2
SplineSet
335 315 m 6
 265 233 l 6
 260 228 258 221 263 214 c 6
 369 68 l 6
 383 49 389 41 397 34 c 4
 421 12 456 25 456 8 c 4
 456 5 455 2 454 0 c 5
 257 0 l 5
 256 2 255 5 255 8 c 4
 255 24 292 13 292 32 c 4
 292 39 286 49 272 68 c 6
 222 135 l 6
 210 150 196 175 170 175 c 4
 165 175 154 174 154 174 c 5
 154 62 l 6
 154 0 216 30 216 8 c 4
 216 5 215 2 214 0 c 5
 17 0 l 5
 16 2 15 5 15 8 c 4
 15 30 77 -2 77 62 c 6
 77 552 l 6
 77 623 16 584 16 609 c 4
 16 640 40 607 147 664 c 5
 150 664 155 662 156 658 c 4
 156 656 154 609 154 605 c 6
 154 199 l 5
 154 199 157 198 167 198 c 4
 180 198 200 199 220 223 c 6
 286 301 l 6
 303 322 308 336 308 346 c 4
 308 356 303 361 300 364 c 4
 282 381 259 369 259 385 c 4
 259 388 260 391 261 393 c 5
 440 393 l 5
 441 391 442 388 442 385 c 4
 442 365 414 391 368 350 c 4
 359 342 348 330 335 315 c 6
EndSplineSet
AlternateSubs2: "'aalt' Access All Alternates lookup 0 subtable" k.sc
AlternateSubs2: "'aalt' Access All Alternates in Latin lookup 0 subtable" k.sc
Substitution2: "'smcp' Lowercase to Small Capitals in Latin lookup 3 subtable" k.sc
EndChar

StartChar: l
Encoding: 108 108 12
Width: 231
VWidth: 0
Flags: HW
HStem: 0 21G<16.5 214.5> 644 20G<93.5 148.5>
VStem: 77 77<22.8749 595.22>
AnchorPoint: "commaright" 207 540 basechar 0
AnchorPoint: "cedilla" 117 -80 basechar 0
AnchorPoint: "top" 108 730 basechar 0
AnchorPoint: "l;bl" 0 10 basechar 0
AnchorPoint: "l;x" 20 385 basechar 0
AnchorPoint: "l;o" 10 200 basechar 0
AnchorPoint: "r;bl" 231 10 basechar 0
AnchorPoint: "r;x" 221 385 basechar 0
AnchorPoint: "r;hi" 231 610 basechar 0
AnchorPoint: "r;o" 221 200 basechar 0
AnchorPoint: "l;hi2" 10 670 basechar 0
LayerCount: 3
Fore
SplineSet
77 62 m 2
 77 552 l 2
 77 623 16 584 16 609 c 0
 16 640 40 610 147 664 c 1
 150 664 155 662 156 658 c 0
 156 656 154 609 154 605 c 2
 154 62 l 6
 154 0 216 30 216 8 c 4
 216 5 215 2 214 0 c 5
 17 0 l 1
 16 2 15 5 15 8 c 0
 15 30 77 -2 77 62 c 2
EndSplineSet
Layer: 2
SplineSet
77 62 m 6
 77 552 l 6
 77 623 16 584 16 609 c 4
 16 640 40 607 147 664 c 5
 150 664 155 662 156 658 c 4
 156 656 154 609 154 605 c 6
 154 62 l 6
 154 0 216 30 216 8 c 4
 216 5 215 2 214 0 c 5
 17 0 l 5
 16 2 15 5 15 8 c 4
 15 30 77 -2 77 62 c 6
EndSplineSet
AlternateSubs2: "'aalt' Access All Alternates lookup 0 subtable" l.sc
AlternateSubs2: "'aalt' Access All Alternates in Latin lookup 0 subtable" l.sc
Substitution2: "'smcp' Lowercase to Small Capitals in Latin lookup 3 subtable" l.sc
EndChar

StartChar: m
Encoding: 109 109 13
Width: 721
VWidth: 0
Flags: HW
HStem: 0 21G<16.5 214.5 261.5 459.5 506.5 704.5> 354 50<212.448 306.765 452.528 551.503> 392 20G<93.5 148.5>
VStem: 77 77<22.8749 341.22> 322 77<22.8749 326.622> 567 77<22.8749 338.919>
CounterMasks: 1 1c
AnchorPoint: "top" 368 500 basechar 0
AnchorPoint: "l;bl" 0 10 basechar 0
AnchorPoint: "l;x" 0 385 basechar 0
AnchorPoint: "l;o" 0 200 basechar 0
AnchorPoint: "r;bl" 721 10 basechar 0
AnchorPoint: "r;x" 711 385 basechar 0
AnchorPoint: "r;o" 711 200 basechar 0
LayerCount: 3
Fore
SplineSet
286 404 m 0xdc
 352 404 379 374 391 320 c 1
 422 361 457 404 531 404 c 0
 639 404 644 331 644 227 c 2
 644 62 l 2
 644 0 706 30 706 8 c 0
 706 5 705 2 704 0 c 1
 507 0 l 1
 506 2 505 5 505 8 c 0
 505 30 567 -2 567 62 c 2
 567 247 l 2
 567 318 564 354 495 354 c 0
 451 354 426 336 413 317 c 0
 401 300 398 294 398 282 c 0
 398 273 399 263 399 245 c 2
 399 62 l 2
 399 0 461 30 461 8 c 0
 461 5 460 2 459 0 c 1
 262 0 l 1
 261 2 260 5 260 8 c 0
 260 30 322 -2 322 62 c 2
 322 235 l 2
 322 316 320 354 250 354 c 0xdc
 216 354 202 345 185 333 c 0
 165 318 154 301 154 287 c 2
 154 62 l 2
 154 0 216 30 216 8 c 0
 216 5 215 2 214 0 c 1
 17 0 l 1
 16 2 15 5 15 8 c 0
 15 30 77 -2 77 62 c 2
 77 298 l 2
 77 369 16 330 16 355 c 0
 16 386 40 354 147 412 c 1xbc
 150 412 155 410 156 406 c 1
 155 400 150 386 148 323 c 1
 173 355 220 404 286 404 c 0xdc
EndSplineSet
Layer: 2
SplineSet
644 62 m 6xdc
 644 0 706 30 706 8 c 4
 706 5 705 2 704 0 c 5
 507 0 l 5
 506 2 505 5 505 8 c 4
 505 30 567 -2 567 62 c 6
 567 221 l 6
 567 318 561 354 485 354 c 4
 441 354 427 334 413 317 c 4
 400 301 398 294 398 282 c 4
 398 273 399 263 399 245 c 6
 399 62 l 6
 399 0 461 30 461 8 c 4
 461 5 460 2 459 0 c 5
 262 0 l 5
 261 2 260 5 260 8 c 4
 260 30 322 -2 322 62 c 6
 322 221 l 6
 322 318 314 354 240 354 c 4xdc
 183 354 154 314 154 288 c 6
 154 62 l 6
 154 0 216 30 216 8 c 4
 216 5 215 2 214 0 c 5
 17 0 l 5
 16 2 15 5 15 8 c 4
 15 30 77 -2 77 62 c 6
 77 298 l 6
 77 369 16 330 16 355 c 4
 16 386 40 352 147 412 c 5xbc
 150 412 155 410 156 406 c 5
 155 400 150 371 148 323 c 5
 148 323 156 334 161 340 c 4
 180 365 212 404 276 404 c 4
 351 404 378 376 391 320 c 5
 394 326 400 334 407 343 c 4
 429 371 460 404 521 404 c 4
 627 404 644 346 644 227 c 6
 644 62 l 6xdc
EndSplineSet
AlternateSubs2: "'aalt' Access All Alternates lookup 0 subtable" m.sc
AlternateSubs2: "'aalt' Access All Alternates in Latin lookup 0 subtable" m.sc
Substitution2: "'smcp' Lowercase to Small Capitals in Latin lookup 3 subtable" m.sc
EndChar

StartChar: n
Encoding: 110 110 14
Width: 486
VWidth: 0
Flags: HW
HStem: 0 21G<16.5 214.5 271.5 469.5> 354 50<211.581 313.619> 392 20G<93.5 148.5>
VStem: 77 77<22.8749 341.22> 332 77<22.8749 335.299>
AnchorPoint: "top" 248 500 basechar 0
AnchorPoint: "l;bl" 0 10 basechar 0
AnchorPoint: "l;x" 0 385 basechar 0
AnchorPoint: "l;o" 0 200 basechar 0
AnchorPoint: "r;bl" 486 10 basechar 0
AnchorPoint: "r;x" 476 385 basechar 0
AnchorPoint: "r;o" 476 200 basechar 0
LayerCount: 3
Fore
SplineSet
148 323 m 1xb8
 176 357 220 404 286 404 c 0
 390 404 409 346 409 227 c 2
 409 62 l 2
 409 0 471 30 471 8 c 0
 471 5 470 2 469 0 c 1
 272 0 l 1
 271 2 270 5 270 8 c 0
 270 30 332 -2 332 62 c 2
 332 221 l 2
 332 312 329 354 253 354 c 0xd8
 231 354 219 351 208 347 c 0
 185 337 154 309 154 286 c 2
 154 62 l 2
 154 0 216 30 216 8 c 0
 216 5 215 2 214 0 c 1
 17 0 l 1
 16 2 15 5 15 8 c 0
 15 30 77 -2 77 62 c 2
 77 298 l 2
 77 369 16 330 16 355 c 0
 16 386 40 354 147 412 c 1
 150 412 155 410 156 406 c 1
 155 400 150 371 148 323 c 1xb8
EndSplineSet
Layer: 2
SplineSet
77 298 m 6xd8
 77 369 16 330 16 355 c 4
 16 386 40 352 147 412 c 5xb8
 150 412 155 410 156 406 c 5
 155 400 150 371 148 323 c 5
 161 339 l 5
 185 364 221 404 286 404 c 4
 399 404 409 346 409 227 c 6
 409 62 l 6
 409 0 471 30 471 8 c 4
 471 5 470 2 469 0 c 5
 272 0 l 5
 271 2 270 5 270 8 c 4
 270 30 332 -2 332 62 c 6
 332 221 l 6
 332 318 320 354 250 354 c 4
 193 354 154 314 154 288 c 6
 154 62 l 6
 154 0 216 30 216 8 c 4
 216 5 215 2 214 0 c 5
 17 0 l 5
 16 2 15 5 15 8 c 4
 15 30 77 -2 77 62 c 6
 77 298 l 6xd8
EndSplineSet
AlternateSubs2: "'aalt' Access All Alternates lookup 0 subtable" n.sc
AlternateSubs2: "'aalt' Access All Alternates in Latin lookup 0 subtable" n.sc
Substitution2: "'smcp' Lowercase to Small Capitals in Latin lookup 3 subtable" n.sc
EndChar

StartChar: o
Encoding: 111 111 15
Width: 454
VWidth: 0
Flags: HW
HStem: -13 28<172.916 277.914> 376 28<183.008 280.259>
VStem: 25 88<91.1912 288.9> 341 88<101.717 302.69>
AnchorPoint: "top" 226 500 basechar 0
AnchorPoint: "l;bl" 30 10 basechar 0
AnchorPoint: "l;x" 30 385 basechar 0
AnchorPoint: "l;o" 0 200 basechar 0
AnchorPoint: "r;bl" 424 10 basechar 0
AnchorPoint: "r;x" 424 385 basechar 0
AnchorPoint: "r;o" 454 200 basechar 0
LayerCount: 3
Fore
SplineSet
228 376 m 0
 162 376 113 306 113 194 c 0
 113 94 136 15 227 15 c 0
 316 15 341 105 341 194 c 0
 341 328 292 376 228 376 c 0
429 200 m 0
 429 79 344 -13 222 -13 c 0
 120 -13 25 51 25 196 c 0
 25 305 107 404 235 404 c 0
 364 404 429 314 429 200 c 0
EndSplineSet
Layer: 2
SplineSet
429 200 m 4
 429 79 344 -13 222 -13 c 4
 120 -13 25 51 25 196 c 4
 25 305 107 404 235 404 c 4
 364 404 429 314 429 200 c 4
228 376 m 4
 162 376 113 306 113 194 c 4
 113 96 134 15 222 15 c 4
 314 15 341 103 341 194 c 4
 341 328 292 376 228 376 c 4
EndSplineSet
AlternateSubs2: "'aalt' Access All Alternates lookup 0 subtable" o.sc
AlternateSubs2: "'aalt' Access All Alternates in Latin lookup 0 subtable" o.sc
Substitution2: "'smcp' Lowercase to Small Capitals in Latin lookup 3 subtable" o.sc
EndChar

StartChar: p
Encoding: 112 112 16
Width: 471
VWidth: 0
Flags: HW
HStem: -211 21G<16.5 224.5> -13 29<197.98 292.568> 363 41<204.195 301.507> 392 20G<88 143.5>
VStem: 77 75<-186.761 12 53.2485 331.913> 362 84<102.097 293.237>
AnchorPoint: "top" 259 500 basechar 0
AnchorPoint: "l;bl" 0 10 basechar 0
AnchorPoint: "l;x" 0 385 basechar 0
AnchorPoint: "l;o" 0 200 basechar 0
AnchorPoint: "l;lo" 0 -200 basechar 0
AnchorPoint: "r;bl" 451 10 basechar 0
AnchorPoint: "r;x" 451 385 basechar 0
AnchorPoint: "r;o" 471 200 basechar 0
LayerCount: 3
Fore
SplineSet
242 363 m 0xec
 193 363 152 319 152 291 c 2
 152 112 l 2
 152 69 189 16 243 16 c 0
 324 16 362 103 362 190 c 0
 362 277 324 363 242 363 c 0xec
154 -149 m 2
 154 -171 161 -182 173 -187 c 0
 194 -196 226 -189 226 -203 c 0
 226 -206 225 -209 224 -211 c 1
 17 -211 l 1
 16 -209 15 -206 15 -203 c 0
 15 -181 77 -213 77 -149 c 2
 77 298 l 2
 77 369 16 330 16 355 c 0
 16 386 34 355 142 412 c 1xdc
 145 412 150 410 151 406 c 1
 150 400 148 388 146 340 c 1
 166 357 209 404 282 404 c 0
 393 404 446 303 446 201 c 0
 446 94 377 -13 246 -13 c 0
 203 -13 154 12 154 12 c 1
 154 -149 l 2
EndSplineSet
Layer: 2
SplineSet
154 -149 m 2xec
 154 -171 161 -182 173 -187 c 0
 194 -196 226 -189 226 -203 c 0
 226 -206 225 -209 224 -211 c 1
 17 -211 l 1
 16 -209 15 -206 15 -203 c 0
 15 -181 77 -213 77 -149 c 2
 77 298 l 2
 77 369 16 330 16 355 c 0
 16 386 35 352 142 412 c 1xdc
 145 412 150 410 151 406 c 1
 150 400 148 388 146 340 c 1
 155 349 209 404 282 404 c 0
 393 404 446 303 446 201 c 0
 446 94 377 -13 246 -13 c 0
 219 -13 180 -4 154 12 c 1
 154 -149 l 2xec
242 363 m 0xec
 193 363 152 319 152 291 c 2
 152 112 l 2
 152 69 189 16 243 16 c 0
 324 16 362 103 362 190 c 0
 362 277 324 363 242 363 c 0xec
EndSplineSet
AlternateSubs2: "'aalt' Access All Alternates lookup 0 subtable" p.sc p.ld
AlternateSubs2: "'aalt' Access All Alternates in Latin lookup 0 subtable" p.sc p.ld
Substitution2: "'smcp' Lowercase to Small Capitals in Latin lookup 3 subtable" p.sc
Substitution2: "'ss01' Style Set 1 in Latin lookup 2 subtable" p.ld
EndChar

StartChar: q
Encoding: 113 113 17
Width: 475
VWidth: 0
Flags: HW
HStem: -211 21G<250.5 458.5> -13 34<186.515 320.945> 380 24<171.72 277.121>
VStem: 25 84<99.4641 285.797> 323 75<-186.761 4 26.4627 352.293>
AnchorPoint: "l;bl" 20 10 basechar 0
AnchorPoint: "l;x" 20 385 basechar 0
AnchorPoint: "l;o" 0 200 basechar 0
AnchorPoint: "r;bl" 455 10 basechar 0
AnchorPoint: "r;x" 455 385 basechar 0
AnchorPoint: "r;o" 455 200 basechar 0
AnchorPoint: "r;lo" 475 -200 basechar 0
LayerCount: 3
Fore
SplineSet
258 21 m 0
 276 21 323 28 323 37 c 2
 323 301 l 2
 323 354 273 380 218 380 c 0
 203 380 190 377 179 372 c 0
 138 354 109 305 109 209 c 0
 109 96 157 21 258 21 c 0
321 4 m 1
 321 4 246 -13 204 -13 c 0
 86 -13 25 86 25 184 c 0
 25 265 59 329 117 368 c 0
 147 388 186 404 231 404 c 0
 291 404 329 381 361 381 c 0
 370 381 375 388 385 398 c 0
 387 401 389 404 394 404 c 0
 402 404 400 397 400 390 c 0
 398 343 398 298 398 179 c 2
 398 -149 l 2
 398 -213 460 -181 460 -203 c 0
 460 -206 459 -209 458 -211 c 1
 251 -211 l 1
 250 -209 249 -206 249 -203 c 0
 249 -189 281 -196 302 -187 c 0
 314 -182 321 -171 321 -149 c 2
 321 4 l 1
EndSplineSet
Layer: 2
SplineSet
321 -149 m 6
 321 12 l 5
 321 12 267 -14 216 -14 c 4
 87 -14 25 87 25 189 c 4
 25 304 91 404 231 404 c 4
 280 404 324 388 346 379 c 4
 364 371 361 373 369 383 c 6
 385 403 l 6
 387 406 389 409 394 409 c 4
 402 409 400 402 400 395 c 4
 398 348 398 298 398 179 c 6
 398 -149 l 6
 398 -213 460 -181 460 -203 c 4
 460 -206 459 -209 458 -211 c 5
 251 -211 l 5
 250 -209 249 -206 249 -203 c 4
 249 -189 281 -196 302 -187 c 4
 314 -182 321 -171 321 -149 c 6
323 299 m 6
 323 348 272 379 216 379 c 4
 161 379 109 339 109 214 c 4
 109 57 182 21 249 21 c 4
 282 21 323 34 323 53 c 6
 323 299 l 6
EndSplineSet
AlternateSubs2: "'aalt' Access All Alternates lookup 0 subtable" q.sc q.ld
AlternateSubs2: "'aalt' Access All Alternates in Latin lookup 0 subtable" q.sc q.ld
Substitution2: "'smcp' Lowercase to Small Capitals in Latin lookup 3 subtable" q.sc
Substitution2: "'ss01' Style Set 1 in Latin lookup 2 subtable" q.ld
EndChar

StartChar: r
Encoding: 114 114 18
Width: 339
VWidth: 0
Flags: HW
HStem: 0 21G<16.5 214.5> 345 59<207.639 279.5> 392 20G<93.5 148.5>
VStem: 77 77<22.8749 341.22>
AnchorPoint: "cedilla" 116 -80 basechar 0
AnchorPoint: "top" 180 500 basechar 0
AnchorPoint: "l;bl" 0 10 basechar 0
AnchorPoint: "l;x" 0 385 basechar 0
AnchorPoint: "l;o" 0 200 basechar 0
AnchorPoint: "r;bl" 309 10 basechar 0
AnchorPoint: "r;x" 339 385 basechar 0
AnchorPoint: "r;o" 319 200 basechar 0
LayerCount: 3
Back
SplineSet
147 412 m 5xb0
 150 412 155 410 156 406 c 5
 155 400 150 371 148 323 c 5
 173 355 220 404 260 404 c 4
 299 404 319 378 319 352 c 4
 319 328 304 310 279 310 c 4
 245 310 240 345 210 345 c 4xd0
 183 345 154 302 154 276 c 6
 154 62 l 6
 154 0 216 30 216 8 c 4
 216 5 215 2 214 0 c 5
 17 0 l 5
 16 2 15 5 15 8 c 4
 15 30 77 -2 77 62 c 6
 77 298 l 6
 77 369 16 330 16 355 c 4
 16 386 40 355 147 412 c 5xb0
EndSplineSet
Fore
SplineSet
147 412 m 1xb0
 150 412 155 410 156 406 c 1
 155 400 150 371 148 323 c 1
 173 355 220 404 260 404 c 0
 299 404 319 378 319 352 c 0
 319 328 304 310 279 310 c 0
 263 310 254 318 245 326 c 0
 235 335 226 345 210 345 c 0xd0
 183 345 154 302 154 276 c 2
 154 62 l 2
 154 0 216 30 216 8 c 0
 216 5 215 2 214 0 c 1
 17 0 l 5
 16 2 15 5 15 8 c 4
 15 30 77 -2 77 62 c 6
 77 298 l 2
 77 369 16 330 16 355 c 0
 16 386 40 355 147 412 c 1xb0
EndSplineSet
Layer: 2
SplineSet
147 412 m 5xb0
 150 412 155 410 156 406 c 5
 155 400 150 371 148 323 c 5
 148 323 162 341 169 349 c 4
 196 380 235 404 258 404 c 4
 297 404 314 378 314 352 c 4
 314 328 299 304 274 304 c 4
 237 304 246 344 212 344 c 4xd0
 198 344 188 337 177 326 c 4
 165 313 154 299 154 276 c 6
 154 62 l 6
 154 0 216 30 216 8 c 4
 216 5 215 2 214 0 c 5
 17 0 l 5
 16 2 15 5 15 8 c 4
 15 30 77 -2 77 62 c 6
 77 298 l 6
 77 369 16 330 16 355 c 4
 16 386 40 355 147 412 c 5xb0
147 412 m 1xb0
 150 412 155 410 156 406 c 1
 155 400 150 371 148 323 c 1
 157 332 162 341 169 349 c 0
 196 380 235 404 258 404 c 0
 297 404 314 378 314 352 c 0
 314 328 299 304 274 304 c 0
 237 304 246 344 212 344 c 0xd0
 183 344 154 314 154 271 c 2
 154 62 l 2
 154 0 216 30 216 8 c 0
 216 5 215 2 214 0 c 1
 17 0 l 1
 16 2 15 5 15 8 c 0
 15 30 77 -2 77 62 c 2
 77 298 l 2
 77 369 16 330 16 355 c 0
 16 386 40 352 147 412 c 1xb0
EndSplineSet
AlternateSubs2: "'aalt' Access All Alternates lookup 0 subtable" r.sc
AlternateSubs2: "'aalt' Access All Alternates in Latin lookup 0 subtable" r.sc
Substitution2: "'smcp' Lowercase to Small Capitals in Latin lookup 3 subtable" r.sc
EndChar

StartChar: s
Encoding: 115 115 19
Width: 327
VWidth: 0
Flags: HW
HStem: -13 27<126.156 210.276> -3 143<43.0469 81.2495> 381 23<125.87 200.669>
VStem: 31 28<97.2278 139.822> 37 68<280.482 361.456> 233 59<35.3088 128.332> 256 23<283.006 315.562>
AnchorPoint: "cedilla" 157 -80 basechar 0
AnchorPoint: "top" 164 500 basechar 0
AnchorPoint: "l;bl" 0 10 basechar 0
AnchorPoint: "l;x" 10 385 basechar 0
AnchorPoint: "l;o" 10 200 basechar 0
AnchorPoint: "r;bl" 327 10 basechar 0
AnchorPoint: "r;x" 327 385 basechar 0
AnchorPoint: "r;o" 327 200 basechar 0
LayerCount: 3
Fore
SplineSet
157 -13 m 0xac
 116 -13 100 -3 82 -3 c 0
 75 -3 70 -4 57 -8 c 0
 53 -9 50 -11 46 -8 c 0
 45 -7 44 -6 43 -4 c 0
 42 27 42 65 32 123 c 0
 32 125 31 130 31 132 c 0
 31 134 36 140 48 140 c 0x74
 54 140 56.9609375 132.984375 59 128 c 0
 77 84 105 14 171 14 c 0
 221 14 233 59 233 82 c 0xb4
 233 115 209.958007812 134.934570312 179 155 c 0
 135.94140625 182.909179688 142.053710938 174.075195312 93 209 c 0
 62.0341796875 231.046875 37 259 37 303 c 0
 37 350 77 404 164 404 c 0
 217 404 220 392 239 392 c 0
 245 392 252 394 262 397 c 0
 266 398 273 398 273 392 c 0
 274 351 274 336 278 305 c 0
 279 299 279 296 279 291 c 0
 279 285 276 283 267 283 c 0
 260 283 259 290 256 295 c 0xaa
 238 329 217 381 160 381 c 0
 125 381 105 355 105 325 c 0
 105 237 292 244 292 102 c 0
 292 43 249 -13 157 -13 c 0xac
EndSplineSet
Layer: 2
SplineSet
157 -13 m 4xd8
 106 -13 100 -1 82 -1 c 4
 74 -1 66 -5 49 -10 c 5
 45 -9 42 -7 41 -4 c 4
 40 29 42 69 30 133 c 5
 33 137 45 143 54 139 c 5xe8
 72 97 99 14 171 14 c 4
 221 14 233 59 233 82 c 4
 233 115 210 135 179 155 c 4
 136 183 142 174 93 209 c 4
 62 231 37 259 37 303 c 4
 37 350 77 404 164 404 c 4
 217 404 227 390 243 390 c 4
 249 390 255 394 265 397 c 4
 269 398 274 395 274 392 c 4
 274 332 275 328 280 288 c 5
 275 283 267 282 262 284 c 5
 242 317 223 381 160 381 c 4
 125 381 105 355 105 325 c 4
 105 237 292 244 292 102 c 4
 292 43 249 -13 157 -13 c 4xd8
EndSplineSet
AlternateSubs2: "'aalt' Access All Alternates lookup 0 subtable" s.sc
AlternateSubs2: "'aalt' Access All Alternates in Latin lookup 0 subtable" s.sc
Substitution2: "'smcp' Lowercase to Small Capitals in Latin lookup 3 subtable" s.sc
EndChar

StartChar: t
Encoding: 116 116 20
Width: 303
VWidth: 0
Flags: HW
HStem: -11 44<167.562 253.996> 349 44<149 281>
VStem: 72 77<49.9676 344>
AnchorPoint: "top" 149 500 basechar 0
AnchorPoint: "commaright" 234 540 basechar 0
AnchorPoint: "cedilla" 173 -80 basechar 0
AnchorPoint: "l;bl" 0 10 basechar 0
AnchorPoint: "l;x" 0 385 basechar 0
AnchorPoint: "l;o" 0 200 basechar 0
AnchorPoint: "r;bl" 303 10 basechar 0
AnchorPoint: "r;x" 303 385 basechar 0
AnchorPoint: "r;o" 283 200 basechar 0
LayerCount: 3
Fore
SplineSet
281 377 m 2
 281 369 l 2
 281 352 271 349 255 349 c 2
 149 349 l 1
 149 193 l 2
 149 78 154 33 215 33 c 0
 235 33 250 39 266 45 c 0
 269 46 272 47 273 47 c 0
 277 47 281 43 281 33 c 0
 281 30 276 26 271 22 c 0
 247 4 213 -11 177 -11 c 0
 76 -11 72 61 72 197 c 2
 72 344 l 1
 29 345 25 343 25 353 c 0
 25 360 25.3681640625 357.634765625 65 398 c 2
 119 453 l 2
 126 460 131 466 138 466 c 0
 147 466 149 460 149 450 c 2
 149 393 l 1
 254 393 l 2
 280 393 281 393 281 377 c 2
EndSplineSet
Layer: 2
SplineSet
281 377 m 6
 281 369 l 6
 281 352 271 349 255 349 c 6
 149 349 l 5
 149 192 l 6
 149 77 156 32 215 32 c 4
 234 32 252 37 268 42 c 4
 272 43 278 46 280 46 c 4
 284 46 288 42 288 32 c 4
 288 28 277 22 270 18 c 4
 245 4 210 -12 173 -12 c 4
 82 -12 72 52 72 196 c 6
 72 344 l 5
 29 345 25 343 25 353 c 4
 25 360 25 358 65 398 c 6
 119 453 l 6
 126 460 131 466 138 466 c 4
 147 466 149 460 149 450 c 6
 149 393 l 5
 254 393 l 6
 280 393 281 393 281 377 c 6
EndSplineSet
AlternateSubs2: "'aalt' Access All Alternates lookup 0 subtable" t.sc
AlternateSubs2: "'aalt' Access All Alternates in Latin lookup 0 subtable" t.sc
Substitution2: "'smcp' Lowercase to Small Capitals in Latin lookup 3 subtable" t.sc
EndChar

StartChar: u
Encoding: 117 117 21
Width: 485
VWidth: 0
Flags: HW
HStem: -13 47<185.079 286.33> 372 20G<120 148 374.5 403>
VStem: 76 77<69.3069 354.28> 331 77<54.4961 354.28>
AnchorPoint: "top" 231 500 basechar 0
AnchorPoint: "l;bl" 20 10 basechar 0
AnchorPoint: "l;x" 0 385 basechar 0
AnchorPoint: "l;o" 10 200 basechar 0
AnchorPoint: "r;bl" 485 10 basechar 0
AnchorPoint: "r;x" 475 385 basechar 0
AnchorPoint: "r;o" 475 200 basechar 0
LayerCount: 3
Fore
SplineSet
408 331 m 2
 408 92 l 2
 408 9 469 60 469 28 c 0
 469 4 438.110351562 19.6328125 346 -8 c 0
 336 -11 337 -7 337 2 c 2
 337 49 l 1
 337 49 296 14 285 8 c 0
 264 -4 239 -13 209 -13 c 0
 87 -13 76 86 76 177 c 2
 76 311 l 2
 76 382 15 343 15 369 c 0
 15 383 20 385 34 385 c 0
 102 387 94 386 146 392 c 1
 147 392 l 2
 149 392 153 391 155 386 c 0
 155 384 153 335 153 331 c 2
 153 195 l 2
 153 100 164 34 241 34 c 0
 284 34 331 58 331 83 c 2
 331 311 l 2
 331 382 270 343 270 369 c 0
 270 383 275 385 289 385 c 0
 357 387 348 386 401 392 c 1
 402 392 l 2
 404 392 408 391 410 386 c 0
 410 384 408 335 408 331 c 2
EndSplineSet
Layer: 2
SplineSet
408 331 m 6
 408 92 l 6
 408 9 469 60 469 28 c 4
 469 4 438 24 346 -8 c 5
 337 -8 l 5
 337 49 l 5
 337 49 296 14 285 8 c 4
 264 -4 239 -13 209 -13 c 4
 87 -13 76 86 76 177 c 6
 76 311 l 6
 76 382 15 343 15 369 c 4
 15 383 20 385 34 385 c 4
 102 387 93 383 146 392 c 5
 147 392 l 6
 149 392 153 391 155 386 c 4
 155 384 153 335 153 331 c 6
 153 195 l 6
 153 100 164 34 241 34 c 4
 284 34 331 58 331 83 c 6
 331 311 l 6
 331 382 270 343 270 369 c 4
 270 383 275 385 289 385 c 4
 357 387 348 383 401 392 c 5
 402 392 l 6
 404 392 408 391 410 386 c 4
 410 384 408 335 408 331 c 6
EndSplineSet
AlternateSubs2: "'aalt' Access All Alternates lookup 0 subtable" u.sc
AlternateSubs2: "'aalt' Access All Alternates in Latin lookup 0 subtable" u.sc
Substitution2: "'smcp' Lowercase to Small Capitals in Latin lookup 3 subtable" u.sc
EndChar

StartChar: v
Encoding: 118 118 22
Width: 458
VWidth: 0
Flags: HW
HStem: -13 21G<211.5 227.5> 373 20G<16.5 213.5 272.5 441.5>
AnchorPoint: "l;bl" 70 10 basechar 0
AnchorPoint: "l;x" 0 385 basechar 0
AnchorPoint: "l;o" 10 200 basechar 0
AnchorPoint: "r;bl" 368 10 basechar 0
AnchorPoint: "r;x" 458 385 basechar 0
AnchorPoint: "r;o" 428 200 basechar 0
LayerCount: 3
Fore
SplineSet
15 385 m 0
 15 388 16 391 17 393 c 1
 213 393 l 1
 214 391 215 388 215 385 c 0
 215 371 197 377 175 371 c 0
 166 368 158 364 158 356 c 0
 158 332 218 165 247 94 c 1
 266 134 339 296 339 346 c 0
 339 359 334 367 324 370 c 0
 302 377 271 370 271 385 c 0
 271 388 272 391 273 393 c 1
 441 393 l 1
 442 391 443 388 443 385 c 0
 443 369 423.032226562 380.94921875 403 368 c 0
 389.022460938 358.96484375 380 341 369 315 c 2
 369 315 273 86 265 68 c 0
 244 22 235 -13 220 -13 c 2
 218 -13 l 2
 205 -13 208.180664062 -11.9248046875 175 68 c 0
 114.331054688 214.137695312 73 334 64 350 c 0
 41 388 15 363 15 385 c 0
EndSplineSet
AlternateSubs2: "'aalt' Access All Alternates lookup 0 subtable" v.sc
AlternateSubs2: "'aalt' Access All Alternates in Latin lookup 0 subtable" v.sc
Substitution2: "'smcp' Lowercase to Small Capitals in Latin lookup 3 subtable" v.sc
EndChar

StartChar: w
Encoding: 119 119 23
Width: 707
VWidth: 0
Flags: HW
HStem: -13 21G<227.5 244 447 463.5> 373 20G<16.5 215.5 266.5 456.5 520.5 690.5>
DStem2: 261 86 265 27 0.443514 0.896268<0 165.347> 486 93 485 27 0.412534 0.910942<0 271.809>
AnchorPoint: "r;o" 677 200 basechar 0
AnchorPoint: "r;x" 707 385 basechar 0
AnchorPoint: "r;bl" 617 10 basechar 0
AnchorPoint: "l;o" 10 200 basechar 0
AnchorPoint: "l;x" 0 385 basechar 0
AnchorPoint: "l;bl" 70 10 basechar 0
AnchorPoint: "top" 355 500 basechar 0
LayerCount: 3
Fore
SplineSet
458 385 m 0
 458 365 403 386 403 353 c 0
 403 324 455 172 486 93 c 1
 515 158 545 221 565 270 c 0
 579 303 590 330 590 345 c 0
 590 359 578 368 572 370 c 0
 550 377 519 370 519 385 c 0
 519 388 520 391 521 393 c 1
 690 393 l 1
 691 391 692 388 692 385 c 0
 692 369 670 381 650 368 c 0
 635 358 617 318 607 295 c 0
 567.890625 205.047851562 526 112 485 27 c 0
 467 -10 468 -13 459 -13 c 2
 452 -13 l 2
 442 -13 442 -11 428 27 c 0
 402 98 386 147 361 221 c 1
 265 27 l 2
 247 -9 248 -13 240 -13 c 2
 232 -13 l 2
 223 -13 222 -10 205 27 c 0
 65 350 68 343 64 350 c 0
 41 388 15 363 15 385 c 0
 15 388 16 391 17 393 c 1
 215 393 l 1
 216 391 217 388 217 385 c 0
 217 371 199 377 177 371 c 0
 169 368 162 364 162 354 c 0
 162 329 217 191 261 86 c 1
 292 149 324 200 348 263 c 1
 328 326 l 2
 320 353 315.96875 362.916992188 300 369 c 0
 279 377 265 370 265 385 c 0
 265 388 266 391 267 393 c 1
 456 393 l 1
 457 391 458 388 458 385 c 0
EndSplineSet
Layer: 2
SplineSet
458 385 m 4
 458 365 403 386 403 353 c 4
 403 324 455 172 486 93 c 5
 535 202 591 308 591 345 c 4
 591 359 577 368 571 370 c 4
 549 377 518 370 518 385 c 4
 518 388 519 391 520 393 c 5
 690 393 l 5
 691 391 692 388 692 385 c 4
 692 369 670 381 650 368 c 4
 641 362 627 339 619 320 c 4
 577 223 530 120 485 27 c 4
 467 -10 468 -13 459 -13 c 6
 452 -13 l 6
 442 -13 442 -11 428 27 c 4
 402 98 386 147 361 221 c 5
 265 27 l 6
 247 -9 248 -13 240 -13 c 6
 232 -13 l 6
 223 -13 222 -10 205 27 c 4
 65 350 68 343 64 350 c 4
 41 388 15 363 15 385 c 4
 15 388 16 391 17 393 c 5
 215 393 l 5
 216 391 217 388 217 385 c 4
 217 371 199 377 177 371 c 4
 169 368 162 364 162 354 c 4
 162 329 217 191 261 86 c 5
 292 149 324 200 348 263 c 5
 328 326 l 6
 320 353 316 363 300 369 c 4
 279 377 265 370 265 385 c 4
 265 388 266 391 267 393 c 5
 456 393 l 5
 457 391 458 388 458 385 c 4
EndSplineSet
AlternateSubs2: "'aalt' Access All Alternates lookup 0 subtable" w.sc
AlternateSubs2: "'aalt' Access All Alternates in Latin lookup 0 subtable" w.sc
Substitution2: "'smcp' Lowercase to Small Capitals in Latin lookup 3 subtable" w.sc
EndChar

StartChar: x
Encoding: 120 120 24
Width: 450
VWidth: 0
Flags: HW
HStem: 0 21G<16.5 183.5 231.5 433.5> 373 20G<25.5 219.5 259.5 421.5>
DStem2: 193 311 115 312 0.525969 -0.850504<-45.1097 86.4044 133.764 276.425> 148 129 175 117 0.602453 0.798154<-89.5248 63.2844 138.418 275.557>
AnchorPoint: "l;bl" 0 10 basechar 0
AnchorPoint: "l;x" 0 385 basechar 0
AnchorPoint: "l;o" 20 200 basechar 0
AnchorPoint: "r;bl" 450 10 basechar 0
AnchorPoint: "r;x" 450 385 basechar 0
AnchorPoint: "r;o" 430 200 basechar 0
LayerCount: 3
Fore
SplineSet
122 36 m 0
 122 11 185 26 185 8 c 0
 185 5 184 2 183 0 c 1
 17 0 l 1
 16 2 15 5 15 8 c 0
 15 22 41 15 60 25 c 0
 79 35 99.904296875 64.0703125 148 129 c 2
 168 156 l 1
 193 186 l 1
 172 219 l 1
 115 312 l 2
 105.859375 326.9140625 96 343 88 352 c 0
 69 373 54 372 43 374 c 0
 31 376 24 374 24 385 c 0
 24 388 25 391 26 393 c 1
 219 393 l 1
 220 391 221 388 221 385 c 0
 221 369 198 381 180 364 c 0
 177 361 176 356 176 354 c 0
 176 344 182 330 193 311 c 2
 214 276 l 1
 236 236 l 1
 263 276 l 2
 297 325 308 343 308 354 c 4
 308 361 303 366 296 369 c 4
 277 378 258 371 258 385 c 4
 258 388 259 391 260 393 c 5
 421 393 l 5
 422 391 423 388 423 385 c 4
 423 370 408 380 382 371 c 4
 377 369 357.262695312 360.81640625 332 325 c 6
 253 213 l 1
 334 83 l 2
 338 77 357 46 379 30 c 0
 406 11 435 24 435 8 c 0
 435 5 434 2 433 0 c 1
 232 0 l 1
 231 2 230 5 230 8 c 0
 230 27 277 6 277 37 c 0
 277 56 238.93359375 111.959960938 228 130 c 2
 208 163 l 1
 175 117 l 2
 152 84 122 45 122 36 c 0
EndSplineSet
AlternateSubs2: "'aalt' Access All Alternates lookup 0 subtable" x.sc
AlternateSubs2: "'aalt' Access All Alternates in Latin lookup 0 subtable" x.sc
Substitution2: "'smcp' Lowercase to Small Capitals in Latin lookup 3 subtable" x.sc
EndChar

StartChar: y
Encoding: 121 121 25
Width: 495
VWidth: 0
Flags: HW
HStem: -224 80<72.9659 140.299> 373 20G<16.5 216.5 309.5 478.5>
AnchorPoint: "l;o" 10 200 basechar 0
AnchorPoint: "l;x" 0 385 basechar 0
AnchorPoint: "l;bl" 50 10 basechar 0
AnchorPoint: "r;o" 445 200 basechar 0
AnchorPoint: "r;x" 495 385 basechar 0
AnchorPoint: "r;bl" 375 10 basechar 0
AnchorPoint: "top" 256 500 basechar 0
AnchorPoint: "l;lo" 20 -200 basechar 0
LayerCount: 3
Back
SplineSet
139 -143 m 4
 158 -143 207 -44 207 -6 c 4
 207 15 197 19 106 248 c 4
 73 331 70 341 64 350 c 4
 41 388 15 363 15 385 c 4
 15 388 16 391 17 393 c 5
 216 393 l 5
 217 391 218 388 218 385 c 4
 218 371 200 377 178 371 c 4
 169 368 161 364 161 356 c 4
 161 334 191 236 237 126 c 4
 248 98 252 84 256 84 c 4
 260 84 265 98 279 126 c 4
 343 251 376 327 376 347 c 4
 376 356 373 367 361 370 c 4
 339 377 308 370 308 385 c 4
 308 388 309 391 310 393 c 5
 478 393 l 5
 479 391 480 388 480 385 c 4
 480 369 460 381 440 368 c 4
 432 363 407 324 392 294 c 12
 313 135 235 -35 193 -115 c 4
 142 -214 130 -224 93 -224 c 4
 61 -224 45 -196 45 -175 c 4
 45 -150 63 -126 91 -126 c 4
 121 -126 126 -143 139 -143 c 4
EndSplineSet
Fore
SplineSet
140 -144 m 0
 147 -144 208 -40 208 -7 c 0
 208 14 197.041992188 19.0166015625 106 248 c 0
 73 331 70 341 64 350 c 0
 41 388 15 363 15 385 c 0
 15 388 16 391 17 393 c 1
 216 393 l 1
 217 391 218 388 218 385 c 0
 218 371 200 377 178 371 c 0
 169 368 161 364 161 356 c 0
 161 334 191 236 237 126 c 0
 248 98 252 84 256 84 c 0
 260 84 264.866210938 98.0673828125 279 126 c 0
 342.401367188 251.302734375 376 327 376 347 c 0
 376 356 373 367 361 370 c 0
 339 377 308 370 308 385 c 0
 308 388 309 391 310 393 c 1
 478 393 l 1
 479 391 480 388 480 385 c 0
 480 369 460 381 440 368 c 0
 432 363 407 324 392 294 c 0
 313 135 235 -35 193 -115 c 0
 169 -162 152 -189 139 -204 c 0
 124 -221 110 -224 93 -224 c 0
 61 -224 45 -196 45 -175 c 0
 45 -150 63 -126 91 -126 c 0
 121 -126 127 -144 140 -144 c 0
EndSplineSet
Layer: 2
SplineSet
138 -143 m 0
 160 -143 193 -59 201 -36 c 0
 205 -24 208 -15 208 -7 c 0
 208 14 197 19 106 248 c 0
 73 331 70 341 64 350 c 0
 41 388 15 363 15 385 c 0
 15 388 16 391 17 393 c 1
 216 393 l 1
 217 391 218 388 218 385 c 0
 218 371 200 377 178 371 c 0
 169 368 161 364 161 356 c 0
 161 334 191 236 237 126 c 0
 248 98 252 84 256 84 c 0
 260 84 265 98 279 126 c 0
 343 251 376 327 376 347 c 0
 376 356 373 367 361 370 c 0
 339 377 308 370 308 385 c 0
 308 388 309 391 310 393 c 1
 478 393 l 1
 479 391 480 388 480 385 c 0
 480 369 460 381 440 368 c 0
 432 363 407 324 392 294 c 8
 313 135 233 -35 191 -115 c 0
 140 -214 122 -224 91 -224 c 0
 59 -224 43 -196 43 -175 c 0
 43 -150 61 -126 89 -126 c 0
 119 -126 125 -143 138 -143 c 0
139 -143 m 4
 158 -143 207 -44 207 -6 c 4
 207 15 197 19 106 248 c 4
 73 331 70 341 64 350 c 4
 41 388 15 363 15 385 c 4
 15 388 16 391 17 393 c 5
 216 393 l 5
 217 391 218 388 218 385 c 4
 218 371 200 377 178 371 c 4
 169 368 161 364 161 356 c 4
 161 334 191 236 237 126 c 4
 248 98 252 84 256 84 c 4
 260 84 265 98 279 126 c 4
 343 251 376 327 376 347 c 4
 376 356 373 367 361 370 c 4
 339 377 308 370 308 385 c 4
 308 388 309 391 310 393 c 5
 478 393 l 5
 479 391 480 388 480 385 c 4
 480 369 460 381 440 368 c 4
 432 363 407 324 392 294 c 12
 313 135 235 -35 193 -115 c 4
 142 -214 130 -224 93 -224 c 4
 61 -224 45 -196 45 -175 c 4
 45 -150 63 -126 91 -126 c 4
 121 -126 126 -143 139 -143 c 4
EndSplineSet
AlternateSubs2: "'aalt' Access All Alternates lookup 0 subtable" y.sc y.ld
AlternateSubs2: "'aalt' Access All Alternates in Latin lookup 0 subtable" y.sc y.ld
Substitution2: "'smcp' Lowercase to Small Capitals in Latin lookup 3 subtable" y.sc
Substitution2: "'ss01' Style Set 1 in Latin lookup 2 subtable" y.ld
EndChar

StartChar: z
Encoding: 122 122 26
Width: 421
VWidth: 0
Flags: HW
HStem: 0 30<144.863 320.067> 365 28<110.191 266.09> 392 20G<70.5 101>
DStem2: 38 17 145 36 0.5547 0.83205<75.1619 411.033>
AnchorPoint: "top" 227 500 basechar 0
AnchorPoint: "l;bl" 20 10 basechar 0
AnchorPoint: "l;x" 0 385 basechar 0
AnchorPoint: "l;o" 0 200 basechar 0
AnchorPoint: "r;bl" 421 10 basechar 0
AnchorPoint: "r;x" 421 385 basechar 0
AnchorPoint: "r;o" 421 200 basechar 0
LayerCount: 3
Fore
SplineSet
359 -7 m 0xc0
 342 -7 306 0 293 0 c 2
 51 0 l 2
 38 0 34 1 34 5 c 0
 34 8 36 14 38 17 c 2
 266 359 l 2
 268 362 265 365 262 365 c 2
 177 365 l 2xc0
 109 365 101 348 63 299 c 0
 58 293 54 282 42 288 c 0
 37 290 36 292 36 295 c 0
 36 298 38 304 40 309 c 0
 48 335 57 369 65 407 c 0
 66 410 69 412 72 412 c 1xa0
 101 400 l 2
 114 395 118 393 127 393 c 2
 362 393 l 2
 375 393 379 389 379 385 c 0
 379 381 376 377 374 374 c 2
 145 36 l 2
 142 31 144 30 149 30 c 2
 221 30 l 2
 286 30 311 35 331 53 c 0
 343 64 363 94 377 110 c 0
 385 120 386 123 396 120 c 0
 403 118 405 116 405 113 c 0
 405 110 404 107 402 100 c 0
 398 89 394 77 391 66 c 2
 373 9 l 2
 370 -3 368 -7 359 -7 c 0xc0
EndSplineSet
Layer: 2
SplineSet
370 -2 m 6x68
 369 -6 367 -7 363 -7 c 4x88
 349 -7 307 0 293 0 c 6
 51 0 l 6
 38 0 34 1 34 5 c 4
 34 8 36 14 38 17 c 6
 266 359 l 6
 268 362 265 365 262 365 c 6
 177 365 l 6x68
 104 365 100 345 54 287 c 5
 48 284 37 289 35 294 c 5
 44 320 55 361 65 407 c 4
 66 410 69 412 72 412 c 5x18
 101 400 l 6
 114 395 118 393 127 393 c 6
 362 393 l 6
 375 393 379 389 379 385 c 4
 379 381 376 377 374 374 c 6
 145 36 l 6
 142 31 144 30 149 30 c 6
 221 30 l 6
 286 30 311 35 331 53 c 4
 348 68 381 121 389 121 c 4
 396 121 406 118 406 113 c 4
 406 112 402 101 393 73 c 6
 370 -2 l 6x68
EndSplineSet
AlternateSubs2: "'aalt' Access All Alternates lookup 0 subtable" z.sc
AlternateSubs2: "'aalt' Access All Alternates in Latin lookup 0 subtable" z.sc
Substitution2: "'smcp' Lowercase to Small Capitals in Latin lookup 3 subtable" z.sc
EndChar

StartChar: A
Encoding: 65 65 27
Width: 713
VWidth: 0
Flags: HMW
HStem: 0 21G<32.5 257.5 416.5 681.5> 240 36<224.095 412.999> 627 20G<339.5 353.5>
VStem: 30 115<8 60.5>
DStem2: 115 79 160 114 0.343193 0.939265<-12.609 187.256 227.262 498.877> 408 537 330 512 0.363403 -0.931632<-31.7375 241.115 278.489 486.068>
AnchorPoint: "top" 343 730 basechar 0
AnchorPoint: "l;bl" 0 10 basechar 0
AnchorPoint: "l;x" 80 385 basechar 0
AnchorPoint: "l;hi" 130 610 basechar 0
AnchorPoint: "l;o" 50 200 basechar 0
AnchorPoint: "r;bl" 713 10 basechar 0
AnchorPoint: "r;x" 623 385 basechar 0
AnchorPoint: "r;hi" 593 610 basechar 0
AnchorPoint: "r;o" 653 200 basechar 0
LayerCount: 3
Fore
SplineSet
414 10 m 0
 414 35 494 5 494 48 c 0
 494 65 489 94 437 223 c 0
 431 239 429 240 416 240 c 2
 220 240 l 2
 208 240 206 239 201 226 c 2
 160 114 l 2
 149 85 145 67 145 54 c 0
 145 39 149 33 160 29 c 0
 189 18 259 31 259 10 c 0
 259 6 258 2 257 0 c 1
 33 0 l 1
 32 2 30 6 30 10 c 0
 30 29 67 11 92 38 c 0
 100 46 108 60 115 79 c 0
 194 275 282.083007812 527.967773438 318 622 c 0
 326.018554688 642.993164062 333 647 346 647 c 0
 361 647 368 640 369 638 c 2
 408 537 l 2
 586 78 559 139 589 74 c 0
 596 59 603 40 622 29 c 0
 639 20 683 27 683 10 c 0
 683 6 682 2 681 0 c 1
 417 0 l 1
 416 2 414 6 414 10 c 0
306 512 m 2
 230 304 l 2
 227 295 223 284 224 281 c 0
 226 275 230 276 235 276 c 2
 398 276 l 2
 412 276 413 277 413 280 c 0
 413 283 413 287 411 293 c 2
 330 512 l 2
 323 532 320 536 318 536 c 0
 316 536 313 532 306 512 c 2
EndSplineSet
Layer: 2
SplineSet
414 10 m 4
 414 35 494 5 494 48 c 4
 494 65 489 94 437 223 c 4
 431 239 429 240 416 240 c 6
 220 240 l 6
 208 240 206 239 201 226 c 6
 160 114 l 6
 149 85 145 67 145 54 c 4
 145 44 147 38 151 34 c 4
 169 15 259 33 259 10 c 4
 259 6 258 2 257 0 c 5
 33 0 l 5
 32 2 30 6 30 10 c 4
 30 29 67 11 92 38 c 4
 100 46 108 60 115 79 c 4
 194 275 282 528 318 622 c 4
 326 643 333 647 346 647 c 4
 361 647 368 640 369 638 c 6
 408 537 l 6
 586 78 559 139 589 74 c 4
 596 59 603 40 622 29 c 4
 639 20 683 27 683 10 c 4
 683 6 682 2 681 0 c 5
 417 0 l 5
 416 2 414 6 414 10 c 4
EndSplineSet
AlternateSubs2: "'aalt' Access All Alternates lookup 0 subtable" A.c2
AlternateSubs2: "'aalt' Access All Alternates in Latin lookup 0 subtable" A.c2
Substitution2: "'c2sc' Capitals to Small Capitals in Latin lookup 4 subtable" A.c2
EndChar

StartChar: B
Encoding: 66 66 28
Width: 572
VWidth: 0
Flags: HW
HStem: 0 30<215.481 359.81> 327 25<210 316.143> 611 25<214.814 335.783>
VStem: 117 93<31.8904 327 352 605.918> 405 91<420.261 560.922> 432 100<86.5578 254.434>
AnchorPoint: "top" 262 730 basechar 0
AnchorPoint: "l;bl" 0 10 basechar 0
AnchorPoint: "l;x" 20 385 basechar 0
AnchorPoint: "l;hi" 0 610 basechar 0
AnchorPoint: "l;o" 20 200 basechar 0
AnchorPoint: "r;bl" 562 10 basechar 0
AnchorPoint: "r;x" 562 385 basechar 0
AnchorPoint: "r;hi" 562 610 basechar 0
AnchorPoint: "r;o" 572 200 basechar 0
LayerCount: 3
Fore
SplineSet
432 170 m 0xf4
 432 277 354 327 270 327 c 2
 210 327 l 1
 210 85 l 2
 210 40 219 30 246 30 c 2
 280 30 l 2
 402 30 432 98 432 170 c 0xf4
117 561 m 2
 117 639 30 599 30 626 c 0
 30 630 32 634 33 636 c 1
 265 636 l 2
 371 636 496 633 496 489 c 0xf8
 496 370 339 343 339 343 c 5
 339 343 532 338 532 173 c 0
 532 12 384 0 242 0 c 2
 33 0 l 1
 32 2 30 6 30 10 c 0
 30 37 117 -3 117 75 c 2
 117 561 l 2
246 352 m 2
 331 352 405 395 405 487 c 0
 405 567 349 611 278 611 c 2
 258 611 l 2
 217 611 210 610 210 560 c 2
 210 352 l 1
 246 352 l 2
EndSplineSet
AlternateSubs2: "'aalt' Access All Alternates lookup 0 subtable" B.c2
AlternateSubs2: "'aalt' Access All Alternates in Latin lookup 0 subtable" B.c2
Substitution2: "'c2sc' Capitals to Small Capitals in Latin lookup 4 subtable" B.c2
EndChar

StartChar: C
Encoding: 67 67 29
Width: 684
VWidth: 0
Flags: HW
HStem: -21 32<319.776 484.356> 627 27<320.053 473.093>
VStem: 40 105<193.646 425.628> 614 20<465.093 498.453>
AnchorPoint: "l;o" 0 200 basechar 0
AnchorPoint: "l;hi" 50 610 basechar 0
AnchorPoint: "l;x" 0 385 basechar 0
AnchorPoint: "l;bl" 50 10 basechar 0
AnchorPoint: "cedilla" 390 -80 basechar 0
AnchorPoint: "top" 388 730 basechar 0
AnchorPoint: "r;bl" 684 10 basechar 0
AnchorPoint: "r;x" 684 385 basechar 0
AnchorPoint: "r;hi" 684 610 basechar 0
AnchorPoint: "r;o" 684 200 basechar 0
LayerCount: 3
Fore
SplineSet
590 601 m 0
 595 601 600 623 612 623 c 0
 623 623 623 618 624 603 c 0
 628.33203125 538.021484375 634 489 634 477 c 0
 634 468 634 467 625 465 c 0
 616 463 615 470 614 473 c 0
 596 540 512 627 399 627 c 0
 232 627 145 486 145 313 c 0
 145 107 276 11 402 11 c 0
 542 11 598 124 616 158 c 0
 620 165 622 167 626 167 c 0
 630 167 632 165 632 161 c 2
 624 56 l 2
 622 25 617 29 596 25 c 0
 583 23 568 20 560 16 c 0
 496 -11 442 -21 390 -21 c 0
 164 -21 40 142 40 308 c 0
 40 471 158 654 393 654 c 0
 500 654 588 601 590 601 c 0
EndSplineSet
AlternateSubs2: "'aalt' Access All Alternates lookup 0 subtable" C.c2
AlternateSubs2: "'aalt' Access All Alternates in Latin lookup 0 subtable" C.c2
Substitution2: "'c2sc' Capitals to Small Capitals in Latin lookup 4 subtable" C.c2
EndChar

StartChar: D
Encoding: 68 68 30
Width: 725
VWidth: 0
Flags: HW
HStem: 0 31<215.731 389.154> 608 28<214.535 398.197>
VStem: 117 93<34.3536 604.11> 576 109<200.054 434.641>
AnchorPoint: "top" 342 730 basechar 0
AnchorPoint: "l;bl" 0 10 basechar 0
AnchorPoint: "l;x" 20 385 basechar 0
AnchorPoint: "l;hi" 0 610 basechar 0
AnchorPoint: "l;o" 20 200 basechar 0
AnchorPoint: "r;bl" 685 10 basechar 0
AnchorPoint: "r;x" 725 385 basechar 0
AnchorPoint: "r;hi" 685 610 basechar 0
AnchorPoint: "r;o" 725 200 basechar 0
LayerCount: 3
Fore
SplineSet
210 563 m 2
 210 85 l 2
 210 32 220 31 280 31 c 0
 523 31 576 192 576 312 c 0
 576 460 500 533 467 559 c 0
 414 602 346 608 286 608 c 0
 212 608 210 603 210 563 c 2
33 0 m 1
 32 2 30 6 30 10 c 0
 30 37 117 -3 117 75 c 2
 117 561 l 2
 117 639 30 599 30 626 c 0
 30 630 32 634 33 636 c 1
 273 636 l 2
 387 636 450 629 520 600 c 0
 631 553 685 441 685 322 c 0
 685 182 607.943359375 44.29296875 426 9 c 0
 379.985351562 0.07421875 312 0 266 0 c 2
 33 0 l 1
EndSplineSet
AlternateSubs2: "'aalt' Access All Alternates lookup 0 subtable" D.c2
AlternateSubs2: "'aalt' Access All Alternates in Latin lookup 0 subtable" D.c2
Substitution2: "'c2sc' Capitals to Small Capitals in Latin lookup 4 subtable" D.c2
EndChar

StartChar: E
Encoding: 69 69 31
Width: 586
VWidth: 2
Flags: HW
HStem: 2 27<211.075 465.666> 310 21<210.029 337.181> 611 27<211.617 424.364>
VStem: 117 93<31.8065 309.755 331.021 607.982> 378 21<197.003 256.875 386.055 457.997> 528 13<132.056 138.763>
AnchorPoint: "top" 302 732 basechar 0
AnchorPoint: "l;bl" 0 12 basechar 0
AnchorPoint: "l;x" 20 387 basechar 0
AnchorPoint: "l;hi" 0 612 basechar 0
AnchorPoint: "l;o" 20 202 basechar 0
AnchorPoint: "r;bl" 586 12 basechar 0
AnchorPoint: "r;x" 566 387 basechar 0
AnchorPoint: "r;hi" 566 612 basechar 0
AnchorPoint: "r;o" 586 202 basechar 0
LayerCount: 3
Fore
SplineSet
394 323 m 0
 394 241 399 219 399 206 c 0
 399 198 397 197 389 197 c 0
 381 197 379 198 378 206 c 0
 372 242 369 310 297 310 c 2
 246 310 l 2
 229 310 210 310 210 299 c 2
 210 51 l 2
 210 41 212 29 243 29 c 2
 430 29 l 2
 467 29 471 43 528 141 c 0
 530 145 533 149 539 147 c 0
 545 145 546 145 546 139 c 0
 546 134 544 125 541 112 c 0
 526 43 522 2 509 2 c 2
 33 2 l 1
 32 4 30 8 30 12 c 0
 30 39 117 -1 117 77 c 2
 117 563 l 2
 117 641 30 601 30 628 c 0
 30 632 32 636 33 638 c 1
 380 638 l 2
 428 638 469 642 479 642 c 0
 495 642 488 631 499 564 c 0
 503 537 508 511 508 498 c 0
 508 491 504 490 501 489 c 0
 493 486 488 496 487 497 c 0
 472 519 430 611 404 611 c 2
 229 611 l 2
 217 611 210 601 210 587 c 2
 210 340 l 2
 210 332 220 331 235 331 c 2
 297 331 l 2
 375 331 372 413 378 449 c 0
 379 457 381 458 389 458 c 0
 397 458 399 457 399 449 c 0
 399 436 394 405 394 323 c 0
EndSplineSet
AlternateSubs2: "'aalt' Access All Alternates lookup 0 subtable" E.c2
AlternateSubs2: "'aalt' Access All Alternates in Latin lookup 0 subtable" E.c2
Substitution2: "'c2sc' Capitals to Small Capitals in Latin lookup 4 subtable" E.c2
EndChar

StartChar: F
Encoding: 70 70 32
Width: 574
VWidth: 0
Flags: HW
HStem: 0 21G<32.5 305.5> 300 21<210.029 334.668> 609 27<211.526 432.826>
VStem: 117 93<32.5851 299.755 321.021 606.021> 379 21<185.003 243.359 370.786 442.997>
AnchorPoint: "top" 302 730 basechar 0
AnchorPoint: "l;bl" 0 10 basechar 0
AnchorPoint: "l;x" 20 385 basechar 0
AnchorPoint: "l;hi" 0 610 basechar 0
AnchorPoint: "l;o" 20 200 basechar 0
AnchorPoint: "r;bl" 414 10 basechar 0
AnchorPoint: "r;x" 554 385 basechar 0
AnchorPoint: "r;hi" 574 610 basechar 0
AnchorPoint: "r;o" 494 200 basechar 0
LayerCount: 3
Fore
SplineSet
298 300 m 2
 246 300 l 2
 229 300 210 300 210 289 c 2
 210 75 l 2
 210 -1 307 36 307 10 c 0
 307 6 306 2 305 0 c 1
 33 0 l 1
 32 2 30 6 30 10 c 0
 30 37 117 -3 117 75 c 2
 117 561 l 2
 117 639 30 599 30 626 c 0
 30 630 32 634 33 636 c 1
 382 636 l 2
 430 636 480 641 490 641 c 0
 501 641 505 634 508 618 c 0
 512 598 534 516 534 512 c 0
 534 508 526 500 514 515 c 0
 496 537 433 609 404 609 c 2
 227 609 l 2
 215 609 210 598 210 584 c 2
 210 330 l 2
 210 322 220 321 235 321 c 2
 298 321 l 2
 378 321 373 398 379 434 c 0
 380 442 382 443 390 443 c 0
 398 443 400 442 400 434 c 0
 400 421 395 395 395 313 c 0
 395 231 400 207 400 194 c 0
 400 186 398 185 390 185 c 0
 382 185 380 186 379 194 c 0
 373 230 366 300 298 300 c 2
EndSplineSet
AlternateSubs2: "'aalt' Access All Alternates lookup 0 subtable" F.c2
AlternateSubs2: "'aalt' Access All Alternates in Latin lookup 0 subtable" F.c2
Substitution2: "'c2sc' Capitals to Small Capitals in Latin lookup 4 subtable" F.c2
EndChar

StartChar: G
Encoding: 71 71 33
Width: 773
VWidth: 0
Flags: HW
HStem: -22 33<325.016 510.916> 33 27<667.328 706.993> 626 28<321.741 503.719>
VStem: 40 103<191.692 432.087> 572 83<64.0162 239.476> 648 21<449.093 480.581>
AnchorPoint: "l;bl" 50 10 basechar 0
AnchorPoint: "l;x" 0 385 basechar 0
AnchorPoint: "l;hi" 50 610 basechar 0
AnchorPoint: "l;o" 0 200 basechar 0
AnchorPoint: "cedilla" 417 -80 basechar 0
AnchorPoint: "top" 403 730 basechar 0
AnchorPoint: "r;bl" 763 10 basechar 0
AnchorPoint: "r;x" 773 385 basechar 0
AnchorPoint: "r;hi" 753 610 basechar 0
AnchorPoint: "r;o" 773 200 basechar 0
LayerCount: 3
Fore
SplineSet
143 325 m 0xf4
 143 129 253 11 417 11 c 0
 476 11 534 32 554 49 c 0
 568 62 572 80 572 99 c 2
 572 185 l 2
 572 222 557.995117188 238.989257812 536 248 c 0
 496.9921875 263.98046875 434 251 434 270 c 0
 434 274 435 278 436 280 c 1
 740 280 l 1
 741 278 743 274 743 270 c 0
 743 243 655 283 655 205 c 2
 655 124 l 2xf8
 655 62 677 63 690 60 c 0
 705 56 707 57 707 47 c 0
 707 37 705 39 674 33 c 0
 530 7 493 -22 400 -22 c 0
 161 -22 40 129 40 312 c 0
 40 484 162 654 403 654 c 0
 536 654 608 597 610 597 c 0
 615 597 642 608 651 608 c 0
 657 608 663 604 663 589 c 0
 663 581 662 581 662 547 c 0
 662 521 669 467 669 458 c 0
 669 452 669 451 661 449 c 0
 652 447 649 454 648 457 c 0
 614 541 562 626 412 626 c 0
 205 626 143 456 143 325 c 0xf4
EndSplineSet
AlternateSubs2: "'aalt' Access All Alternates lookup 0 subtable" G.c2
AlternateSubs2: "'aalt' Access All Alternates in Latin lookup 0 subtable" G.c2
Substitution2: "'c2sc' Capitals to Small Capitals in Latin lookup 4 subtable" G.c2
EndChar

StartChar: H
Encoding: 72 72 34
Width: 793
VWidth: 0
Flags: HW
HStem: 0 21G<32.5 305.5 488.5 761.5> 308 31<210 583> 616 20G<31.5 304.5 487.5 760.5>
VStem: 117 93<32.5851 308 339 604.11> 583 93<31.8904 308 339 604.11>
AnchorPoint: "top" 397 730 basechar 0
AnchorPoint: "l;bl" 0 10 basechar 0
AnchorPoint: "l;x" 20 385 basechar 0
AnchorPoint: "l;hi" 0 610 basechar 0
AnchorPoint: "l;o" 20 200 basechar 0
AnchorPoint: "r;bl" 793 10 basechar 0
AnchorPoint: "r;x" 773 385 basechar 0
AnchorPoint: "r;hi" 793 610 basechar 0
AnchorPoint: "r;o" 773 200 basechar 0
LayerCount: 3
Fore
SplineSet
486 626 m 0
 486 630 487 634 488 636 c 1
 760 636 l 1
 761 634 763 630 763 626 c 0
 763 599 676 639 676 561 c 2
 676 75 l 2
 676 -1 763 36 763 10 c 0
 763 6 762 2 761 0 c 1
 489 0 l 1
 488 2 486 6 486 10 c 0
 486 37 583 -3 583 75 c 2
 583 308 l 1
 210 308 l 1
 210 75 l 2
 210 -1 307 36 307 10 c 0
 307 6 306 2 305 0 c 1
 33 0 l 1
 32 2 30 6 30 10 c 0
 30 37 117 -3 117 75 c 2
 117 561 l 2
 117 637 30 600 30 626 c 0
 30 630 31 634 32 636 c 1
 304 636 l 1
 305 634 307 630 307 626 c 0
 307 599 210 639 210 561 c 2
 210 339 l 1
 583 339 l 1
 583 561 l 2
 583 639 486 600 486 626 c 0
EndSplineSet
AlternateSubs2: "'aalt' Access All Alternates lookup 0 subtable" H.c2
AlternateSubs2: "'aalt' Access All Alternates in Latin lookup 0 subtable" H.c2
Substitution2: "'c2sc' Capitals to Small Capitals in Latin lookup 4 subtable" H.c2
EndChar

StartChar: I
Encoding: 73 73 35
Width: 327
VWidth: 0
Flags: HW
HStem: 0 21G<32.5 295.5> 616 20G<31.5 294.5>
VStem: 117 93<30.7996 605.2>
AnchorPoint: "top" 165 730 basechar 0
AnchorPoint: "l;bl" 0 10 basechar 0
AnchorPoint: "l;x" 20 385 basechar 0
AnchorPoint: "l;hi" 0 610 basechar 0
AnchorPoint: "l;o" 20 200 basechar 0
AnchorPoint: "r;bl" 327 10 basechar 0
AnchorPoint: "r;x" 307 385 basechar 0
AnchorPoint: "r;hi" 327 610 basechar 0
AnchorPoint: "r;o" 307 200 basechar 0
LayerCount: 3
Fore
SplineSet
210 561 m 2
 210 75 l 2
 210 -1 297 36 297 10 c 0
 297 6 296 2 295 0 c 1
 33 0 l 5
 32 2 30 6 30 10 c 4
 30 37 117 -3 117 75 c 6
 117 561 l 2
 117 637 30 600 30 626 c 0
 30 630 31 634 32 636 c 1
 294 636 l 1
 295 634 297 630 297 626 c 0
 297 599 210 639 210 561 c 2
EndSplineSet
AlternateSubs2: "'aalt' Access All Alternates lookup 0 subtable" I.c2
AlternateSubs2: "'aalt' Access All Alternates in Latin lookup 0 subtable" I.c2
Substitution2: "'c2sc' Capitals to Small Capitals in Latin lookup 4 subtable" I.c2
EndChar

StartChar: J
Encoding: 74 74 36
Width: 327
VWidth: 0
Flags: HW
HStem: -211 76<-31 93> 616 20G<31.5 294.5>
VStem: 117 93<-41.6475 605.2>
AnchorPoint: "top" 164 730 basechar 0
AnchorPoint: "l;bl" 0 10 basechar 0
AnchorPoint: "l;x" 20 385 basechar 0
AnchorPoint: "l;hi" 0 610 basechar 0
AnchorPoint: "l;o" 20 200 basechar 0
AnchorPoint: "l;k;lo" -90 -200 basechar 0
AnchorPoint: "r;bl" 307 10 basechar 0
AnchorPoint: "r;x" 307 385 basechar 0
AnchorPoint: "r;hi" 327 610 basechar 0
AnchorPoint: "r;o" 307 200 basechar 0
AnchorPoint: "r;lo" 217 -200 basechar 0
LayerCount: 3
Fore
SplineSet
117 561 m 2
 117 637 30 600 30 626 c 0
 30 630 31 634 32 636 c 1
 294 636 l 1
 295 634 297 630 297 626 c 0
 297 599 210 639 210 561 c 2
 210 118 l 2
 210 31 207.8203125 -86.7392578125 87 -170 c 0
 47.9423828125 -196.916015625 8 -211 -9 -211 c 0
 -53 -211 -78 -175 -78 -143 c 0
 -78 -113 -61 -86 -23 -86 c 0
 32 -86 42 -135 80 -135 c 0
 106 -135 117 -82 117 128 c 2
 117 561 l 2
EndSplineSet
AlternateSubs2: "'aalt' Access All Alternates lookup 0 subtable" J.c2
AlternateSubs2: "'aalt' Access All Alternates in Latin lookup 0 subtable" J.c2
Substitution2: "'c2sc' Capitals to Small Capitals in Latin lookup 4 subtable" J.c2
EndChar

StartChar: K
Encoding: 75 75 37
Width: 714
VWidth: 0
Flags: HW
HStem: 0 21G<32.5 295.5 396.5 692.5> 304 23<210 254.936> 616 20G<31.5 302.5 414.5 641.5>
VStem: 117 93<30.7996 303 328 604.11>
DStem2: 369 324 294 270 0.649049 -0.760746<-58.068 276.94>
AnchorPoint: "cedilla" 348 -80 basechar 0
AnchorPoint: "l;bl" 0 10 basechar 0
AnchorPoint: "l;x" 20 385 basechar 0
AnchorPoint: "l;hi" 0 610 basechar 0
AnchorPoint: "l;o" 20 200 basechar 0
AnchorPoint: "r;bl" 714 10 basechar 0
AnchorPoint: "r;x" 634 385 basechar 0
AnchorPoint: "r;hi" 680 610 basechar 0
AnchorPoint: "r;o" 654 200 basechar 0
LayerCount: 3
Fore
SplineSet
488 588 m 0
 488 626 413 606 413 626 c 0
 413 630 414 634 415 636 c 1
 641 636 l 1
 642 634 644 630 644 626 c 0
 644 610 621.01171875 618.963867188 590 609 c 0
 540.018554688 592.94140625 506 556 472 520 c 2
 356 397 l 2
 341 381 333 376 333 370 c 0
 333 362 345.064453125 352.0546875 369 324 c 2
 584 72 l 2
 643 3 694 31 694 10 c 0
 694 6 693 2 692 0 c 1
 397 0 l 1
 396 2 394 6 394 10 c 0
 394 32 468 11 468 44 c 0
 468 53 462.84765625 63.8740234375 448 82 c 2
 294 270 l 2
 278 290 261 304 225 304 c 0
 220 304 215 303 210 303 c 1
 210 75 l 2
 210 -1 297 36 297 10 c 0
 297 6 296 2 295 0 c 1
 33 0 l 1
 32 2 30 6 30 10 c 0
 30 37 117 -3 117 75 c 2
 117 561 l 2
 117 637 30 600 30 626 c 0
 30 630 31 634 32 636 c 1
 302 636 l 1
 303 634 305 630 305 626 c 0
 305 599 210 639 210 561 c 2
 210 328 l 1
 216 328 220 327 225 327 c 0
 261 327 308 383 458 543 c 0
 464 550 488 571 488 588 c 0
  Spiro
    488 588 o
    468.589 610.286 o
    432.411 615.708 o
    413 626 o
    413.296 629.922 o
    414.038 633.411 o
    415 636 v
    641 636 v
    642.221 633.411 o
    643.445 629.922 o
    644 626 o
    636.905 616.7 o
    617.759 614.278 o
    590 609 o
    544.79 586.816 o
    506.561 555.471 o
    472 520 [
    356 397 ]
    343.381 384.232 o
    335.624 376.104 o
    333 370 o
    337.006 360.764 o
    349.045 346.599 o
    369 324 [
    584 72 ]
    638.692 29.9465 o
    678.622 20.0695 o
    694 10 o
    693.704 6.07785 o
    692.962 2.58948 o
    692 0 v
    397 0 v
    395.779 2.58948 o
    394.555 6.07785 o
    394 10 o
    413.152 21.2551 o
    448.848 25.4152 o
    468 44 o
    466.118 53.813 o
    459.775 66.106 o
    448 82 [
    294 270 ]
    277.019 287.689 o
    255.308 299.638 o
    225 304 o
    220.005 303.741 o
    214.995 303.259 o
    210 303 v
    210 75 ]
    232.517 30.1684 o
    274.483 21.515 o
    297 10 o
    296.704 6.07785 o
    295.962 2.58948 o
    295 0 v
    33 0 v
    31.7791 2.58948 o
    30.5546 6.07785 o
    30 10 o
    52.5169 21.5156 o
    94.4831 29.5014 o
    117 75 [
    117 561 ]
    94.4831 605.832 o
    52.5169 614.485 o
    30 626 o
    30.2957 629.922 o
    31.0379 633.411 o
    32 636 v
    302 636 v
    303.221 633.411 o
    304.445 629.922 o
    305 626 o
    280.413 614.484 o
    234.587 606.499 o
    210 561 [
    210 328 v
    215.439 327.741 o
    220.227 327.259 o
    225 327 o
    268.021 347.402 o
    339.018 415.985 o
    458 543 o
    468.431 553.986 o
    481.567 570.351 o
    0 0 z
  EndSpiro
EndSplineSet
AlternateSubs2: "'aalt' Access All Alternates lookup 0 subtable" K.c2
AlternateSubs2: "'aalt' Access All Alternates in Latin lookup 0 subtable" K.c2
Substitution2: "'c2sc' Capitals to Small Capitals in Latin lookup 4 subtable" K.c2
EndChar

StartChar: L
Encoding: 76 76 38
Width: 616
VWidth: 0
Flags: HW
HStem: 0 34<210.528 484.967> 616 20G<31.5 294.5>
VStem: 117 93<35.0577 605.2>
AnchorPoint: "commaright" 327 540 basechar 0
AnchorPoint: "cedilla" 328 -80 basechar 0
AnchorPoint: "top" 165 730 basechar 0
AnchorPoint: "l;bl" 0 10 basechar 0
AnchorPoint: "l;x" 20 385 basechar 0
AnchorPoint: "l;hi" 0 610 basechar 0
AnchorPoint: "l;o" 20 200 basechar 0
AnchorPoint: "r;bl" 596 10 basechar 0
AnchorPoint: "r;x" 556 385 basechar 0
AnchorPoint: "r;hi" 496 610 basechar 0
AnchorPoint: "r;o" 616 200 basechar 0
LayerCount: 3
Fore
SplineSet
32 0 m 1
 31 2 30 6 30 10 c 0
 30 36 117 -1 117 75 c 2
 117 561 l 2
 117 637 30 600 30 626 c 0
 30 630 31 634 32 636 c 1
 294 636 l 1
 295 634 297 630 297 626 c 0
 297 599 210 639 210 561 c 2
 210 56 l 2
 210 45 217 34 235 34 c 2
 441 34 l 2
 482 34 490 45 557 168 c 0
 561 176 576 172 576 162 c 0
 576 160 576 138 564 80 c 0
 552 25 550 0 534 0 c 2
 32 0 l 1
EndSplineSet
AlternateSubs2: "'aalt' Access All Alternates lookup 0 subtable" L.c2
AlternateSubs2: "'aalt' Access All Alternates in Latin lookup 0 subtable" L.c2
Substitution2: "'c2sc' Capitals to Small Capitals in Latin lookup 4 subtable" L.c2
EndChar

StartChar: N
Encoding: 78 78 39
Width: 786
VWidth: 0
Flags: HW
HStem: 0 11G<49.5 274.5 641.5 650.5> 616 20G<32.5 195.5 522.5 753.5>
VStem: 142 33<41.14 307.589> 635 26<257.502 575.624>
DStem2: 227 607 116 575 0.673616 -0.739082<-58.1033 23.9491 44.456 606.089>
AnchorPoint: "top" 402 730 basechar 0
AnchorPoint: "l;bl" 0 10 basechar 0
AnchorPoint: "l;x" 20 385 basechar 0
AnchorPoint: "l;hi" 0 610 basechar 0
AnchorPoint: "l;o" 20 200 basechar 0
AnchorPoint: "r;bl" 766 10 basechar 0
AnchorPoint: "r;x" 766 385 basechar 0
AnchorPoint: "r;hi" 786 610 basechar 0
AnchorPoint: "r;o" 766 200 basechar 0
LayerCount: 3
Fore
SplineSet
30 626 m 0
 30 630 32 634 33 636 c 1
 187 636 l 2
 204 636 207 629 227 607 c 2
 582 211 l 2
 613 177 631 156 632 156 c 0
 634 156 635 200 635 446 c 0
 635 541 635 590 589 607 c 0
 559 618 521 609 521 626 c 0
 521 630 522 634 523 636 c 1
 753 636 l 1
 754 634 756 630 756 626 c 0
 756 609 722 621 693 605 c 0
 661 587 661.330078125 544 661 413 c 2
 660 16 l 2
 659.934570312 -10 651 -10 650 -10 c 2
 645 -10 l 2
 638 -10 646.633789062 -8.33203125 507 146 c 2
 241 440 l 2
 204.895507812 479.905273438 182 505 181 505 c 0
 179 505 175 226 175 153 c 0
 175 124 176 100 176 85 c 0
 178 50 190 37 198 32 c 0
 221 16 276 30 276 10 c 0
 276 6 275 2 274 0 c 1
 50 0 l 1
 49 2 47 6 47 10 c 0
 47 30 97 13 122 37 c 0
 138 53 141 71 142 110 c 0
 148 235 151 342 151 425 c 2
 151 522 l 2
 151 533 151 539 136 554 c 2
 116 575 l 2
 103 589 91 598 82 604 c 0
 54 621 30 609 30 626 c 0
EndSplineSet
AlternateSubs2: "'aalt' Access All Alternates lookup 0 subtable" N.c2
AlternateSubs2: "'aalt' Access All Alternates in Latin lookup 0 subtable" N.c2
Substitution2: "'c2sc' Capitals to Small Capitals in Latin lookup 4 subtable" N.c2
EndChar

StartChar: O
Encoding: 79 79 40
Width: 739
VWidth: 0
Flags: HW
HStem: -22 33<306.211 463.526> 622 32<295.584 445.747>
VStem: 40 109<195.728 436.303> 602 97<185.015 450.912>
AnchorPoint: "top" 370 730 basechar 0
AnchorPoint: "l;bl" 50 10 basechar 0
AnchorPoint: "l;x" 0 385 basechar 0
AnchorPoint: "l;hi" 50 610 basechar 0
AnchorPoint: "l;o" 0 200 basechar 0
AnchorPoint: "r;bl" 689 10 basechar 0
AnchorPoint: "r;x" 739 385 basechar 0
AnchorPoint: "r;hi" 689 610 basechar 0
AnchorPoint: "r;o" 739 200 basechar 0
LayerCount: 3
Fore
SplineSet
367 654 m 0
 560 654 699 527 699 318 c 0
 699 109 573 -22 377 -22 c 0
 207 -22 40 96 40 325 c 0
 40 468 148 654 367 654 c 0
370 622 m 0
 215 622 149 458 149 330 c 0
 149 186 217 11 384 11 c 0
 470 11 602 59 602 303 c 0
 602 518 490 622 370 622 c 0
EndSplineSet
Layer: 2
SplineSet
370 622 m 4
 215 622 149 458 149 330 c 4
 149 186 217 11 384 11 c 4
 470 11 602 59 602 303 c 4
 602 518 490 622 370 622 c 4
367 654 m 4
 540 654 699 554 699 320 c 4
 699 90 541 -22 377 -22 c 4
 207 -22 40 96 40 325 c 4
 40 468 148 654 367 654 c 4
EndSplineSet
AlternateSubs2: "'aalt' Access All Alternates lookup 0 subtable" O.c2
AlternateSubs2: "'aalt' Access All Alternates in Latin lookup 0 subtable" O.c2
Substitution2: "'c2sc' Capitals to Small Capitals in Latin lookup 4 subtable" O.c2
EndChar

StartChar: P
Encoding: 80 80 41
Width: 560
VWidth: 0
Flags: HW
HStem: 0 21G<32.5 305.5> 263 40<225.581 355.021> 611 25<215.748 346.935>
VStem: 117 93<32.5851 289 304.919 606.104> 430 90<371.202 542.135>
AnchorPoint: "top" 282 730 basechar 0
AnchorPoint: "l;bl" 0 10 basechar 0
AnchorPoint: "l;o" 20 200 basechar 0
AnchorPoint: "l;hi" 0 610 basechar 0
AnchorPoint: "l;x" 20 385 basechar 0
AnchorPoint: "r;bl" 440 10 basechar 0
AnchorPoint: "r;o" 520 200 basechar 0
AnchorPoint: "r;hi" 540 610 basechar 0
AnchorPoint: "r;x" 560 385 basechar 0
LayerCount: 3
Fore
SplineSet
430 456 m 0
 430 518 400 611 281 611 c 2
 274 611 l 2
 219 611 210 610 210 562 c 2
 210 308 l 1
 210 308 238 303 261 303 c 0
 362 303 430 353 430 456 c 0
33 636 m 1
 309 636 l 2
 344 636 403.990234375 628.986328125 451 597 c 0
 500.990234375 562.985351562 520 509 520 455 c 0
 520 408 505 361 481 330 c 0
 448 288 393 263 332 263 c 0
 267 263 210 289 210 289 c 1
 210 75 l 2
 210 -1 307 36 307 10 c 0
 307 6 306 2 305 0 c 1
 33 0 l 1
 32 2 30 6 30 10 c 0
 30 37 117 -3 117 75 c 2
 117 561 l 2
 117 639 30 599 30 626 c 0
 30 630 32 634 33 636 c 1
EndSplineSet
AlternateSubs2: "'aalt' Access All Alternates lookup 0 subtable" P.c2
AlternateSubs2: "'aalt' Access All Alternates in Latin lookup 0 subtable" P.c2
Substitution2: "'c2sc' Capitals to Small Capitals in Latin lookup 4 subtable" P.c2
EndChar

StartChar: Q
Encoding: 81 81 42
Width: 756
VWidth: 0
Flags: HW
HStem: -196 50<647 784.026> -175 34<751.702 805.994> -18 26<307.577 373.996> 626 28<309.699 449.127>
VStem: 40 103<184.154 423.946> 613 103<225.803 457.295>
AnchorPoint: "r;o" 756 200 basechar 0
AnchorPoint: "r;hi" 706 610 basechar 0
AnchorPoint: "r;x" 756 385 basechar 0
AnchorPoint: "r;bl" 706 10 basechar 0
AnchorPoint: "l;o" 0 200 basechar 0
AnchorPoint: "l;hi" 50 610 basechar 0
AnchorPoint: "l;x" 0 385 basechar 0
AnchorPoint: "l;bl" 50 10 basechar 0
AnchorPoint: "r;k;lo" 816 -200 basechar 0
LayerCount: 3
Fore
SplineSet
143 289 m 0x3c
 143 109 261 8 378 8 c 0
 529 8 613 164 613 337 c 0
 613 490 519 626 378 626 c 0
 223 626 143 436 143 289 c 0x3c
790 -141 m 0x7c
 801 -138 806 -147 806 -158 c 0
 806 -166 797.979492188 -169.930664062 781 -175 c 0x7c
 747.959960938 -184.865234375 694 -196 676 -196 c 0
 618 -196 585.01953125 -170.96484375 532 -142 c 0
 466.0234375 -105.956054688 438 -80 374 -30 c 0
 359.969726562 -19.0390625 348 -20 330 -18 c 0
 211 -6 40 86 40 303 c 0
 40 475 161 654 389 654 c 0
 567 654 716 535 716 337 c 0
 716 198 619 73 506 16 c 0
 495 11 489 7 489 5 c 0
 489 1 496 -4 499 -6 c 0
 536 -33 690 -146 751 -146 c 0xbc
 766 -146 780 -144 790 -141 c 0x7c
EndSplineSet
AlternateSubs2: "'aalt' Access All Alternates lookup 0 subtable" Q.c2
AlternateSubs2: "'aalt' Access All Alternates in Latin lookup 0 subtable" Q.c2
Substitution2: "'c2sc' Capitals to Small Capitals in Latin lookup 4 subtable" Q.c2
EndChar

StartChar: R
Encoding: 82 82 43
Width: 667
VWidth: 0
Flags: HW
HStem: 0 21G<32.5 305.5 520 645.5> 293 25<210 299.841> 611 25<214.488 342.93>
VStem: 117 93<32.5851 293 318 605.791> 417 93<403.351 555.528>
DStem2: 399 296 311 269 0.574946 -0.818192<-25.2812 315.396>
AnchorPoint: "top" 286 730 basechar 0
AnchorPoint: "l;bl" 0 10 basechar 0
AnchorPoint: "l;o" 20 200 basechar 0
AnchorPoint: "l;hi" 0 610 basechar 0
AnchorPoint: "l;x" 20 385 basechar 0
AnchorPoint: "r;bl" 667 10 basechar 0
AnchorPoint: "r;o" 607 200 basechar 0
AnchorPoint: "r;hi" 567 610 basechar 0
AnchorPoint: "r;x" 587 385 basechar 0
LayerCount: 3
Back
SplineSet
30 10 m 4
 30 37 117 -3 117 75 c 6
 117 561 l 6
 117 639 30 599 30 626 c 4
 30 630 32 634 33 636 c 5
 256 636 l 6
 355 636 420 624 464 586 c 4
 493 562 510 527 510 478 c 4
 510 362 386 331 386 318 c 4
 386 313 391 309 399 296 c 4
 471 187 567 59 589 36 c 4
 613 12 647 30 647 10 c 4
 647 6 646 2 645 0 c 5
 558 0 l 6
 506 0 500.018554688 0.0126953125 493 10 c 6
 311 269 l 6
 296 290 293 293 269 293 c 6
 210 293 l 5
 210 75 l 6
 210 -1 307 36 307 10 c 4
 307 6 306 2 305 0 c 5
 33 0 l 5
 32 2 30 6 30 10 c 4
417 474 m 4
 417 532 393 566 368 585 c 4
 340 606 319 611 261 611 c 6
 241 611 l 6
 217 611 210 604 210 564 c 6
 210 318 l 5
 252 318 l 6
 330 318 417 348 417 474 c 4
EndSplineSet
Fore
SplineSet
493 10 m 2
 311 269 l 2
 296 290 293 293 269 293 c 2
 210 293 l 1
 210 75 l 2
 210 -1 307 36 307 10 c 0
 307 6 306 2 305 0 c 1
 33 0 l 1
 32 2 30 6 30 10 c 0
 30 37 117 -3 117 75 c 2
 117 561 l 2
 117 639 30 599 30 626 c 0
 30 630 32 634 33 636 c 1
 256 636 l 2
 355 636 420 624 464 586 c 0
 493 562 510 527 510 478 c 0
 510 362 386 331 386 318 c 0
 386 313 391 309 399 296 c 0
 471 187 567 59 589 36 c 0
 613 12 647 30 647 10 c 0
 647 6 646 2 645 0 c 9
 530 0 l 2
 510 0 499 1 493 10 c 2
417 474 m 0
 417 532 393 566 368 585 c 0
 340 606 319 611 261 611 c 2
 241 611 l 2
 217 611 210 604 210 564 c 2
 210 318 l 1
 252 318 l 2
 330 318 417 348 417 474 c 0
EndSplineSet
AlternateSubs2: "'aalt' Access All Alternates lookup 0 subtable" R.c2
AlternateSubs2: "'aalt' Access All Alternates in Latin lookup 0 subtable" R.c2
Substitution2: "'c2sc' Capitals to Small Capitals in Latin lookup 4 subtable" R.c2
EndChar

StartChar: S
Encoding: 83 83 44
Width: 507
VWidth: 0
Flags: HW
HStem: -17 30<188.939 314.57> 627 28<193.993 316.945>
VStem: 50 26<147.387 178.146> 55 75<462.012 564.33> 390 77<93.9481 212.399>
AnchorPoint: "cedilla" 247 -80 basechar 0
AnchorPoint: "top" 259 730 basechar 0
AnchorPoint: "l;bl" 10 10 basechar 0
AnchorPoint: "l;o" 0 200 basechar 0
AnchorPoint: "l;hi" 10 610 basechar 0
AnchorPoint: "l;x" 10 385 basechar 0
AnchorPoint: "r;bl" 477 10 basechar 0
AnchorPoint: "r;o" 507 200 basechar 0
AnchorPoint: "r;hi" 507 610 basechar 0
AnchorPoint: "r;x" 507 385 basechar 0
LayerCount: 3
Back
SplineSet
247 -17 m 4xd8
 197 -17 176.010742188 -12.943359375 140 -6 c 4
 72.0205078125 7.107421875 63 14 63 16 c 4
 63 17 64 17 64 17 c 5
 64 41 50 151 50 170 c 4
 50 179 56 179 62 180 c 4
 70 182 74 177 76 172 c 4xe8
 114 91 162 13 247 13 c 4
 346 13 390 92 390 147 c 4
 390 319 55 289 55 478 c 4
 55 586 137 655 259 655 c 4
 336 655 377 622 390 622 c 4
 397 622 419 628 422 628 c 4
 427 628 430 625 431 614 c 4
 433 585 444 517 447 488 c 4
 448 481 447 477 438 475 c 4
 432 474 428 477 422 489 c 4
 400 529 359 627 257 627 c 4
 209 627 130 601 130 514 c 4
 130 371 467 408 467 180 c 4
 467 48 337 -17 247 -17 c 4xd8
EndSplineSet
Fore
SplineSet
247 -17 m 0xd8
 174 -17 111 -2 73 10 c 0
 62 14 65 15 64 26 c 0
 62 61 50 153 50 170 c 0
 50 179 56 179 62 180 c 0
 70 182 74 177 76 172 c 0xe8
 114 91 162 13 247 13 c 0
 346 13 390 92 390 147 c 0
 390 319 55 289 55 478 c 0
 55 586 137 655 259 655 c 0
 336 655 377 622 390 622 c 0
 397 622 419 628 422 628 c 0
 427 628 430 625 431 614 c 0
 433 585 444 517 447 488 c 0
 448 481 447 477 438 475 c 0
 432 474 428 477 422 489 c 0
 400 529 359 627 257 627 c 0
 209 627 130 601 130 514 c 0
 130 371 467 408 467 180 c 0
 467 48 337 -17 247 -17 c 0xd8
EndSplineSet
AlternateSubs2: "'aalt' Access All Alternates lookup 0 subtable" S.c2
AlternateSubs2: "'aalt' Access All Alternates in Latin lookup 0 subtable" S.c2
Substitution2: "'c2sc' Capitals to Small Capitals in Latin lookup 4 subtable" S.c2
EndChar

StartChar: T
Encoding: 84 84 45
Width: 720
VWidth: 0
Flags: HW
HStem: 0 21G<213.5 511.5> 602 34<97.4648 309.573 415.394 632.538>
VStem: 316 93<32.9031 599.75>
AnchorPoint: "cedilla" 364 -80 basechar 0
AnchorPoint: "top" 364 730 basechar 0
AnchorPoint: "l;bl" 130 10 basechar 0
AnchorPoint: "l;o" 110 200 basechar 0
AnchorPoint: "l;hi" 0 610 basechar 0
AnchorPoint: "l;x" 100 385 basechar 0
AnchorPoint: "r;hi2" 720 670 basechar 0
AnchorPoint: "r;bl" 600 10 basechar 0
AnchorPoint: "r;o" 615 200 basechar 0
AnchorPoint: "r;hi" 720 610 basechar 0
AnchorPoint: "r;x" 630 385 basechar 0
LayerCount: 3
Fore
SplineSet
214 0 m 1
 213 2 212 6 212 10 c 0
 212 36 316 -3 316 75 c 2
 316 503 l 2
 316 597 310 602 274 602 c 2
 176 602 l 2
 109 602 112 598 87 576 c 0
 44 538 29 522 26 522 c 0
 24 522 15 525 15 530 c 0
 15 533 50 625 56 649 c 0
 57 652 59 654 62 654 c 0
 68 654 89 636 103 636 c 2
 625 636 l 2
 633 636 660 650 664 650 c 0
 669 650 671 647 674 637 c 2
 685 595 l 2
 691 571 705 527 705 524 c 0
 705 521 698 518 694 518 c 0
 690 518 663 553 635 583 c 0
 621 598 611 602 590 602 c 2
 449 602 l 2
 410 602 409 585 409 505 c 2
 409 75 l 2
 409 -3 513 36 513 10 c 0
 513 6 512 2 511 0 c 1
 214 0 l 1
EndSplineSet
Layer: 2
SplineSet
214 0 m 5
 213 2 212 6 212 10 c 4
 212 36 316 -3 316 75 c 6
 316 503 l 6
 316 597 310 600 274 600 c 6
 176 600 l 6
 109 600 112 598 87 576 c 4
 44 538 29 522 26 522 c 4
 24 522 15 525 15 530 c 4
 15 533 50 625 56 649 c 4
 57 652 59 654 62 654 c 4
 68 654 89 634 103 634 c 6
 625 634 l 6
 633 634 660 650 664 650 c 4
 669 650 671 647 674 637 c 6
 685 595 l 6
 691 571 705 527 705 524 c 4
 705 521 698 518 694 518 c 4
 690 518 663 553 635 583 c 4
 621 598 611 600 590 600 c 6
 449 600 l 6
 410 600 409 585 409 505 c 6
 409 75 l 6
 409 -3 513 36 513 10 c 4
 513 6 512 2 511 0 c 5
 214 0 l 5
EndSplineSet
AlternateSubs2: "'aalt' Access All Alternates lookup 0 subtable" T.c2
AlternateSubs2: "'aalt' Access All Alternates in Latin lookup 0 subtable" T.c2
Substitution2: "'c2sc' Capitals to Small Capitals in Latin lookup 4 subtable" T.c2
EndChar

StartChar: U
Encoding: 85 85 46
Width: 746
VWidth: 0
Flags: HW
HStem: -20 56<308.815 485.145> 616 20G<31.5 304.5 487.5 713.5>
VStem: 117 93<167.009 604.11> 604 28<214.545 571.544>
AnchorPoint: "top" 400 730 basechar 0
AnchorPoint: "l;bl" 60 10 basechar 0
AnchorPoint: "l;o" 20 200 basechar 0
AnchorPoint: "l;hi" 0 610 basechar 0
AnchorPoint: "l;x" 20 385 basechar 0
AnchorPoint: "r;hi2" 736 670 basechar 0
AnchorPoint: "r;bl" 666 10 basechar 0
AnchorPoint: "r;o" 726 200 basechar 0
AnchorPoint: "r;hi" 746 610 basechar 0
AnchorPoint: "r;x" 726 385 basechar 0
LayerCount: 3
Fore
SplineSet
632 469 m 2
 632 408 l 2
 632 264 631 239 619 183 c 0
 584 28 487 -20 368 -20 c 0
 267 -20 216 19 195 39 c 0
 121 111 117 236 117 387 c 2
 117 561 l 2
 117 637 30 600 30 626 c 0
 30 630 31 634 32 636 c 1
 304 636 l 1
 305 634 307 630 307 626 c 0
 307 599 210 639 210 561 c 2
 210 359 l 2
 210 211 229 36 391 36 c 0
 511 36 604 91 604 325 c 2
 604 455 l 2
 604 520 599 560 584 584 c 0
 554 631 486 605 486 626 c 0
 486 630 487 634 488 636 c 1
 713 636 l 1
 714 634 716 630 716 626 c 0
 716 601 660 632 643 584 c 0
 636 564 632 529 632 469 c 2
EndSplineSet
AlternateSubs2: "'aalt' Access All Alternates lookup 0 subtable" U.c2
AlternateSubs2: "'aalt' Access All Alternates in Latin lookup 0 subtable" U.c2
Substitution2: "'c2sc' Capitals to Small Capitals in Latin lookup 4 subtable" U.c2
EndChar

StartChar: V
Encoding: 86 86 47
Width: 754
VWidth: 0
Flags: HW
HStem: -20 21G<318.5 336> 616 20G<31.5 267.5 481.5 721.5>
VStem: 576 148<551 628>
AnchorPoint: "r;hi2" 744 670 basechar 0
AnchorPoint: "l;bl" 170 10 basechar 0
AnchorPoint: "l;x" 55 385 basechar 0
AnchorPoint: "l;hi" 0 610 basechar 0
AnchorPoint: "l;o" 115 200 basechar 0
AnchorPoint: "r;bl" 484 10 basechar 0
AnchorPoint: "r;x" 644 385 basechar 0
AnchorPoint: "r;hi" 754 610 basechar 0
AnchorPoint: "r;o" 568 200 basechar 0
LayerCount: 3
Fore
SplineSet
376 109 m 0
 385 109 466.4140625 270.251953125 523 402 c 0
 562.58984375 494.17578125 576 538 576 564 c 0
 576 577 573 586 568 594 c 0
 549 624 480 604 480 626 c 0
 480 630 481 634 482 636 c 1
 721 636 l 1
 722 634 724 630 724 626 c 0
 724 605 694 626 659 600 c 0
 647 591 632 574 622 555 c 0
 592 501 588.184570312 480.918945312 552 399 c 0
 480 236 449 168 363 24 c 0
 348 -1 340 -20 332 -20 c 2
 325 -20 l 2
 312 -20 312 -20 206 275 c 0
 114.762695312 528.915039062 108 571 86 600 c 0
 67 624 30 606 30 626 c 0
 30 630 31 634 32 636 c 1
 267 636 l 1
 268 634 270 630 270 626 c 0
 270 612 247 617 228 611 c 0
 217 607 212 600 212 585 c 0
 212 573 217 557 225 532 c 0
 286 350 328.138671875 230.051757812 353 163 c 0
 367.079101562 125.029296875 374 109 376 109 c 0
EndSplineSet
AlternateSubs2: "'aalt' Access All Alternates lookup 0 subtable" V.c2
AlternateSubs2: "'aalt' Access All Alternates in Latin lookup 0 subtable" V.c2
Substitution2: "'c2sc' Capitals to Small Capitals in Latin lookup 4 subtable" V.c2
EndChar

StartChar: W
Encoding: 87 87 48
Width: 1066
VWidth: 0
Flags: HW
HStem: -20 21G<287.5 301 689.5 703> 616 20G<31.5 290.5 411.5 693.5 842.5 1033.5>
VStem: 30 190<567 628> 914 122<555.5 628>
DStem2: 226 536 147 441 0.273874 -0.961765<-37.5584 436.214> 623 509 529 471 0.298157 -0.954517<-68.047 29.571 48.0944 401.344>
AnchorPoint: "r;hi2" 1056 670 basechar 0
AnchorPoint: "top" 556 730 basechar 0
AnchorPoint: "l;bl" 150 10 basechar 0
AnchorPoint: "l;x" 50 385 basechar 0
AnchorPoint: "l;hi" 0 610 basechar 0
AnchorPoint: "l;o" 100 200 basechar 0
AnchorPoint: "r;bl" 856 10 basechar 0
AnchorPoint: "r;x" 976 385 basechar 0
AnchorPoint: "r;hi" 1066 610 basechar 0
AnchorPoint: "r;o" 926 200 basechar 0
LayerCount: 3
Fore
SplineSet
740 125 m 0
 742 125 774.900390625 203.041015625 813 295 c 0
 876.833007812 449.069335938 914 536 914 575 c 0
 914 591 906 601 893 607 c 0
 871 617 841 611 841 626 c 0
 841 630 842 634 843 636 c 1
 1033 636 l 1
 1034 634 1036 630 1036 626 c 0
 1036 609 1014 619 988 605 c 0
 952 585 957.412109375 557.821289062 853 318 c 2
 725 24 l 2
 713 -3 707 -20 699 -20 c 2
 694 -20 l 2
 685 -20 678 -6 673 10 c 2
 541 433 l 1
 524 402 512 373 481 310 c 0
 423 194 451.9296875 251.583007812 328 24 c 0
 313.877929688 -1.93359375 305 -20 297 -20 c 2
 292 -20 l 2
 283 -20 277 -6 272 10 c 0
 230 154 187 296 147 441 c 0
 110.872070312 571.96484375 112 585 88 603 c 0
 64 622 30 609 30 626 c 0
 30 630 31 634 32 636 c 1
 290 636 l 1
 291 634 293 630 293 626 c 0
 293 609 258 619 234 602 c 0
 226 596 220 587 220 574 c 0
 220 560 224 546 226 536 c 0
 248 449 295 279 323 182 c 0
 334 142 342 116 344 116 c 0
 353 116 459 334 529 471 c 1
 515 524 497 587 475 603 c 0
 449 621 410 607 410 626 c 0
 410 630 411 634 412 636 c 1
 693 636 l 1
 694 634 696 630 696 626 c 0
 696 607 657 619 632 608 c 0
 614 600 607 591 607 576 c 0
 607 561 614.051757812 541.014648438 623 509 c 0
 643.116210938 437.032226562 678 317 705 230 c 0
 724 169 737 125 740 125 c 0
EndSplineSet
AlternateSubs2: "'aalt' Access All Alternates lookup 0 subtable" W.c2
AlternateSubs2: "'aalt' Access All Alternates in Latin lookup 0 subtable" W.c2
Substitution2: "'c2sc' Capitals to Small Capitals in Latin lookup 4 subtable" W.c2
EndChar

StartChar: X
Encoding: 88 88 49
Width: 696
VWidth: 0
Flags: HW
HStem: 0 21G<32.5 279.5 397.5 663.5> 616 20G<51.5 327.5 426.5 663.5>
VStem: 310 85<311.68 342.062> 501 165<558 632>
DStem2: 288 531 172 538 0.509261 -0.860612<-66.5539 173.484 246.514 503.689> 208 160 223 128 0.604709 0.796446<-92.8398 161.289 279.042 502.155>
AnchorPoint: "l;bl" 0 10 basechar 0
AnchorPoint: "l;o" 40 200 basechar 0
AnchorPoint: "l;hi" 30 610 basechar 0
AnchorPoint: "l;x" 70 385 basechar 0
AnchorPoint: "r;hi2" 686 670 basechar 0
AnchorPoint: "r;bl" 696 10 basechar 0
AnchorPoint: "r;o" 656 200 basechar 0
AnchorPoint: "r;hi" 696 610 basechar 0
AnchorPoint: "r;x" 626 385 basechar 0
LayerCount: 3
Fore
SplineSet
432 454 m 2
 457 488 501 541 501 575 c 0
 501 634 425 600 425 626 c 0
 425 630 426 634 427 636 c 1
 663 636 l 1
 664 634 666 630 666 626 c 0
 666 607 635.064453125 624.918945312 591 590 c 0
 572.02734375 574.96484375 544.442382812 550.662109375 510 506 c 2
 419 388 l 2
 405.07421875 369.942382812 395 360 395 350 c 0
 395 344 403 335 419 308 c 2
 546 95 l 2
 563 67 579 47 600 35 c 0
 631 18 665 27 665 10 c 0
 665 6 664 2 663 0 c 1
 398 0 l 1
 397 2 395 6 395 10 c 0
 395 31 454 12 454 43 c 0
 454 63 428 100 392 164 c 2
 348 241 l 2
 340 254 333 270 330 270 c 0
 327 270 319 258 309 245 c 2
 223 128 l 2
 216 119 188 83 188 56 c 0
 188 9 281 33 281 10 c 0
 281 6 280 2 279 0 c 1
 33 0 l 1
 32 2 30 6 30 10 c 0
 30 29 56.890625 13.169921875 100 41 c 0
 124.936523438 57.0986328125 157 93 208 160 c 2
 295 275 l 2
 305 289 310 294 310 300 c 0
 310 306 304 315 296 329 c 2
 172 538 l 2
 150.734375 573.84375 136 589 122 599 c 0
 93 619 49 608 49 626 c 0
 49 630 51 634 52 636 c 1
 327 636 l 1
 328 634 329 630 329 626 c 0
 329 607 284 620 266 604 c 0
 263 601 261 598 261 593 c 0
 262 580 270.24609375 562.141601562 288 531 c 2
 349 424 l 2
 373 382 374 382 377 382 c 0
 378 382 384 390 390 398 c 2
 432 454 l 2
EndSplineSet
AlternateSubs2: "'aalt' Access All Alternates lookup 0 subtable" X.c2
AlternateSubs2: "'aalt' Access All Alternates in Latin lookup 0 subtable" X.c2
Substitution2: "'c2sc' Capitals to Small Capitals in Latin lookup 4 subtable" X.c2
EndChar

StartChar: Y
Encoding: 89 89 50
Width: 680
VWidth: 0
Flags: HW
HStem: 0 21G<216.5 491.5> 616 20G<31.5 306.5 425.5 647.5>
VStem: 302 93<32.5851 273.832> 516 134<567 628>
DStem2: 273 496 121 543 0.509551 -0.86044<-108.001 224.62> 398 322 419 307 0.443552 0.896249<-26.1604 277.6>
AnchorPoint: "top" 372 730 basechar 0
AnchorPoint: "l;bl" 145 10 basechar 0
AnchorPoint: "l;o" 125 200 basechar 0
AnchorPoint: "l;hi" 0 610 basechar 0
AnchorPoint: "l;x" 80 385 basechar 0
AnchorPoint: "r;hi2" 670 670 basechar 0
AnchorPoint: "r;bl" 560 10 basechar 0
AnchorPoint: "r;o" 570 200 basechar 0
AnchorPoint: "r;hi" 680 610 basechar 0
AnchorPoint: "r;x" 600 385 basechar 0
LayerCount: 3
Fore
SplineSet
584 599 m 0
 557.061523438 580.909179688 539 542 514 494 c 2
 419 307 l 2
 409 287 395 256 395 246 c 2
 395 75 l 2
 395 -1 493 36 493 10 c 0
 493 6 492 2 491 0 c 1
 217 0 l 1
 216 2 214 6 214 10 c 0
 214 37 302 -3 302 75 c 2
 302 227 l 2
 302 236 293 252 288 261 c 2
 121 543 l 2
 102 575 90 594 75 604 c 0
 55 618 30 610 30 626 c 0
 30 630 31 634 32 636 c 1
 306 636 l 1
 307 634 309 630 309 626 c 0
 309 609 269 617 238 606 c 0
 230 603 224 599 224 593 c 0
 224 583 246.416992188 544.232421875 273 496 c 2
 370 320 l 2
 377 308 380 300 383 300 c 0
 386 300 390 306 398 322 c 2
 495 518 l 2
 506.901367188 542.048828125 516 560 516 574 c 0
 516 588 506.982421875 596.961914062 494 603 c 0
 461.956054688 617.905273438 424 609 424 626 c 0
 424 630 425 634 426 636 c 1
 647 636 l 1
 648 634 650 630 650 626 c 0
 650 609 618.077148438 621.884765625 584 599 c 0
EndSplineSet
AlternateSubs2: "'aalt' Access All Alternates lookup 0 subtable" Y.c2
AlternateSubs2: "'aalt' Access All Alternates in Latin lookup 0 subtable" Y.c2
Substitution2: "'c2sc' Capitals to Small Capitals in Latin lookup 4 subtable" Y.c2
EndChar

StartChar: Z
Encoding: 90 90 51
Width: 565
VWidth: 0
Flags: HW
HStem: 0 35<175.012 399.258> 609 27<165.367 372.995> 642 20G<77 90.5>
DStem2: 62 78 229 146 0.511274 0.859418<32.4577 610.91>
AnchorPoint: "top" 295 730 basechar 0
AnchorPoint: "l;bl" 0 10 basechar 0
AnchorPoint: "l;o" 0 200 basechar 0
AnchorPoint: "l;hi" 20 610 basechar 0
AnchorPoint: "l;x" 0 385 basechar 0
AnchorPoint: "r;hi2" 535 670 basechar 0
AnchorPoint: "r;bl" 545 10 basechar 0
AnchorPoint: "r;o" 565 200 basechar 0
AnchorPoint: "r;hi" 535 610 basechar 0
AnchorPoint: "r;x" 545 385 basechar 0
LayerCount: 3
Fore
SplineSet
535 145 m 0
 535 140 530 134 510 92 c 0
 495 61 478 24 467 6 c 0
 464 2 455 0 451 0 c 2
 66 0 l 2
 31 0 30 0 30 19 c 0
 30 22 42 44 62 78 c 2
 319 510 l 2
 351 564 373 601 373 604 c 0
 373 609 366 609 350 609 c 2
 274 609 l 2
 192 609 130.311523438 603.819335938 82 521 c 0
 61 485 57 465 47 465 c 0
 34 465 31 472 31 477 c 0
 31 480 32 482 32 483 c 0
 34 492 59.931640625 593.014648438 64 612 c 0
 70 640 72 662 82 662 c 0
 99 662 113 636 152 636 c 2
 486 636 l 2
 494 636 500 632 500 622 c 0
 500 611 480 585 450 532 c 2
 229 146 l 2
 225 140 175 58 175 48 c 0
 175 35 191 35 219 35 c 2
 275 35 l 2
 321 35 361 39 382 45 c 0
 404 52 436 72 489 127 c 0
 508.141601562 146.864257812 516 157 523 157 c 0
 526 157 535 153 535 145 c 0
EndSplineSet
AlternateSubs2: "'aalt' Access All Alternates lookup 0 subtable" Z.c2
AlternateSubs2: "'aalt' Access All Alternates in Latin lookup 0 subtable" Z.c2
Substitution2: "'c2sc' Capitals to Small Capitals in Latin lookup 4 subtable" Z.c2
EndChar

StartChar: period
Encoding: 46 46 53
Width: 320
VWidth: 0
Flags: W
HStem: -14 106<112.315 197.685>
VStem: 102 106<-3.68506 81.6851>
LayerCount: 3
Fore
SplineSet
102 39 m 0
 102 69 125 92 155 92 c 0
 185 92 208 69 208 39 c 0
 208 9 185 -14 155 -14 c 0
 125 -14 102 9 102 39 c 0
EndSplineSet
EndChar

StartChar: comma
Encoding: 44 44 54
Width: 306
VWidth: 0
Flags: W
HStem: 6 95<95.1951 169.838>
VStem: 171 52<-72.9509 38.5>
LayerCount: 3
Fore
SplineSet
223 7 m 0
 223 -55 192 -91 165 -120 c 0
 135 -153 115 -155 112 -155 c 0
 105 -155 101 -150 99 -143 c 0
 96 -134 101 -128 109 -121 c 0
 146 -92 171 -51 171 -23 c 0
 171 -4 160 6 132 6 c 0
 98 6 82 27 82 48 c 0
 82 73 106 101 147 101 c 0
 185 101 223 70 223 7 c 0
EndSplineSet
EndChar

StartChar: hyphen
Encoding: 45 45 55
Width: 316
VWidth: 0
Flags: W
HStem: 177 58<23 288.986>
VStem: 23 266<177 235>
LayerCount: 3
Fore
SplineSet
39 235 m 2
 276 235 l 2
 289 235 289 227 289 218 c 2
 289 200 l 2
 289 192 287 177 276 177 c 2
 36 177 l 2
 25 177 23 182 23 196 c 2
 23 217 l 2
 23 230 28 235 39 235 c 2
EndSplineSet
EndChar

StartChar: colon
Encoding: 58 58 56
Width: 320
VWidth: 0
Flags: W
HStem: -14 104<122.515 207.485> 256 104<122.515 207.485>
VStem: 113 104<-4.48471 80.4847 265.515 350.485>
LayerCount: 3
Fore
SplineSet
113 38 m 0
 113 67 136 90 165 90 c 0
 194 90 217 67 217 38 c 0
 217 9 194 -14 165 -14 c 0
 136 -14 113 9 113 38 c 0
113 308 m 0
 113 337 136 360 165 360 c 0
 194 360 217 337 217 308 c 0
 217 279 194 256 165 256 c 0
 136 256 113 279 113 308 c 0
EndSplineSet
EndChar

StartChar: semicolon
Encoding: 59 59 57
Width: 328
VWidth: 0
Flags: W
HStem: 6 95<121.195 195.838> 256 104<121.515 206.485>
VStem: 112 104<265.515 350.485> 197 52<-72.9509 38.5>
LayerCount: 3
Fore
SplineSet
112 308 m 0xe0
 112 337 135 360 164 360 c 0
 193 360 216 337 216 308 c 0
 216 279 193 256 164 256 c 0
 135 256 112 279 112 308 c 0xe0
249 7 m 0xd0
 249 -55 218 -91 191 -120 c 0
 161 -153 141 -155 138 -155 c 0
 131 -155 127 -150 125 -143 c 0
 122 -134 127 -128 135 -121 c 0
 172 -92 197 -51 197 -23 c 0
 197 -4 186 6 158 6 c 0
 124 6 108 27 108 48 c 0
 108 73 132 101 173 101 c 0
 211 101 249 70 249 7 c 0xd0
EndSplineSet
EndChar

StartChar: exclam
Encoding: 33 33 58
Width: 324
VWidth: 0
Flags: W
HStem: -15 96<122.332 201.668> 620 20G<143.5 189.5>
VStem: 114 96<-6.66797 72.668> 117 102<439.982 638.829> 140 38<185.07 426.809>
LayerCount: 3
Fore
SplineSet
114 33 m 0xe0
 114 59 136 81 162 81 c 0
 188 81 210 59 210 33 c 0
 210 7 188 -15 162 -15 c 0
 136 -15 114 7 114 33 c 0xe0
157 185 m 0
 142 185 142 194 140 247 c 0xc8
 121 618 117 608 117 619 c 0xd0
 117 635 126 640 161 640 c 2
 178 640 l 2xc8
 201 640 219 638 219 620 c 0xd0
 219 606 202 500 178 247 c 0xc8
 172 190 170 185 157 185 c 0
EndSplineSet
EndChar

StartChar: question
Encoding: 63 63 59
Width: 352
VWidth: 0
Flags: W
HStem: -16 90<80.301 155.699> 237 68<138 270.125> 526 80<105.732 234.43> 619 20G<86.5 94>
VStem: 73 90<-8.69897 66.699> 103 33<119.718 223.878> 284 29<326.801 464.182>
LayerCount: 3
Fore
SplineSet
73 29 m 0xfa
 73 53 94 74 118 74 c 0
 142 74 163 53 163 29 c 0
 163 5 142 -16 118 -16 c 0
 94 -16 73 5 73 29 c 0xfa
95 526 m 2
 82 526 75 547 75 598 c 0
 75 628 83 639 90 639 c 0
 98 639 105 628 113 619 c 0
 123 607 122 606 136 606 c 0
 191 606 249 601 283 526 c 0
 299 492 313 445 313 380 c 0
 313 289 291 244 246 237 c 0
 146 223 138 228 136 206 c 0
 129.458831508 134.047146584 125 119 117 119 c 0
 105 119 103 148 103 149 c 0xf6
 102 218 95 257 95 286 c 0
 95 297 99 305 115 305 c 2
 209 305 l 2
 272 305 284 332 284 390 c 2
 284 398 l 2
 284 432 278 526 149 526 c 2
 95 526 l 2
EndSplineSet
EndChar

StartChar: parenleft
Encoding: 40 40 60
Width: 338
VWidth: 0
Flags: W
VStem: 45 67<64.1188 344.225>
LayerCount: 3
Fore
SplineSet
293 -211 m 0
 293 -213 279 -232 267 -232 c 0
 263 -232 255 -227 241 -212 c 0
 51 -6 45 125 45 209 c 0
 45 420 199 601 262 664 c 0
 268 670 274 673 277 673 c 0
 281 673 298 656 298 648 c 0
 298 641 287.974697301 635.022361229 265 609 c 0
 167 498 112 359 112 210 c 0
 112 90 157 -61 271 -185 c 0
 284.886759804 -200.104896628 293 -206 293 -211 c 0
EndSplineSet
Layer: 2
SplineSet
305 -210 m 4
 305 -212 291 -226 279 -226 c 4
 275 -226 267 -221 253 -206 c 4
 63 0 37 131 37 215 c 4
 37 426 211 607 274 670 c 4
 280 676 286 679 289 679 c 4
 293 679 310 667 310 659 c 4
 310 652 300 646 277 620 c 4
 179 509 119 365 119 216 c 4
 119 96 169 -60 283 -184 c 4
 297 -199 305 -205 305 -210 c 4
EndSplineSet
EndChar

StartChar: parenright
Encoding: 41 41 61
Width: 338
VWidth: 0
Flags: W
VStem: 231 67<64.1188 344.225>
LayerCount: 3
Fore
SplineSet
50 -211 m 0
 50 -206 58.1132401964 -200.104896628 72 -185 c 0
 186 -61 231 90 231 210 c 0
 231 359 176 498 78 609 c 0
 55.0253026989 635.022361229 45 641 45 648 c 0
 45 656 62 673 66 673 c 0
 69 673 75 670 81 664 c 0
 144 601 298 420 298 209 c 0
 298 125 292 -6 102 -212 c 0
 88 -227 80 -232 76 -232 c 0
 64 -232 50 -213 50 -211 c 0
EndSplineSet
EndChar

StartChar: bracketleft
Encoding: 91 91 62
Width: 295
VWidth: 0
Flags: HW
HStem: -216 38<134 284.994> 625 38<134 284.994>
VStem: 70 64<-184.003 631.003>
AnchorPoint: "l;hi2" 0 670 basechar 0
AnchorPoint: "l;bl" 0 10 basechar 0
AnchorPoint: "l;lo" 0 -200 basechar 0
AnchorPoint: "l;o" 0 200 basechar 0
AnchorPoint: "l;hi" 0 610 basechar 0
AnchorPoint: "l;x" 0 385 basechar 0
AnchorPoint: "r;hi2" 295 670 basechar 0
AnchorPoint: "r;bl" 255 10 basechar 0
AnchorPoint: "r;lo" 295 -200 basechar 0
AnchorPoint: "r;o" 255 200 basechar 0
AnchorPoint: "r;hi" 295 610 basechar 0
AnchorPoint: "r;x" 255 385 basechar 0
LayerCount: 3
Fore
SplineSet
134 -172 m 2
 134 -188 139 -184 154 -184 c 0
 180 -184 231 -180 266 -178 c 0
 274 -178 285 -179 285 -191 c 2
 285 -199 l 2
 285 -207 283 -216 275 -216 c 0
 224 -215 163 -214 117 -214 c 0
 88 -214 70 -211 70 -201 c 2
 70 648 l 2
 70 658 88 661 117 661 c 0
 163 661 224 662 275 663 c 0
 283 663 285 654 285 646 c 2
 285 638 l 2
 285 626 274 625 266 625 c 0
 231 627 180 631 154 631 c 0
 139 631 134 635 134 619 c 2
 134 -172 l 2
EndSplineSet
EndChar

StartChar: bracketright
Encoding: 93 93 63
Width: 295
VWidth: 0
Flags: HW
HStem: -216 38<10.006 161> 625 38<10.006 161>
VStem: 161 64<-183.9 630.9>
AnchorPoint: "l;x" 40 385 basechar 0
AnchorPoint: "l;hi" 0 610 basechar 0
AnchorPoint: "l;o" 40 200 basechar 0
AnchorPoint: "l;lo" 0 -200 basechar 0
AnchorPoint: "l;bl" 40 10 basechar 0
AnchorPoint: "l;hi2" 0 670 basechar 0
AnchorPoint: "r;x" 295 385 basechar 0
AnchorPoint: "r;hi" 295 610 basechar 0
AnchorPoint: "r;o" 295 200 basechar 0
AnchorPoint: "r;lo" 295 -200 basechar 0
AnchorPoint: "r;bl" 295 10 basechar 0
AnchorPoint: "r;hi2" 295 670 basechar 0
LayerCount: 3
Fore
SplineSet
161 -172 m 2
 161 619 l 2
 161 635 156 631 141 631 c 0
 115 631 64 627 29 625 c 0
 21 625 10 626 10 638 c 2
 10 646 l 2
 10 654 12 663 20 663 c 0
 71 662 132 661 178 661 c 0
 207 661 225 658 225 648 c 2
 225 -201 l 2
 225 -211 207 -214 178 -214 c 0
 132 -214 71 -215 20 -216 c 0
 12 -216 10 -207 10 -199 c 2
 10 -191 l 2
 10 -179 21 -178 29 -178 c 0
 64 -180 115 -184 141 -184 c 0
 156 -184 161 -188 161 -172 c 2
EndSplineSet
EndChar

StartChar: quoteleft
Encoding: 8216 8216 64
Width: 244
VWidth: 0
Flags: W
HStem: 398 95<105.162 179.805> 634 20G<161.5 166.5>
VStem: 52 52<460.5 571.951>
LayerCount: 3
Fore
SplineSet
52 492 m 0
 52 554 83 590 110 619 c 0
 140 652 160 654 163 654 c 0
 170 654 174 649 176 642 c 0
 179 633 174 627 166 620 c 0
 129 591 104 550 104 522 c 0
 104 503 115 493 143 493 c 0
 177 493 193 472 193 451 c 0
 193 426 169 398 128 398 c 0
 90 398 52 429 52 492 c 0
EndSplineSet
EndChar

StartChar: quoteright
Encoding: 8217 8217 65
Width: 244
VWidth: 0
Flags: W
HStem: 398 21G<78.5 83.5> 559 95<65.1951 139.838>
VStem: 141 52<480.049 591.5>
LayerCount: 3
Fore
SplineSet
193 560 m 0
 193 498 162 462 135 433 c 0
 105 400 85 398 82 398 c 0
 75 398 71 403 69 410 c 0
 66 419 71 425 79 432 c 0
 116 461 141 502 141 530 c 0
 141 549 130 559 102 559 c 0
 68 559 52 580 52 601 c 0
 52 626 76 654 117 654 c 0
 155 654 193 623 193 560 c 0
EndSplineSet
EndChar

StartChar: ampersand
Encoding: 38 38 66
Width: 660
VWidth: 0
Flags: W
HStem: -9 47<530.876 615.131> 0 61<182.788 278.74> 358 20G<414.5 603.5> 605 31<186.685 277.492>
VStem: 24 72<141.327 252.214> 104 54<478.039 574.87> 309 46<466.285 580.348>
DStem2: 226 420 159 377 0.660301 -0.751001<-115.648 -11.9471 30.3883 275.36 323.892 519.343> 363 148 381 125 0.584739 0.811222<-95.7759 -8.13281 83.2305 219.046>
LayerCount: 3
Fore
SplineSet
355 535 m 0x7e
 355 453 287 422 247 398 c 1
 411 216 l 1
 438 253 l 2
 471 299 482 317 482 333 c 0
 482 344 474 351 464 355 c 0
 443 363 413 356 413 370 c 0
 413 373 414 376 415 378 c 1
 603 378 l 1
 604 376 605 373 605 370 c 0
 605 357 585.011352311 362.968340111 560 354 c 0
 546.006351526 348.982286549 538 339 523 322 c 0
 493 287 457 232 429 195 c 1
 463 148 513 38 582 38 c 0
 609 38 622 56 629 56 c 0
 637 56 643 48 643 42 c 0
 643 36 608 -9 546 -9 c 0xbe
 434 -9 402 94 381 125 c 1
 338 73 290 0 207 0 c 0
 109 0 24 75 24 174 c 0
 24 247 83.0889706993 314.890976027 126 350 c 2
 159 377 l 1
 131 412 104 445 104 496 c 0
 104 573 155 636 235 636 c 0
 303 636 355 594 355 535 c 0x7e
234 605 m 0
 194 605 158 577 158 535 c 0
 158 489 226 420 226 420 c 1
 226 420 245 430 259 440 c 0
 287 461 309 485 309 530 c 0
 309 553 287 605 234 605 c 0
250 61 m 0x7e
 307 61 363 148 363 148 c 1
 181 355 l 1
 181 355 96 306 96 204 c 0
 96 128 190 61 250 61 c 0x7e
EndSplineSet
Layer: 2
SplineSet
250 61 m 4x7e
 307 61 363 148 363 148 c 5
 181 355 l 5
 181 355 96 306 96 204 c 4
 96 128 190 61 250 61 c 4x7e
234 603 m 4
 197 603 158 577 158 535 c 4
 158 489 226 420 226 420 c 5
 226 420 245 430 259 440 c 4
 287 461 309 485 309 530 c 4
 309 553 284 603 234 603 c 4
355 535 m 4
 355 452.8 286.718241318 421.830944791 247 398 c 5
 411 216 l 5
 438 253 l 6
 471 299 482 317 482 333 c 4
 482 344 474 351 464 355 c 4
 443 363 413 356 413 370 c 4
 413 373 414 376 415 378 c 5
 603 378 l 5
 604 376 605 373 605 370 c 4
 605 357 585 363 560 354 c 4
 546 349 538 339 523 322 c 4
 493 287 457 232 429 195 c 5
 463 148 513 38 582 38 c 4
 609 38 622 56 629 56 c 4
 637 56 643 48 643 42 c 4
 643 36 608 -9 546 -9 c 4xbe
 434 -9 402 94 381 125 c 5
 338 73 290 0 207 0 c 4
 109 0 24 75 24 174 c 4
 24 247 83 315 126 350 c 6
 159 377 l 5
 131 412 104 445 104 496 c 4
 104 573 156 634 235 634 c 4
 300 634 355 594 355 535 c 4
EndSplineSet
AlternateSubs2: "'aalt' Access All Alternates lookup 0 subtable" ampersand.c2
AlternateSubs2: "'aalt' Access All Alternates in Latin lookup 0 subtable" ampersand.c2
Substitution2: "'c2sc' Capitals to Small Capitals in Latin lookup 4 subtable" ampersand.c2
EndChar

StartChar: braceleft
Encoding: 123 123 67
Width: 295
Flags: HW
HStem: -214 27<217.288 281.994> 634 27<216.826 281.994>
VStem: 43 59<214.085 231.88> 124 64<-167.262 182.191 261.033 615.053>
AnchorPoint: "r;x" 255 385 basechar 0
AnchorPoint: "r;hi" 295 610 basechar 0
AnchorPoint: "r;o" 255 200 basechar 0
AnchorPoint: "r;lo" 295 -200 basechar 0
AnchorPoint: "r;bl" 255 10 basechar 0
AnchorPoint: "r;hi2" 295 670 basechar 0
AnchorPoint: "l;x" 0 385 basechar 0
AnchorPoint: "l;hi" 60 610 basechar 0
AnchorPoint: "l;o" 0 200 basechar 0
AnchorPoint: "l;lo" 60 -200 basechar 0
AnchorPoint: "l;bl" 20 10 basechar 0
AnchorPoint: "l;hi2" 60 670 basechar 0
LayerCount: 3
Fore
SplineSet
124 74 m 2
 124 248 43 192 43 223 c 0
 43 232 47 232 53 234 c 0
 75 240 124 237 124 368 c 2
 124 454 l 2
 124 563 127 604 160 633 c 0
 180 650 220 661 250 661 c 0
 281 661 282 661 282 647 c 0
 282 633 274 635 263 634 c 0
 236 631 188 633 188 537 c 2
 188 397 l 2
 188 289 181 249 118 230 c 0
 107 227 102 226 102 223 c 0
 102 220 107 220 118 216 c 0
 181 195 188 153 188 45 c 2
 188 -90 l 2
 188 -186 236 -184 263 -187 c 0
 274 -188 282 -186 282 -200 c 0
 282 -214 281 -214 250 -214 c 0
 201 -214 161 -189 150 -176 c 0
 126 -146 124 -106 124 -11 c 2
 124 74 l 2
EndSplineSet
EndChar

StartChar: g.ld
Encoding: 65537 -1 96
Width: 447
VWidth: 0
Flags: HW
HStem: -278 54<104.171 274.973> -62 75<97.0973 338.366> 97 21<166.275 235.052> 368 37<334.151 407.5> 379 25<165.071 239.246>
VStem: 18 53<-224.642 -124.711> 35 81<163.348 317.91> 36 57<-9 64.8439> 283 79<168.434 329.259> 357 41<-171.018 -81.1273>
AnchorPoint: "r;lo" 407 -200 basechar 0
AnchorPoint: "r;o" 417 200 basechar 0
AnchorPoint: "r;x" 447 385 basechar 0
AnchorPoint: "r;bl" 427 10 basechar 0
AnchorPoint: "l;lo" 0 -200 basechar 0
AnchorPoint: "l;o" 0 200 basechar 0
AnchorPoint: "l;x" 0 385 basechar 0
AnchorPoint: "l;bl" 0 10 basechar 0
AnchorPoint: "top" 202 500 basechar 0
LayerCount: 3
Back
SplineSet
196 -224 m 4xe440
 259 -224 357 -204 357 -134 c 4
 357 -65 308 -62 243 -62 c 6
 163 -62 l 6
 152 -62 151 -62 122 -61 c 5
 71 -99 71 -136 71 -148 c 4
 71 -202 133 -224 196 -224 c 4xe440
203 379 m 4xea80
 144 379 116 313 116 249 c 4
 116 184 145 118 202 118 c 4
 258 118 283 183 283 248 c 4
 283 313 258 379 203 379 c 4xea80
211 13 m 6
 310 13 398 3 398 -96 c 4
 398 -130 389 -157 370 -184 c 4
 327 -244 254 -278 146 -278 c 4
 75 -278 18 -255 18 -193 c 4xf440
 18 -134 75 -76 95 -58 c 5
 59 -52 36 -25 36 7 c 4xf1
 36 64 106 115 106 115 c 5
 76 130 35 174 35 243 c 4
 35 327 110 404 204 404 c 4xea
 249 404 285 390 310 367 c 5
 336 393 366 405 393 405 c 4
 422 405 442 389 442 365 c 4
 442 347 428 332 410 332 c 4
 385 332 372 368 347 368 c 4
 339 368 332 363 325 352 c 5
 349 323 362 285 362 247 c 4
 362 170 309 97 200 97 c 4
 173 97 155 100 144 102 c 4
 135 104 129 106 125 106 c 4
 115 106 93 71 93 55 c 4xf180
 93 15 123 13 163 13 c 6
 211 13 l 6
EndSplineSet
Fore
SplineSet
196 -224 m 0xe440
 259 -224 357 -204 357 -134 c 0
 357 -65 308 -62 243 -62 c 2
 163 -62 l 2
 152 -62 151 -62 122 -61 c 1
 71 -99 71 -136 71 -148 c 0
 71 -202 133 -224 196 -224 c 0xe440
203 379 m 0xea80
 144 379 116 313 116 249 c 0
 116 184 145 118 202 118 c 0
 258 118 283 183 283 248 c 0
 283 313 258 379 203 379 c 0xea80
347 368 m 0xf2
 339 368 332 363 325 352 c 1
 349 323 362 285 362 247 c 0
 362 170 309 97 200 97 c 0
 173 97 155 100 144 102 c 0
 135 104 129 106 125 106 c 0
 115 106 93 71 93 55 c 0xf180
 93 15 123 13 163 13 c 2
 211 13 l 2
 310 13 398 3 398 -96 c 0
 398 -130 389 -157 370 -184 c 0
 327 -244 254 -278 146 -278 c 0
 75 -278 18 -255 18 -193 c 0xf440
 18 -134 75 -76 95 -58 c 1
 59 -52 36 -25 36 7 c 0xf1
 36 64 106 115 106 115 c 1
 76 130 35 174 35 243 c 0
 35 327 110 404 204 404 c 0xea
 249 404 285 390 310 367 c 1
 336 393 366 405 393 405 c 0
 422 405 442 389 442 365 c 0
 442 347 428 332 410 332 c 0
 395 332 384 345 371 357 c 0
 363 364 355 368 347 368 c 0xf2
EndSplineSet
Layer: 2
SplineSet
93 55 m 4xf180
 93 11 129 9 174 9 c 6
 191 9 l 6
 274 9 339 9 373 -29 c 4
 388 -46 398 -69 398 -96 c 4
 398 -211 256 -281 147 -281 c 4
 75 -281 18 -256 18 -193 c 4xf440
 18 -134 75 -74 95 -56 c 5
 59 -50 36 -25 36 7 c 4xf1
 36 64 106 115 106 115 c 5
 76 130 35 174 35 243 c 4
 35 327 110 404 204 404 c 4xea
 249 404 285 390 310 367 c 5
 336 393 366 405 393 405 c 4
 422 405 442 389 442 365 c 4
 442 347 428 332 410 332 c 4
 385 332 372 368 347 368 c 4
 339 368 332 363 325 352 c 5
 349 323 362 285 362 247 c 4
 362 170 309 97 200 97 c 4
 173 97 155 100 144 102 c 4
 135 104 129 106 125 106 c 4
 115 106 93 71 93 55 c 4xf180
201 379 m 4xea80
 142 379 116 313 116 249 c 4
 116 184 143 118 200 118 c 4
 256 118 281 183 281 248 c 4
 281 313 256 379 201 379 c 4xea80
192 -224 m 4
 291 -224 357 -188 357 -133 c 4
 357 -99 325 -84 320 -80 c 4
 294 -64 250 -60 163 -60 c 4
 152 -60 151 -60 122 -59 c 5
 71 -97 71 -136 71 -148 c 4xe440
 71 -178 88 -224 192 -224 c 4
EndSplineSet
AlternateSubs2: "'aalt' Access All Alternates lookup 0 subtable" g.sc
AlternateSubs2: "'aalt' Access All Alternates in Latin lookup 0 subtable" g.sc
Substitution2: "'smcp' Lowercase to Small Capitals in Latin lookup 3 subtable" g.sc
EndChar

StartChar: p.ld
Encoding: 65539 -1 98
Width: 471
VWidth: 0
Flags: HW
HStem: -270 21G<16.5 224.5> -13 29<197.98 292.568> 363 41<204.195 301.507> 392 20G<88 143.5>
VStem: 77 77<-245.761 12 49.6366 334.742> 362 84<102.097 293.237>
AnchorPoint: "top" 259 500 basechar 0
AnchorPoint: "r;o" 471 200 basechar 0
AnchorPoint: "r;x" 451 385 basechar 0
AnchorPoint: "r;bl" 451 10 basechar 0
AnchorPoint: "l;lo" 0 -200 basechar 0
AnchorPoint: "l;o" 0 200 basechar 0
AnchorPoint: "l;x" 0 385 basechar 0
AnchorPoint: "l;bl" 0 10 basechar 0
LayerCount: 3
Fore
SplineSet
242 363 m 0xec
 193 363 152 319 152 291 c 2
 152 112 l 2
 152 69 189 16 243 16 c 0
 324 16 362 103 362 190 c 0
 362 277 324 363 242 363 c 0xec
154 12 m 1
 154 -208 l 2
 154 -230 161 -241 173 -246 c 0
 194 -255 226 -248 226 -262 c 0
 226 -265 225 -268 224 -270 c 1
 17 -270 l 1
 16 -268 15 -265 15 -262 c 0
 15 -240 77 -272 77 -208 c 2
 77 298 l 2
 77 369 16 330 16 355 c 0
 16 386 34 355 142 412 c 1xdc
 145 412 150 410 151 406 c 1
 150 400 148 388 146 340 c 1
 166 357 209 404 282 404 c 0
 393 404 446 303 446 201 c 0
 446 94 377 -13 246 -13 c 0
 203 -13 154 12 154 12 c 1
EndSplineSet
Layer: 2
SplineSet
154 -208 m 2xec
 154 -230 161 -241 173 -246 c 0
 194 -255 226 -248 226 -262 c 0
 226 -265 225 -268 224 -270 c 1
 17 -270 l 1
 16 -268 15 -265 15 -262 c 0
 15 -240 77 -272 77 -208 c 2
 77 298 l 2
 77 369 16 330 16 355 c 0
 16 376.9375 25.515625 366.323242188 69 379.5078125 c 4
 86.962890625 384.954101562 110.721679688 394.4609375 142 412 c 1xdc
 145 412 150 410 151 406 c 1
 150 400 148 388 146 340 c 1
 155 349 209 404 282 404 c 0
 393 404 446 303 446 201 c 0
 446 94 377 -13 246 -13 c 0
 219 -13 180 -4 154 12 c 1
 154 -208 l 2xec
242 363 m 0xec
 193 363 152 319 152 291 c 2
 152 112 l 2
 152 69 189 16 243 16 c 0
 324 16 362 103 362 190 c 0
 362 277 324 363 242 363 c 0xec
EndSplineSet
AlternateSubs2: "'aalt' Access All Alternates lookup 0 subtable" p.sc
AlternateSubs2: "'aalt' Access All Alternates in Latin lookup 0 subtable" p.sc
Substitution2: "'smcp' Lowercase to Small Capitals in Latin lookup 3 subtable" p.sc
EndChar

StartChar: q.ld
Encoding: 65540 -1 99
Width: 475
VWidth: 0
Flags: HW
HStem: -270 21G<250.5 458.5> -13 34<186.515 320.945> 380 24<171.72 277.121>
VStem: 25 84<99.4641 285.797> 323 75<-245.761 4 26.4627 352.293>
AnchorPoint: "r;o" 455 200 basechar 0
AnchorPoint: "r;x" 455 385 basechar 0
AnchorPoint: "r;bl" 455 10 basechar 0
AnchorPoint: "r;lo" 475 -200 basechar 0
AnchorPoint: "l;o" 0 200 basechar 0
AnchorPoint: "l;x" 20 385 basechar 0
AnchorPoint: "l;bl" 20 10 basechar 0
LayerCount: 3
Fore
SplineSet
258 21 m 0
 276 21 323 28 323 37 c 2
 323 301 l 2
 323 354 273 380 218 380 c 0
 203 380 190 377 179 372 c 0
 138 354 109 305 109 209 c 0
 109 96 157 21 258 21 c 0
398 179 m 2
 398 -208 l 2
 398 -272 460 -240 460 -262 c 0
 460 -265 459 -268 458 -270 c 1
 251 -270 l 1
 250 -268 249 -265 249 -262 c 0
 249 -248 281 -255 302 -246 c 0
 314 -241 321 -230 321 -208 c 2
 321 4 l 1
 321 4 246 -13 204 -13 c 0
 86 -13 25 86 25 184 c 0
 25 265 59 329 117 368 c 0
 147 388 186 404 231 404 c 0
 291 404 329 381 361 381 c 0
 370 381 375 388 385 398 c 0
 387 401 389 404 394 404 c 0
 402 404 400 397 400 390 c 0
 398 343 398 298 398 179 c 2
EndSplineSet
Layer: 2
SplineSet
398 179 m 6
 398 -208 l 6
 398 -272 460 -240 460 -262 c 4
 460 -265 459 -268 458 -270 c 5
 251 -270 l 5
 250 -268 249 -265 249 -262 c 4
 249 -248 281 -255 302 -246 c 4
 314 -241 321 -230 321 -208 c 6
 321 12 l 5
 321 12 267 -14 216 -14 c 4
 87 -14 25 82 25 184 c 4
 25 257 51 319 106 360 c 4
 138 384 179 404 231 404 c 4
 280 404 324 394 346 385 c 4
 352 382 357 381 361 381 c 4
 370 381 375 388 385 398 c 4
 387 401 389 404 394 404 c 4
 402 404 400 397 400 390 c 4
 398 343 398 298 398 179 c 6
323 301 m 6
 323 353 275 379 226 379 c 4
 162 379 109 338 109 209 c 4
 109 120 136 75 169 50 c 4
 194 31 224 21 249 21 c 4
 282 21 323 34 323 53 c 6
 323 301 l 6
EndSplineSet
AlternateSubs2: "'aalt' Access All Alternates lookup 0 subtable" q.sc
AlternateSubs2: "'aalt' Access All Alternates in Latin lookup 0 subtable" q.sc
Substitution2: "'smcp' Lowercase to Small Capitals in Latin lookup 3 subtable" q.sc
EndChar

StartChar: y.ld
Encoding: 65541 -1 100
Width: 495
VWidth: 0
Flags: HW
HStem: -282 81<40.7245 111.352> 373 20G<16.5 216.5 309.5 478.5>
VStem: 376 104<337 386.5>
AnchorPoint: "l;k;lo" 0 -200 basechar 0
AnchorPoint: "r;bl" 395 10 basechar 0
AnchorPoint: "r;x" 495 385 basechar 0
AnchorPoint: "r;o" 445 200 basechar 0
AnchorPoint: "l;bl" 30 10 basechar 0
AnchorPoint: "l;x" 0 385 basechar 0
AnchorPoint: "l;o" 10 200 basechar 0
AnchorPoint: "top" 256 500 basechar 0
LayerCount: 3
Fore
SplineSet
64 -282 m 0
 31 -282 13 -257 13 -233 c 0
 13 -208 31 -184 59 -184 c 0
 89 -184 94 -201 107 -201 c 0
 118 -201 207 -22 207 -6 c 0
 207 15 197.041992188 19.0166015625 106 248 c 0
 73 331 70 341 64 350 c 0
 41 388 15 363 15 385 c 0
 15 388 16 391 17 393 c 1
 216 393 l 1
 217 391 218 388 218 385 c 0
 218 371 200 377 178 371 c 0
 169 368 161 364 161 356 c 0
 161 334 191 236 237 126 c 0
 248 98 252 84 256 84 c 0
 260 84 264.866210938 98.0673828125 279 126 c 0
 342.401367188 251.302734375 376 327 376 347 c 0
 376 356 373 367 361 370 c 0
 339 377 308 370 308 385 c 0
 308 388 309 391 310 393 c 1
 478 393 l 1
 479 391 480 388 480 385 c 0
 480 369 460.045898438 380.9296875 440 368 c 0
 415.056640625 351.912109375 338.123046875 178.963867188 208 -85 c 0
 173 -156 151 -202 133 -231 c 0
 113 -265 92 -282 64 -282 c 0
EndSplineSet
Layer: 2
SplineSet
208 -85 m 4
 173 -156 151 -202 133 -231 c 4
 112 -267 97 -282 61 -282 c 4
 31 -282 13 -256 13 -233 c 4
 13 -208 31 -184 59 -184 c 4
 89 -184 94 -201 107 -201 c 4
 125 -201 207 -22 207 -6 c 4
 207 15 197 19 106 248 c 4
 73 331 70 341 64 350 c 4
 41 388 15 363 15 385 c 4
 15 388 16 391 17 393 c 5
 216 393 l 5
 217 391 218 388 218 385 c 4
 218 371 200 377 178 371 c 4
 169 368 161 364 161 356 c 4
 161 334 191 236 237 126 c 4
 248 98 252 84 256 84 c 4
 260 84 265 98 279 126 c 4
 343 251 376 327 376 347 c 4
 376 356 373 367 361 370 c 4
 339 377 308 370 308 385 c 4
 308 388 309 391 310 393 c 5
 478 393 l 5
 479 391 480 388 480 385 c 4
 480 369 460 381 440 368 c 4
 415 352 336 180 208 -85 c 4
EndSplineSet
AlternateSubs2: "'aalt' Access All Alternates lookup 0 subtable" y.sc
AlternateSubs2: "'aalt' Access All Alternates in Latin lookup 0 subtable" y.sc
Substitution2: "'smcp' Lowercase to Small Capitals in Latin lookup 3 subtable" y.sc
EndChar

StartChar: quotesinglbase
Encoding: 8218 8218 101
Width: 306
VWidth: 0
Flags: W
HStem: 6 95<95.1951 169.838>
VStem: 171 52<-72.9509 38.5>
LayerCount: 3
Fore
SplineSet
223 7 m 0
 223 -55 192 -91 165 -120 c 0
 135 -153 115 -155 112 -155 c 0
 105 -155 101 -150 99 -143 c 0
 96 -134 101 -128 109 -121 c 0
 146 -92 171 -51 171 -23 c 0
 171 -4 160 6 132 6 c 0
 98 6 82 27 82 48 c 0
 82 73 106 101 147 101 c 0
 185 101 223 70 223 7 c 0
EndSplineSet
EndChar

StartChar: quotereversed
Encoding: 8219 8219 102
Width: 244
VWidth: 0
Flags: W
HStem: 398 21G<161.5 166.5> 559 95<105.162 179.805>
VStem: 52 52<480.049 591.5>
LayerCount: 3
Fore
SplineSet
52 560 m 0
 52 623 90 654 128 654 c 0
 169 654 193 626 193 601 c 0
 193 580 177 559 143 559 c 0
 115 559 104 549 104 530 c 0
 104 502 129 461 166 432 c 0
 174 425 179 419 176 410 c 0
 174 403 170 398 163 398 c 0
 160 398 140 400 110 433 c 0
 83 462 52 498 52 560 c 0
EndSplineSet
EndChar

StartChar: quotedblleft
Encoding: 8220 8220 103
Width: 426
VWidth: 0
Flags: W
HStem: 398 95<105.162 179.805 300.162 374.805> 634 20G<161.5 166.5 356.5 361.5>
VStem: 52 52<460.5 571.951> 247 52<460.5 571.951>
LayerCount: 3
Fore
SplineSet
52 492 m 0
 52 554 83 590 110 619 c 0
 140 652 160 654 163 654 c 0
 170 654 174 649 176 642 c 0
 179 633 174 627 166 620 c 0
 129 591 104 550 104 522 c 0
 104 503 115 493 143 493 c 0
 177 493 193 472 193 451 c 0
 193 426 169 398 128 398 c 0
 90 398 52 429 52 492 c 0
247 492 m 0
 247 554 278 590 305 619 c 0
 335 652 355 654 358 654 c 0
 365 654 369 649 371 642 c 0
 374 633 369 627 361 620 c 0
 324 591 299 550 299 522 c 0
 299 503 310 493 338 493 c 0
 372 493 388 472 388 451 c 0
 388 426 364 398 323 398 c 0
 285 398 247 429 247 492 c 0
EndSplineSet
EndChar

StartChar: quotedblright
Encoding: 8221 8221 104
Width: 420
VWidth: 0
Flags: W
HStem: 398 21G<78.5 83.5 273.5 278.5> 559 95<65.1951 139.838 260.195 334.838>
VStem: 141 52<480.049 591.5> 336 52<480.049 591.5>
LayerCount: 3
Fore
SplineSet
388 560 m 0
 388 498 357 462 330 433 c 0
 300 400 280 398 277 398 c 0
 270 398 266 403 264 410 c 0
 261 419 266 425 274 432 c 0
 311 461 336 502 336 530 c 0
 336 549 325 559 297 559 c 0
 263 559 247 580 247 601 c 0
 247 626 271 654 312 654 c 0
 350 654 388 623 388 560 c 0
193 560 m 0
 193 498 162 462 135 433 c 0
 105 400 85 398 82 398 c 0
 75 398 71 403 69 410 c 0
 66 419 71 425 79 432 c 0
 116 461 141 502 141 530 c 0
 141 549 130 559 102 559 c 0
 68 559 52 580 52 601 c 0
 52 626 76 654 117 654 c 0
 155 654 193 623 193 560 c 0
EndSplineSet
EndChar

StartChar: quotedblbase
Encoding: 8222 8222 105
Width: 420
VWidth: 0
Flags: W
HStem: 6 95<65.1951 139.838 260.195 334.838>
VStem: 141 52<-72.9509 38.5> 336 52<-72.9509 38.5>
LayerCount: 3
Fore
SplineSet
388 7 m 0
 388 -55 357 -91 330 -120 c 0
 300 -153 280 -155 277 -155 c 0
 270 -155 266 -150 264 -143 c 0
 261 -134 266 -128 274 -121 c 0
 311 -92 336 -51 336 -23 c 0
 336 -4 325 6 297 6 c 0
 263 6 247 27 247 48 c 0
 247 73 271 101 312 101 c 0
 350 101 388 70 388 7 c 0
193 7 m 0
 193 -55 162 -91 135 -120 c 0
 105 -153 85 -155 82 -155 c 0
 75 -155 71 -150 69 -143 c 0
 66 -134 71 -128 79 -121 c 0
 116 -92 141 -51 141 -23 c 0
 141 -4 130 6 102 6 c 0
 68 6 52 27 52 48 c 0
 52 73 76 101 117 101 c 0
 155 101 193 70 193 7 c 0
EndSplineSet
EndChar

StartChar: uni201F
Encoding: 8223 8223 106
Width: 420
VWidth: 0
Flags: W
HStem: 398 21G<161.5 166.5 356.5 361.5> 559 95<105.162 179.805 300.162 374.805>
VStem: 52 52<480.049 591.5> 247 52<480.049 591.5>
LayerCount: 3
Fore
SplineSet
52 560 m 0
 52 623 90 654 128 654 c 0
 169 654 193 626 193 601 c 0
 193 580 177 559 143 559 c 0
 115 559 104 549 104 530 c 0
 104 502 129 461 166 432 c 0
 174 425 179 419 176 410 c 0
 174 403 170 398 163 398 c 0
 160 398 140 400 110 433 c 0
 83 462 52 498 52 560 c 0
247 560 m 0
 247 623 285 654 323 654 c 0
 364 654 388 626 388 601 c 0
 388 580 372 559 338 559 c 0
 310 559 299 549 299 530 c 0
 299 502 324 461 361 432 c 0
 369 425 374 419 371 410 c 0
 369 403 365 398 358 398 c 0
 355 398 335 400 305 433 c 0
 278 462 247 498 247 560 c 0
EndSplineSet
EndChar

StartChar: emdash
Encoding: 8212 8212 107
Width: 700
VWidth: 0
Flags: W
HStem: 172 53<5 694.986>
LayerCount: 3
Fore
SplineSet
21 225 m 2
 682 225 l 2
 695 225 695 217 695 208 c 2
 695 195 l 2
 695 187 693 172 682 172 c 2
 18 172 l 2
 7 172 5 177 5 191 c 2
 5 207 l 2
 5 220 10 225 21 225 c 2
EndSplineSet
EndChar

StartChar: endash
Encoding: 8211 8211 108
Width: 450
VWidth: 0
Flags: W
HStem: 172 53<5 444.986>
LayerCount: 3
Fore
SplineSet
21 225 m 2
 432 225 l 2
 445 225 445 217 445 208 c 2
 445 195 l 2
 445 187 443 172 432 172 c 2
 18 172 l 2
 7 172 5 177 5 191 c 2
 5 207 l 2
 5 220 10 225 21 225 c 2
EndSplineSet
EndChar

StartChar: afii00208
Encoding: 8213 8213 109
Width: 700
VWidth: 0
Flags: W
HStem: 172 53<5 694.986>
LayerCount: 3
Fore
SplineSet
21 225 m 2
 682 225 l 2
 695 225 695 217 695 208 c 2
 695 195 l 2
 695 187 693 172 682 172 c 2
 18 172 l 2
 7 172 5 177 5 191 c 2
 5 207 l 2
 5 220 10 225 21 225 c 2
EndSplineSet
EndChar

StartChar: bullet
Encoding: 8226 8226 110
Width: 472
VWidth: 1050
Flags: W
HStem: 184 268<162.778 307.222>
VStem: 101 268<246.483 390.222>
LayerCount: 3
Fore
SplineSet
101 318 m 0
 101 392 161 452 235 452 c 0
 309 452 369 393 369 319 c 0
 369 245 309 184 235 184 c 0
 161 184 101 244 101 318 c 0
EndSplineSet
EndChar

StartChar: daggerdbl
Encoding: 8225 8225 111
Width: 562
VWidth: 0
Flags: W
HStem: -220 21G<268.5 314> 40 89<97.2002 228.435 356.069 487.343> 324 89<82.2002 225.873 350.405 482.343> 624 20G<267.5 317>
VStem: 247 91<-219.629 19.9136 394.529 643.856> 256 74<101.977 346.438> 273 39<-126.511 66 384 534.324>
LayerCount: 3
Fore
SplineSet
338 -199 m 0xf8
 338 -219 324 -220 304 -220 c 2
 286 -220 l 2
 251 -220 247 -219 247 -201 c 0xf8
 247 -190 273 67 273 67 c 1
 273 67 123 40 115 40 c 0
 99 40 97 54 97 67 c 2
 97 102 l 2
 97 115 100 129 114 129 c 0
 115 129 273 99 273 99 c 1xf2
 260 159 256 196 256 228 c 0
 256 261 260 294 270 349 c 1
 270 349 110 324 100 324 c 0
 84 324 82 338 82 351 c 2
 82 386 l 2
 82 399 85 413 99 413 c 0
 100 413 270 384 270 384 c 1
 270 384 244 627 244 630 c 0
 244 643 255 644 280 644 c 2
 304 644 l 2
 330 644 340 643 340 630 c 0
 340 629 315 384 315 384 c 1
 315 384 452 412 465 412 c 0
 482 412 483 398 483 375 c 2
 483 359 l 2
 483 342 481 324 465 324 c 0
 441 324 315 349 315 349 c 1
 326 295 330 259 330 228 c 0xf4
 330 195 325 163 312 99 c 1
 312 99 460 128 470 128 c 0
 487 128 488 115 488 92 c 2
 488 75 l 2
 488 58 486 39 470 39 c 0
 452 39 312 66 312 66 c 1xf2
 338 -196 338 -193 338 -199 c 0xf8
EndSplineSet
EndChar

StartChar: dagger
Encoding: 8224 8224 112
Width: 554
VWidth: 0
Flags: W
HStem: -220 21G<248.5 295.5> 324 89<62.2002 205.873 335.87 482.343> 624 20G<247.5 297>
VStem: 227 91<-219.618 45.6052 394.529 643.856> 250 45<145.646 349 384 586.72>
LayerCount: 3
Fore
SplineSet
62 351 m 2xe8
 62 386 l 2
 62 399 65 413 79 413 c 0
 80 413 250 384 250 384 c 1
 250 384 224 627 224 630 c 0
 224 643 235 644 260 644 c 2
 284 644 l 2
 310 644 320 643 320 630 c 0
 320 629 295 384 295 384 c 1
 295 384 452 412 465 412 c 0
 482 412 483 398 483 375 c 2
 483 359 l 2
 483 342 481 324 465 324 c 0
 441 324 295 349 295 349 c 1xe8
 295 349 318 -197 318 -198 c 0
 318 -218 307 -220 284 -220 c 2
 266 -220 l 2
 231 -220 227 -219 227 -201 c 0xf0
 227 -176 250 349 250 349 c 1
 250 349 90 324 80 324 c 0
 64 324 62 338 62 351 c 2xe8
EndSplineSet
EndChar

StartChar: bar
Encoding: 124 124 113
Width: 186
VWidth: 0
Flags: HW
HStem: -217 21G<89.5 96.5> 644 20G<89 96>
VStem: 70 46<-216.988 663.974>
AnchorPoint: "l;hi2" 0 670 basechar 0
AnchorPoint: "l;bl" 0 10 basechar 0
AnchorPoint: "l;lo" 0 -200 basechar 0
AnchorPoint: "l;o" 0 200 basechar 0
AnchorPoint: "l;hi" 0 610 basechar 0
AnchorPoint: "l;x" 0 385 basechar 0
AnchorPoint: "r;hi2" 186 670 basechar 0
AnchorPoint: "r;bl" 186 10 basechar 0
AnchorPoint: "r;lo" 186 -200 basechar 0
AnchorPoint: "r;o" 186 200 basechar 0
AnchorPoint: "r;hi" 186 610 basechar 0
AnchorPoint: "r;x" 186 385 basechar 0
LayerCount: 3
Fore
SplineSet
116 -214 m 1
 108 -216 100 -217 93 -217 c 0
 86 -217 78 -216 70 -214 c 1
 70 661 l 1
 79 663 86 664 92 664 c 0
 100 664 107 663 116 661 c 1
 116 -214 l 1
EndSplineSet
EndChar

StartChar: braceright
Encoding: 125 125 114
Width: 295
Flags: HW
HStem: -214 27<13.0058 77.7125> 634 27<13.0058 78.174>
VStem: 107 64<-167.262 182.191 261.033 615.053> 193 59<214.085 231.88>
AnchorPoint: "r;hi2" 235 670 basechar 0
AnchorPoint: "r;bl" 275 10 basechar 0
AnchorPoint: "r;lo" 235 -200 basechar 0
AnchorPoint: "r;o" 295 200 basechar 0
AnchorPoint: "r;hi" 235 610 basechar 0
AnchorPoint: "r;x" 295 385 basechar 0
AnchorPoint: "l;hi2" 0 670 basechar 0
AnchorPoint: "l;bl" 40 10 basechar 0
AnchorPoint: "l;lo" 0 -200 basechar 0
AnchorPoint: "l;o" 40 200 basechar 0
AnchorPoint: "l;hi" 0 610 basechar 0
AnchorPoint: "l;x" 40 385 basechar 0
LayerCount: 3
Fore
SplineSet
171 74 m 2
 171 -11 l 2
 171 -106 169 -146 145 -176 c 0
 134 -189 94 -214 45 -214 c 0
 14 -214 13 -214 13 -200 c 0
 13 -186 21 -188 32 -187 c 0
 59 -184 107 -186 107 -90 c 2
 107 45 l 2
 107 153 114 195 177 216 c 0
 188 220 193 220 193 223 c 0
 193 226 188 227 177 230 c 0
 114 249 107 289 107 397 c 2
 107 537 l 2
 107 633 59 631 32 634 c 0
 21 635 13 633 13 647 c 0
 13 661 14 661 45 661 c 0
 75 661 115 650 135 633 c 0
 168 604 171 563 171 454 c 2
 171 368 l 2
 171 237 220 240 242 234 c 0
 248 232 252 232 252 223 c 0
 252 192 171 248 171 74 c 2
EndSplineSet
EndChar

StartChar: OE
Encoding: 338 338 115
Width: 1021
VWidth: 0
Flags: HW
HStem: -22 33<306.507 463.518> 0 27<569.012 900.666> 308 21<701.069 772.181> 609 27<567.563 859.364> 622 32<299.12 445.541>
VStem: 40 109<195.728 436.303> 602 96<185.446 307.985 329 450.964> 813 21<195.003 254.875 384.055 455.997> 963 13<130.056 136.763>
AnchorPoint: "l;o" 0 200 basechar 0
AnchorPoint: "l;hi" 50 610 basechar 0
AnchorPoint: "l;x" 0 385 basechar 0
AnchorPoint: "l;bl" 50 10 basechar 0
AnchorPoint: "r;o" 1021 200 basechar 0
AnchorPoint: "r;hi" 1001 610 basechar 0
AnchorPoint: "r;x" 1001 385 basechar 0
AnchorPoint: "r;bl" 1021 10 basechar 0
LayerCount: 3
Fore
SplineSet
434 -17 m 0x7780
 415 -20 396 -22 377 -22 c 0
 207 -22 40 96 40 325 c 0
 40 468 148 654 367 654 c 0xaf80
 387 654 407 653 426 650 c 0
 519 637 482 636 576 636 c 2
 815 636 l 2
 863 636 904 640 914 640 c 0
 930 640 923 629 934 562 c 0
 938 535 943 509 943 496 c 0
 943 489 939 488 936 487 c 0
 928 484 923 494 922 495 c 0
 907 517 865 609 839 609 c 0
 755 609 671 609 587 609 c 0
 574 609 566 609 566 605 c 0
 566 602 570 597 582 588 c 0
 641 542 684 473 696 376 c 0
 702 332 698 329 720 329 c 2
 732 329 l 2
 810 329 807 411 813 447 c 0
 814 455 816 456 824 456 c 0
 832 456 834 455 834 447 c 0
 834 434 829 403 829 321 c 0
 829 239 834 217 834 204 c 0
 834 196 832 195 824 195 c 0
 816 195 814 196 813 204 c 0
 807 240 804 308 732 308 c 2
 722 308 l 2
 703 308 700.096679688 305.9921875 698 282 c 0
 689 179 647 102 587 52 c 0
 575 42 569 37 569 33 c 0
 569 28 585 27 592 27 c 2
 865 27 l 2
 902 27 906 41 963 139 c 0
 965 143 968 147 974 145 c 0
 980 143 981 143 981 137 c 0
 981 132 979 123 976 110 c 0
 961 41 957 0 944 0 c 2
 550 0 l 2
 478 0 518.116210938 -3.71875 434 -17 c 0x7780
370 622 m 0
 215 622 149 458 149 330 c 0
 149 186 217 11 384 11 c 0
 470 11 602 59 602 303 c 0
 602 518 490 622 370 622 c 0
EndSplineSet
AlternateSubs2: "'aalt' Access All Alternates lookup 0 subtable" OE.c2
AlternateSubs2: "'aalt' Access All Alternates in Latin lookup 0 subtable" OE.c2
Substitution2: "'c2sc' Capitals to Small Capitals in Latin lookup 4 subtable" OE.c2
EndChar

StartChar: AE
Encoding: 198 198 116
Width: 961
VWidth: 0
Flags: HW
HStem: 0 27<149.261 258.189 586.075 840.666> 240 36<281.001 492> 308 21<585.029 712.181> 610 26<365.463 420.994 453.213 489.283 587.19 797.909>
VStem: 492 93<29.8065 240 276 307.755 329.021 608.844> 753 21<195.003 254.875 384.055 455.997> 903 13<130.056 136.763>
DStem2: 165 142 245 226 0.489796 0.871837<-82.4802 135.397 179.044 531.436>
AnchorPoint: "r;bl" 961 10 basechar 0
AnchorPoint: "r;x" 941 385 basechar 0
AnchorPoint: "r;hi" 941 610 basechar 0
AnchorPoint: "r;o" 961 200 basechar 0
AnchorPoint: "l;bl" 0 10 basechar 0
AnchorPoint: "l;x" 150 385 basechar 0
AnchorPoint: "l;hi" 220 610 basechar 0
AnchorPoint: "l;o" 80 200 basechar 0
LayerCount: 3
Fore
SplineSet
769 321 m 0
 769 239 774 217 774 204 c 0
 774 196 772 195 764 195 c 0
 756 195 754 196 753 204 c 0
 747 240 744 308 672 308 c 2
 621 308 l 2
 604 308 585 308 585 297 c 2
 585 49 l 2
 585 39 587 27 618 27 c 2
 805 27 l 2
 842 27 846 41 903 139 c 0
 905 143 908 147 914 145 c 0
 920 143 921 143 921 137 c 0
 921 132 919 123 916 110 c 0
 901 41 897 0 884 0 c 2
 408 0 l 1
 407 2 405 6 405 10 c 0
 405 37 492 -3 492 75 c 2
 492 240 l 1
 267 240 l 2
 255 240 252 239 245 226 c 0
 154 63 149 60 149 44 c 0
 149 17 189 29 240 22 c 0
 251 20 259 17 259 10 c 0
 259 6 258 2 257 0 c 1
 33 0 l 1
 32 2 30 6 30 10 c 0
 30 28 53.9658203125 13.052734375 83 32 c 0
 102.9765625 45.0361328125 114 53 165 142 c 2
 415 587 l 2
 423 602 423 609 415 611 c 0
 391 616 365 611 365 626 c 0
 365 630 367 634 368 636 c 1
 755 636 l 2
 803 636 844 640 854 640 c 0
 870 640 863 629 874 562 c 0
 878 535 883 509 883 496 c 0
 883 489 879 488 876 487 c 0
 868 484 863 494 862 495 c 0
 847 517 805 609 779 609 c 2
 604 609 l 2
 592 609 585 599 585 585 c 2
 585 338 l 2
 585 330 595 329 610 329 c 2
 672 329 l 2
 750 329 747 411 753 447 c 0
 754 455 756 456 764 456 c 0
 772 456 774 455 774 447 c 0
 774 434 769 403 769 321 c 0
470 610 m 2
 464 610 455.034179688 603.981445312 437 571 c 2
 291 304 l 2
 287 297 281 286 281 282 c 0
 281 280 283 276 289 276 c 2
 492 276 l 1
 492 561 l 2
 492 590 491 610 475 610 c 2
 470 610 l 2
EndSplineSet
AlternateSubs2: "'aalt' Access All Alternates lookup 0 subtable" AE.c2
AlternateSubs2: "'aalt' Access All Alternates in Latin lookup 0 subtable" AE.c2
Substitution2: "'c2sc' Capitals to Small Capitals in Latin lookup 4 subtable" AE.c2
EndChar

StartChar: oe
Encoding: 339 339 117
Width: 722
VWidth: 0
Flags: HW
HStem: -13 58<481.367 612.618> -13 28<172.916 278.853> 251 21<424 601.015> 379 25<189.69 270.07 481.888 563.018>
VStem: 25 88<91.1912 288.9> 341 75<113.047 251> 604 81<272.88 337.101>
AnchorPoint: "top" 226 500 basechar 0
AnchorPoint: "r;o" 722 200 basechar 0
AnchorPoint: "r;x" 702 385 basechar 0
AnchorPoint: "r;bl" 702 10 basechar 0
AnchorPoint: "l;o" 0 200 basechar 0
AnchorPoint: "l;x" 30 385 basechar 0
AnchorPoint: "l;bl" 30 10 basechar 0
LayerCount: 3
Fore
SplineSet
524 379 m 0x3e
 494 379 438 358 424 272 c 1
 551 272 l 2
 603 272 604 275 604 291 c 0
 604 333 575 379 524 379 c 0x3e
228 376 m 0
 162 376 113 306 113 194 c 0
 113 94 136 15 227 15 c 0x7e
 316 15 341 105 341 194 c 0
 341 328 292 376 228 376 c 0
419 251 m 1
 416 234 416 218 416 202 c 0
 416 111 469 45 564 45 c 0
 591 45 631 51 668 98 c 0
 671 102 674 105 678 105 c 0
 683 105 689 100 689 94 c 0
 689 92 687 89 686 86 c 0
 658 33 606 -13 528 -13 c 0xbe
 481 -13 422 2 382 52 c 0
 378 57 376 59 376 59 c 1
 376 59 335 -13 222 -13 c 0
 120 -13 25 51 25 196 c 0
 25 305 107 404 235 404 c 0
 351 404 381 334 381 334 c 1
 381 334 425 404 526 404 c 0
 660 404 685 296 685 279 c 0
 685 251 684 251 597 251 c 2
 419 251 l 1
EndSplineSet
AlternateSubs2: "'aalt' Access All Alternates lookup 0 subtable" oe.sc
AlternateSubs2: "'aalt' Access All Alternates in Latin lookup 0 subtable" oe.sc
Substitution2: "'smcp' Lowercase to Small Capitals in Latin lookup 3 subtable" oe.sc
EndChar

StartChar: ae
Encoding: 230 230 118
Width: 626
VWidth: 0
Flags: HW
HStem: -13 58<386.301 516.618> -13 40<101.5 217.615> 251 21<328 505.015> 369 35<139.032 226.322> 379 25<384.83 467.018>
VStem: 32 71<275.523 336.775> 38 85<34.394 121.629> 248 80<272 331.869> 248 72<112.963 187 203.22 251> 508 81<272.88 337.101>
AnchorPoint: "r;o" 626 200 basechar 0
AnchorPoint: "r;x" 606 385 basechar 0
AnchorPoint: "r;bl" 606 10 basechar 0
AnchorPoint: "l;o" 0 200 basechar 0
AnchorPoint: "l;x" 20 385 basechar 0
AnchorPoint: "l;bl" 0 10 basechar 0
LayerCount: 3
Fore
SplineSet
428 379 m 0x2940
 398 379 342 358 328 272 c 1
 455 272 l 2
 507 272 508 275 508 291 c 0
 508 333 479 379 428 379 c 0x2940
250 187 m 1
 241 184 217 178 193 167 c 0
 159 151 123 133 123 81 c 0
 123 51 141 27 167 27 c 0x6240
 173 27 203 32 228 47 c 0
 242 56 261 77 263 98 c 1
 255 127 251 156 250 187 c 1
218 404 m 0x74c0
 263 404 293 382 308 352 c 1
 329 375 382 404 430 404 c 0
 564 404 589 296 589 279 c 0
 589 251 588 251 501 251 c 2
 323 251 l 1
 320 234 320 218 320 202 c 0
 320 111 373 45 468 45 c 0
 495 45 535 51 572 98 c 0
 575 102 578 105 582 105 c 0
 587 105 593 100 593 94 c 0
 593 92 591 89 590 86 c 0
 562 33 510 -13 432 -13 c 0xacc0
 380 -13 322 6 282 63 c 1
 274 49 256 25 218 7 c 0
 196 -3 166 -13 126 -13 c 0
 77 -13 38 16 38 71 c 0x62c0
 38 125 96 168 248 209 c 1
 248 252 l 2
 248 255 246.970703125 299.99609375 246 308 c 0
 241.876953125 341.985351562 225 369 173 369 c 0
 142 369 103 348 103 333 c 0
 103 328 112 314 112 296 c 0
 112 265 91 250 71 250 c 0
 50 250 32 266 32 297 c 0
 32 314 50 336 66 347 c 0
 104 373 160 404 218 404 c 0x74c0
EndSplineSet
AlternateSubs2: "'aalt' Access All Alternates lookup 0 subtable" ae.sc
AlternateSubs2: "'aalt' Access All Alternates in Latin lookup 0 subtable" ae.sc
Substitution2: "'smcp' Lowercase to Small Capitals in Latin lookup 3 subtable" ae.sc
EndChar

StartChar: zero
Encoding: 48 48 119
Width: 474
VWidth: 0
Flags: W
HStem: -13 30<183.804 278.758> 354 32<176.817 276.722>
VStem: 38 79<89.3917 285.684> 340 83<91.5936 286.457>
LayerCount: 3
Fore
SplineSet
117 190 m 0
 117 74 173 17 232 17 c 0
 288 17 340 71 340 181 c 0
 340 297 288 354 226 354 c 0
 166 354 117 298 117 190 c 0
423 190 m 0
 423 56 326 -13 228 -13 c 0
 132 -13 38 52 38 191 c 0
 38 321 134 386 231 386 c 0
 328 386 423 324 423 190 c 0
EndSplineSet
EndChar

StartChar: slash
Encoding: 47 47 120
Width: 308
VWidth: 488
Flags: W
HStem: -224 21G<11.5 27.302> 644 20G<281.721 296.5>
DStem2: -28 -207 20 -224 0.342955 0.939352<-1.56927 929.742>
LayerCount: 3
Fore
SplineSet
-28 -207 m 1
 289 664 l 1
 304 664 333 654 338 647 c 1
 20 -224 l 1
 3 -222 -20 -213 -28 -207 c 1
EndSplineSet
EndChar

StartChar: one
Encoding: 49 49 121
Width: 239
VWidth: 0
Flags: W
HStem: 0 21G<35.5 207.5> 357 20G<35.5 207.5>
VStem: 83 77<19.0546 350.715>
LayerCount: 3
Fore
SplineSet
83 315 m 2
 83 334 80 345 75 351 c 0
 63 366 34 354 34 369 c 0
 34 372 35 375 36 377 c 1
 207 377 l 1
 208 375 209 372 209 369 c 0
 209 355 181 366 168 351 c 0
 163 345 160 334 160 315 c 2
 160 62 l 2
 160 49 161 39 164 33 c 0
 175 8 209 25 209 8 c 0
 209 5 208 2 207 0 c 1
 36 0 l 1
 35 2 34 5 34 8 c 0
 34 24 69 8 79 33 c 0
 82 39 83 49 83 62 c 2
 83 315 l 2
EndSplineSet
EndChar

StartChar: two
Encoding: 50 50 122
Width: 356
VWidth: 0
Flags: W
HStem: -0 64<131.004 300.966> 333 53<104.35 197.329>
VStem: 216 72<227.489 314.107>
LayerCount: 3
Fore
SplineSet
147 333 m 0
 117 333 94 316 79 316 c 0
 71 316 68 323 67 330 c 0
 67 333 66 334 70 339 c 0
 88 361 142 386 180 386 c 0
 239 386 288 360 288 300 c 0
 288 231 227 172 202 145 c 0
 168.357294847 108.665878434 131 71 131 68 c 0
 131 64 137 64 148 64 c 2
 258 64 l 2
 291 64 290 66 299 74 c 0
 305 80 311 83 315 83 c 0
 321 83 324 78 324 72 c 0
 324 68 323 63 320 58 c 2
 298 16 l 2
 290 1 287 0 276 0 c 2
 73 -0 l 2
 58 0 58 0 55 9 c 0
 54 13 53 15 53 18 c 0
 53 25 63 35 74 47 c 0
 149.548310172 129.416338369 216 192 216 258 c 0
 216 303 189 333 147 333 c 0
EndSplineSet
EndChar

StartChar: three
Encoding: 51 51 123
Width: 356
VWidth: 0
Flags: W
HStem: -213 48<83.2748 175.62> 335 51<103.976 203.402>
VStem: 231 62<221.056 306.893> 242 70<-78.5044 36.8873>
LayerCount: 3
Fore
SplineSet
98 -142 m 0xd0
 126 -142 134 -165 151 -165 c 0
 169 -165 184 -150 198 -138 c 0
 227 -112 242 -74 242 -30 c 0xd0
 242 52 176 77 140 83 c 0
 130 85 112 86 112 100 c 0
 112 108 123 115 139 125 c 0
 204 168 231 203 231 256 c 0
 231 281 204 335 154 335 c 0
 103 335 89 313 77 313 c 0
 71 313 67 317 65 323 c 0
 63 328 63 329 67 335 c 0
 82 358 138 386 180 386 c 0
 236 386 293 357 293 293 c 0xe0
 293 232 254 193 202 145 c 1
 226 136 312 91 312 0 c 0
 312 -55 280.976234394 -101.975014863 241 -140 c 0
 198.975016426 -179.973734396 154 -213 102 -213 c 0
 81 -213 62 -199 62 -179 c 0
 62 -157 76 -142 98 -142 c 0xd0
EndSplineSet
EndChar

StartChar: four
Encoding: 52 52 124
Width: 514
VWidth: 0
Flags: W
HStem: -215 21G<298.5 331.5> 0 64<80 278 348 472.778> 361 20G<305 340.5>
VStem: 278 70<-214.697 0 64 311>
LayerCount: 3
Fore
SplineSet
351 344 m 2
 351 250 348 273 348 108 c 2
 348 64 l 1
 446 64 l 2
 472 64 473 63 473 32 c 0
 473 2 470 0 448 0 c 2
 348 0 l 1
 348 -139 l 2
 348 -177 350 -197 350 -203 c 0
 350 -213 346 -215 317 -215 c 0
 280 -215 273 -213 273 -195 c 2
 278 0 l 1
 81 0 l 2
 54 0 41 0 41 34 c 0
 41 42 43 55 46 61 c 0
 111 175 279 381 331 381 c 0
 350 381 351 368 351 352 c 2
 351 344 l 2
80 64 m 1
 278 64 l 1
 278 311 l 1
 228 269 127 137 80 64 c 1
EndSplineSet
EndChar

StartChar: five
Encoding: 53 53 125
Width: 398
VWidth: 0
Flags: W
HStem: -213 44<80 171.402> 307 70<146.32 316.645>
VStem: 83 50<156.5 247.548> 226 63<-78.5699 55.3853>
LayerCount: 3
Fore
SplineSet
286 307 m 2
 167 307 l 2
 160 307 153 310 149 295 c 0
 144 275 133 246 133 229 c 0
 133 210 162.873371008 208.825389588 204 179 c 0
 235.901774358 155.864555348 289 97 289 13 c 0
 289 -32 273 -84 230 -138 c 0
 185 -193 142 -213 97 -213 c 0
 63 -213 40 -199 40 -175 c 0
 40 -157 50 -136 80 -136 c 0
 112 -136 119 -169 136 -169 c 0
 168 -169 226 -114 226 -26 c 0
 226 40 201 89 99 132 c 0
 84 138 83 151 83 162 c 0
 83 181 106 238 130 354 c 0
 133 370 142 377 162 377 c 2
 294 377 l 2
 308 377 306 398 321 398 c 0
 328 398 336 392 336 384 c 0
 336 372 332.961227238 375.013528308 319 335 c 0
 310.977720732 312.007773519 306 307 286 307 c 2
EndSplineSet
EndChar

StartChar: six
Encoding: 54 54 126
Width: 478
VWidth: 0
Flags: W
HStem: -13 27<200.044 287.868> 333 31<181.443 289.641>
VStem: 53 80<101.471 285.883> 344 83<83.3259 267.988>
LayerCount: 3
Fore
SplineSet
232 333 m 0
 156 333 133 257 133 189 c 0
 133 98 168 14 248 14 c 0
 317 14 344 105 344 180 c 0
 344 252 323 333 232 333 c 0
252 364 m 0
 392 364 427 241 427 171 c 0
 427 84 364 -13 247 -13 c 0
 133 -13 53 82 53 198 c 0
 53 318 141 425 218 500 c 0
 266 548 326 582 340 582 c 0
 349 582 355 570 355 565 c 0
 355 558 349 554 340 548 c 0
 319 534 280.043910047 500.960840641 256 474 c 0
 222.061979108 435.944726497 188 384 166 340 c 1
 166 340 193 364 252 364 c 0
EndSplineSet
EndChar

StartChar: seven
Encoding: 55 55 127
Width: 398
VWidth: 0
Flags: W
HStem: -211 21G<126.5 142> 309 70<91.9951 293>
VStem: 30 309
LayerCount: 3
Fore
SplineSet
72 400 m 2
 74 405 76 406 81 406 c 0
 96 406 101 379 128 379 c 2
 323 379 l 2
 333 379 339 375 339 367 c 0
 339 344 263 157 216 18 c 0
 138.916065375 -209.971636444 149 -211 135 -211 c 0
 118 -211 86 -211 86 -201 c 0
 86 -196 233 145 293 309 c 1
 85 309 l 2
 77 309 69 309 46 274 c 0
 44 272 42 270 39 270 c 0
 35 270 30 273 30 277 c 1
 30 277 33 293 48 333 c 2
 72 400 l 2
EndSplineSet
EndChar

StartChar: eight
Encoding: 56 56 128
Width: 400
VWidth: 0
Flags: W
HStem: -13 23<155.197 243.093> 568 28<145.169 255.751>
VStem: 40 58<66.7599 218.891 399.762 509.665> 298 60<75.1789 198.408 393.721 534.076>
LayerCount: 3
Fore
SplineSet
198 568 m 0
 145 568 98 529 98 476 c 0
 98 352 226 332 226 332 c 1
 226 332 304 350 304 462 c 0
 304 538 254 568 198 568 c 0
164 274 m 1
 164 274 98 232 98 154 c 0
 98 86 126 10 198 10 c 0
 264 10 298 68 298 130 c 0
 298 238 164 274 164 274 c 1
210 596 m 0
 286 596 359 543 359 467 c 0
 359 378 262 318 262 318 c 1
 262 318 358 262 358 164 c 0
 358 74 296 -13 200 -13 c 0
 111 -13 40 57 40 146 c 0
 40 244 142 286 142 286 c 1
 142 286 44 341 44 436 c 0
 44 532 118 596 210 596 c 0
EndSplineSet
EndChar

StartChar: nine
Encoding: 57 57 129
Width: 456
VWidth: 0
Flags: W
HStem: -218 21G<126 134> 0 27<189.488 282.977> 357 29<182.94 273.153>
VStem: 44 80<104.794 286.291> 342 72<80.9559 272.975>
LayerCount: 3
Fore
SplineSet
230 357 m 0
 153 357 124 268 124 188 c 0
 124 90 171 27 234 27 c 0
 261 27 293 38 315 71 c 0
 335 102 342 152 342 190 c 0
 342 268 300 357 230 357 c 0
131 -218 m 0
 121 -218 120 -211 120 -206 c 0
 120 -199 125 -199 139 -186 c 0
 169 -159 195 -132 221 -100 c 0
 245 -69 285 -16 303 22 c 1
 272 4 254 0 223 0 c 0
 79 0 44 138 44 202 c 0
 44 295 122 386 231 386 c 0
 346 386 414 274 414 175 c 0
 414 -17 238 -145 166 -200 c 0
 146 -215 137 -218 131 -218 c 0
EndSplineSet
EndChar

StartChar: .notdef
Encoding: 65542 -1 130
Width: 425
VWidth: 0
Flags: W
HStem: -56 40<110.54 183.46> 74 45<133.935 156.897> 305 221<124.003 263.43> 606 66<134.732 265.049> 639 33<106.47 138.679>
VStem: 29 103<119.021 284.633> 29 95<119.021 305> 29 73<-8.69897 66.699 526 638.992> 192 204<-8.69897 66.699> 342 54<268.678 507.291>
LayerCount: 3
Fore
SplineSet
102 29 m 0xe180
 102 5 123 -16 147 -16 c 0
 171 -16 192 5 192 29 c 0
 192 53 171 74 147 74 c 0
 123 74 102 53 102 29 c 0xe180
124 526 m 2xea40
 178 526 l 2
 307 526 313 432 313 398 c 2
 313 390 l 2
 313 332 301 305 238 305 c 2
 144 305 l 2
 128 305 124 297 124 286 c 0xea40
 124 257 131 218 132 149 c 0
 132 148 134 119 146 119 c 0
 154 119 158.458831508 134.047146584 165 206 c 0
 167 228 175 223 275 237 c 0
 320 244 342 289 342 380 c 0
 342 445 328 492 312 526 c 0
 278 601 220 606 165 606 c 0xf440
 151 606 152 607 142 619 c 0
 134 628 127 639 119 639 c 0
 112 639 104 628 104 598 c 0
 104 547 111 526 124 526 c 2xea40
29 672 m 1xe940
 396 672 l 1
 396 -56 l 1
 29 -56 l 1
 29 672 l 1xe940
EndSplineSet
EndChar

StartChar: minute
Encoding: 8242 8242 131
Width: 208
VWidth: 0
Flags: W
HStem: 396 259<36 130>
VStem: 24 63<429.894 480.499>
LayerCount: 3
Fore
SplineSet
24 408 m 0
 24 422 40 466 48 488 c 0
 77 573 79 655 130 655 c 0
 138 655 160 651 160 625 c 0
 160 586 114.958802104 526.021723998 87 473 c 0
 56.9557291211 416.023344408 52 396 36 396 c 0
 26 396 24 403 24 408 c 0
EndSplineSet
EndChar

StartChar: second
Encoding: 8243 8243 132
Width: 308
VWidth: 0
Flags: W
HStem: 399 256<124 236>
VStem: 24 54<423.057 518.375>
LayerCount: 3
Fore
SplineSet
118 412 m 0
 118 424 132.07590071 461.96481297 146 492 c 0
 181.191831799 567.911068141 187 654 236 654 c 0
 257 654 268 644 268 627 c 0
 268 601 246 572 184 475 c 0
 151 425 144 400 129 400 c 0
 124 400 118 401 118 412 c 0
24 409 m 0
 24 422 56 584 67 625 c 0
 72 645 89 655 109 655 c 0
 130 655 143 636 143 623 c 0
 143 599 104 532 78 474 c 0
 57 428 50 399 35 399 c 0
 29 399 24 403 24 409 c 0
EndSplineSet
EndChar

StartChar: quotesingle
Encoding: 39 39 133
Width: 224
VWidth: 0
Flags: W
HStem: 400 255<94.4173 135.288>
VStem: 74 84<422.75 648.85> 87 57<401.857 604.587>
LayerCount: 3
Fore
SplineSet
120 655 m 0xc0
 149 655 158 633 158 606 c 0xc0
 158 576 149 537 144 492 c 0
 138 430 140 400 112 400 c 0
 95 400 92.1421420017 419.010011976 87 491 c 0xa0
 83 547 74 579 74 607 c 0
 74 650 108 655 120 655 c 0xc0
EndSplineSet
EndChar

StartChar: quotedbl
Encoding: 34 34 134
Width: 372
VWidth: 0
Flags: W
HStem: 400 255<94.4173 135.288 244.417 285.288>
VStem: 74 84<422.75 648.85> 87 57<401.857 604.587> 224 84<422.75 648.85> 237 57<401.857 604.587>
LayerCount: 3
Fore
SplineSet
120 655 m 0xc0
 149 655 158 633 158 606 c 0xc0
 158 576 149 537 144 492 c 0
 138 430 140 400 112 400 c 0
 95 400 92.1421420017 419.010011976 87 491 c 0xa0
 83 547 74 579 74 607 c 0
 74 650 108 655 120 655 c 0xc0
270 655 m 0
 299 655 308 633 308 606 c 0x90
 308 576 299 537 294 492 c 0
 288 430 290 400 262 400 c 0
 245 400 242.142142002 419.010011976 237 491 c 0x88
 233 547 224 579 224 607 c 0x90
 224 650 258 655 270 655 c 0
EndSplineSet
EndChar

StartChar: uni2053
Encoding: 8275 8275 135
Width: 996
VWidth: 0
Flags: W
HStem: 107 53<661.48 798.721> 279 60<199.812 332.709>
VStem: 60 32<109.738 160.929> 904 32<293.083 334.625>
LayerCount: 3
Fore
SplineSet
60 113 m 1
 60 113 101 339 291 339 c 0
 470 339 607 160 752 160 c 0
 861 160 904 338 904 338 c 1
 914 338 928 336 936 332 c 1
 920 253 857 107 708 107 c 0
 523 107 386 279 236 279 c 0
 118 279 92 106 92 106 c 1
 80 106 71 107 60 113 c 1
EndSplineSet
EndChar

StartChar: fraction
Encoding: 8260 8260 137
Width: 512
VWidth: 488
Flags: W
DStem2: -19.5 -47 14.5 -71 0.574282 0.818657<-3.40338 902.449>
LayerCount: 3
Fore
SplineSet
-19.5 -47 m 1
 497.5 690 l 1
 508.833333333 685.226648664 521 679 531.5 666 c 1
 14.5 -71 l 1
 0.298482792474 -68.1589108294 -10.6918299882 -59.5419307049 -19.5 -47 c 1
EndSplineSet
EndChar

StartChar: guilsinglleft
Encoding: 8249 8249 138
Width: 280
Flags: W
HStem: 52 298<230 244>
VStem: 38 208
LayerCount: 3
Fore
SplineSet
136 201 m 1
 187 155 246 77 246 61 c 0
 246 56 244 52 238 52 c 0
 230 52 230 54 182 94 c 0
 111.671030617 152.607474486 38 195 38 201 c 0
 38 207 111.671030617 249.392525514 182 308 c 0
 230 348 230 350 238 350 c 0
 244 350 246 346 246 341 c 0
 246 325 187 247 136 201 c 1
EndSplineSet
EndChar

StartChar: guilsinglright
Encoding: 8250 8250 139
Width: 280
Flags: W
HStem: 52 298<40 54>
VStem: 38 208
LayerCount: 3
Fore
SplineSet
148 201 m 1
 97 247 38 325 38 341 c 0
 38 346 40 350 46 350 c 0
 54 350 54 348 102 308 c 0
 172.328969383 249.392525514 246 207 246 201 c 0
 246 195 172.328969383 152.607474486 102 94 c 0
 54 54 54 52 46 52 c 0
 40 52 38 56 38 61 c 0
 38 77 97 155 148 201 c 1
EndSplineSet
EndChar

StartChar: guillemotright
Encoding: 187 187 140
Width: 460
Flags: W
HStem: 52 298<40 54 210 224>
LayerCount: 3
Fore
SplineSet
318 201 m 1
 267 247 208 325 208 341 c 0
 208 346 210 350 216 350 c 0
 224 350 224 348 272 308 c 0
 342.328969383 249.392525514 416 207 416 201 c 0
 416 195 342.328969383 152.607474486 272 94 c 0
 224 54 224 52 216 52 c 0
 210 52 208 56 208 61 c 0
 208 77 267 155 318 201 c 1
148 201 m 1
 97 247 38 325 38 341 c 0
 38 346 40 350 46 350 c 0
 54 350 54 348 102 308 c 0
 172.328969383 249.392525514 246 207 246 201 c 0
 246 195 172.328969383 152.607474486 102 94 c 0
 54 54 54 52 46 52 c 0
 40 52 38 56 38 61 c 0
 38 77 97 155 148 201 c 1
EndSplineSet
EndChar

StartChar: ordmasculine
Encoding: 186 186 141
Width: 486
VWidth: 0
Flags: W
HStem: 414 17<209.148 272.362> 648 17<217.313 274.515>
VStem: 111 64<464.56 607.627> 311 64<469.816 616.09>
LayerCount: 3
Fore
SplineSet
244 648 m 0
 204 648 175 606 175 539 c 0
 175 480 187 431 240 431 c 0
 295 431 311 484 311 539 c 0
 311 619 282 648 244 648 c 0
375 542 m 0
 375 469 320 414 240 414 c 0
 173 414 111 453 111 540 c 0
 111 605 165 665 248 665 c 0
 332 665 375 610 375 542 c 0
EndSplineSet
EndChar

StartChar: guillemotleft
Encoding: 171 171 142
Width: 468
Flags: W
HStem: 52 298<230 244 400 414>
LayerCount: 3
Fore
SplineSet
136 201 m 1
 187 155 246 77 246 61 c 0
 246 56 244 52 238 52 c 0
 230 52 230 54 182 94 c 0
 111.671030617 152.607474486 38 195 38 201 c 0
 38 207 111.671030617 249.392525514 182 308 c 0
 230 348 230 350 238 350 c 0
 244 350 246 346 246 341 c 0
 246 325 187 247 136 201 c 1
306 201 m 1
 357 155 416 77 416 61 c 0
 416 56 414 52 408 52 c 0
 400 52 400 54 352 94 c 0
 281.671030617 152.607474486 208 195 208 201 c 0
 208 207 281.671030617 249.392525514 352 308 c 0
 400 348 400 350 408 350 c 0
 414 350 416 346 416 341 c 0
 416 325 357 247 306 201 c 1
EndSplineSet
EndChar

StartChar: logicalnot
Encoding: 172 172 143
Width: 579
VWidth: 0
Flags: W
HStem: 228 46<59.0264 463>
VStem: 463 47<37 228>
LayerCount: 3
Fore
SplineSet
62 228 m 1
 60 236 59 244 59 252 c 0
 59 260 60 268 62 274 c 1
 510 274 l 1
 510 37 l 1
 504 36 495 35 487 35 c 0
 479 35 470 36 463 37 c 1
 463 228 l 1
 62 228 l 1
EndSplineSet
EndChar

StartChar: backslash
Encoding: 92 92 144
Width: 308
VWidth: 488
Flags: W
HStem: -224 21G<278.698 294.5> 644 20G<9.5 24.279>
DStem2: 17 664 -32 647 0.342955 -0.939352<-2.84978 928.461>
LayerCount: 3
Fore
SplineSet
334 -207 m 1
 326 -213 303 -222 286 -224 c 1
 -32 647 l 1
 -27 654 2 664 17 664 c 1
 334 -207 l 1
EndSplineSet
EndChar

StartChar: underscore
Encoding: 95 95 145
Width: 450
VWidth: 0
Flags: W
HStem: -78 53<25 424.986>
LayerCount: 3
Fore
SplineSet
41 -25 m 2
 412 -25 l 2
 425 -25 425 -33 425 -42 c 2
 425 -55 l 2
 425 -63 423 -78 412 -78 c 2
 38 -78 l 2
 27 -78 25 -73 25 -59 c 2
 25 -43 l 2
 25 -30 30 -25 41 -25 c 2
EndSplineSet
EndChar

StartChar: asciicircum
Encoding: 94 94 146
Width: 402
VWidth: 0
Flags: W
HStem: 311 320
VStem: 41 324
DStem2: 209 631 201 533 0.438202 -0.898876<84.5843 344.906>
LayerCount: 3
Fore
SplineSet
41 311 m 1
 197 631 l 1
 199 632 201 632 203 632 c 0
 205 632 207 632 209 631 c 1
 365 311 l 1
 355 309 345 308 334 308 c 0
 324 308 314 309 303 311 c 1
 201 533 l 1
 103 311 l 1
 91 309 84 308 70 308 c 0
 59 308 50 309 41 311 c 1
EndSplineSet
EndChar

StartChar: numbersign
Encoding: 35 35 147
Width: 429
VWidth: 0
Flags: W
HStem: 235 36<20.0229 112 165 237 289 407.927> 344 36<21.0117 142 195 268 320 409.931>
DStem2: 53 24 96 24 0.268273 0.963343<1.69696 219.093 267.992 332.146 381.045 583.441> 178 24 220 24 0.269888 0.962892<2.17574 219.094 267.792 332.415 381.114 583.484>
LayerCount: 3
Fore
SplineSet
165 271 m 1
 247 271 l 1
 268 344 l 1
 185 344 l 1
 165 271 l 1
53 24 m 1
 112 235 l 1
 24 235 l 1
 22 241 20 247 20 254 c 0
 20 259 21 265 24 271 c 1
 122 271 l 1
 142 344 l 1
 24 344 l 1
 22 350 21 355 21 361 c 0
 21 367 22 374 24 380 c 1
 152 380 l 1
 207 577 l 1
 214 580 221 581 228 581 c 0
 236 581 243 580 250 577 c 1
 195 380 l 1
 278 380 l 1
 333 577 l 1
 340 580 347 581 353 581 c 0
 360 581 367 579 375 577 c 1
 320 380 l 1
 406 380 l 1
 409 375 410 369 410 364 c 0
 410 357 408 351 406 344 c 1
 310 344 l 1
 289 271 l 1
 405 271 l 1
 407 266 408 261 408 256 c 0
 408 249 407 242 405 235 c 1
 279 235 l 1
 220 24 l 1
 213 22 207 20 200 20 c 0
 194 20 188 21 178 24 c 1
 237 235 l 1
 155 235 l 1
 96 24 l 1
 88 22 80 20 71 20 c 0
 65 20 59 21 53 24 c 1
EndSplineSet
EndChar

StartChar: asterisk
Encoding: 42 42 148
Width: 455
VWidth: 0
Flags: W
HStem: 429 58<195.674 212 244.078 260.488> 644 20G<218 239>
VStem: 183 84<267.169 386.359 545.429 656.058> 195 67<444.557 467.078> 212 28<367.208 426.981 487.139 533.725>
LayerCount: 3
Fore
SplineSet
44 376 m 0xc8
 44 429 195 439 195 456 c 0xd0
 195 482 45 469 45 535 c 0
 45 566 76 575 84 575 c 0
 118 575 192 487 212 487 c 0xc8
 216 487 216 491 216 496 c 0
 216 522 185 599 185 615 c 0
 185 646 207 664 229 664 c 0
 249 664 273 652 273 609 c 0
 273 587 244 512 244 490 c 0
 244 485 245 483 249 483 c 0
 270 483 330 571 372 571 c 0
 395 571 411 557 411 539 c 0
 411 470 262 476 262 456 c 0xd0
 262 433 402 435 402 372 c 0
 402 354 392 336 370 336 c 0
 325 336 258 427 245 427 c 0
 244 427 240 426 240 416 c 0xc8
 240 390 267 327 267 303 c 0
 267 278 247 261 226 261 c 0
 205 261 183 279 183 300 c 0xe0
 183 323 212 408 212 425 c 0
 212 427 212 429 210 429 c 0
 196 429 126 339 80 339 c 0
 55 339 44 362 44 376 c 0xc8
EndSplineSet
EndChar

StartChar: less
Encoding: 60 60 149
Width: 761
VWidth: 10
Flags: W
DStem2: 120 214 203 206 0.902342 0.431021<71.4462 564.291> 203 206 120 197 0.903023 -0.429593<0 491.893>
LayerCount: 3
Fore
SplineSet
120 214 m 1
 635 460 l 1
 639 451 640 444 640 435 c 0
 640 426 639 418 635 409 c 1
 203 206 l 1
 635 4 l 1
 637 -5 639 -13 639 -23 c 0
 639 -31 638 -39 635 -48 c 1
 120 197 l 1
 119 199 118 202 118 206 c 0
 118 209 119 212 120 214 c 1
EndSplineSet
EndChar

StartChar: equal
Encoding: 61 61 150
Width: 784
VWidth: 0
Flags: W
HStem: 116 45<147.026 636.993> 249 45<147.047 635.996>
LayerCount: 3
Fore
SplineSet
150 249 m 1
 148 256 147 262 147 269 c 0
 147 278 148 285 150 294 c 1
 634 294 l 1
 636 287 636 281 636 274 c 0
 636 265 636 258 634 249 c 1
 150 249 l 1
150 116 m 1
 148 123 147 130 147 137 c 0
 147 145 148 153 150 161 c 1
 634 161 l 1
 636 154 637 147 637 139 c 0
 637 131 636 124 634 116 c 1
 150 116 l 1
EndSplineSet
EndChar

StartChar: greater
Encoding: 62 62 151
Width: 761
VWidth: 0
Flags: W
DStem2: 123 460 123 409 0.902342 -0.431021<6.44602 499.291> 123 4 123 -48 0.903023 0.429593<-14.8056 476.884>
LayerCount: 3
Fore
SplineSet
638 214 m 1
 639 212 640 209 640 206 c 0
 640 202 639 199 638 197 c 1
 123 -48 l 1
 120 -39 119 -31 119 -23 c 0
 119 -13 121 -5 123 4 c 1
 555 206 l 1
 123 409 l 1
 119 418 118 426 118 435 c 0
 118 444 119 451 123 460 c 1
 638 214 l 1
EndSplineSet
EndChar

StartChar: plus
Encoding: 43 43 152
Width: 621
VWidth: 0
Flags: W
HStem: 197 46<57.0066 282 321 543>
VStem: 278 47<-22 200 240 464.982>
LayerCount: 3
Fore
SplineSet
60 197 m 1
 58 205 57 212 57 220 c 0
 57 228 58 235 60 243 c 1
 259 243 282 240 282 240 c 1
 282 240 278 251 278 462 c 1
 286 464 294 465 301 465 c 0
 310 465 317 464 325 462 c 1
 325 251 321 240 321 240 c 1
 321 240 345 243 543 243 c 1
 545 236 545 230 545 223 c 0
 545 214 544 206 543 197 c 1
 345 197 321 200 321 200 c 1
 321 200 325 176 325 -22 c 1
 320 -23 312 -24 304 -24 c 0
 294 -24 284 -23 278 -22 c 1
 278 176 282 200 282 200 c 1
 282 200 259 197 60 197 c 1
EndSplineSet
EndChar

StartChar: minus
Encoding: 8722 8722 153
Width: 624
VWidth: 0
Flags: W
HStem: 198 46<57.0519 532.973>
LayerCount: 3
Fore
SplineSet
62 198 m 1
 59 206 57 213 57 220 c 0
 57 228 59 236 62 244 c 1
 529 244 l 1
 532 237 533 229 533 222 c 0
 533 214 532 206 529 198 c 1
 62 198 l 1
EndSplineSet
EndChar

StartChar: plusminus
Encoding: 177 177 154
Width: 587
VWidth: 0
Flags: W
HStem: 22 47<59.0519 519.973> 271 47<61.0264 270 310 519.973>
VStem: 266 48<100 274 314 491.911>
LayerCount: 3
Fore
SplineSet
64 271 m 1
 62 279 61 286 61 294 c 0
 61 302 62 310 64 318 c 1
 238 318 270 314 270 314 c 1
 270 314 266 347 266 489 c 1
 273 491 280 492 288 492 c 0
 299 492 310 490 314 489 c 1
 314 354 310 314 310 314 c 1
 310 314 350 318 516 318 c 1
 519 310 520 302 520 294 c 0
 520 286 519 279 516 271 c 1
 341 271 310 274 310 274 c 1
 310 274 314 243 314 100 c 1
 308 99 301 98 293 98 c 0
 285 98 276 99 266 100 c 1
 266 242 270 274 270 274 c 1
 270 274 238 271 64 271 c 1
64 22 m 1
 61 30 59 38 59 46 c 0
 59 54 61 61 64 69 c 1
 516 69 l 1
 519 61 520 54 520 46 c 0
 520 38 519 30 516 22 c 1
 64 22 l 1
EndSplineSet
EndChar

StartChar: divide
Encoding: 247 247 155
Width: 582
VWidth: 0
Flags: W
HStem: 47 97<256.336 335.002> 198 46<57.0519 532.973> 298 97<256.336 335.002>
VStem: 247 97<55.9979 134.664 307.336 386.002>
CounterMasks: 1 e0
LayerCount: 3
Fore
SplineSet
247 347 m 0
 247 373 270 395 296 395 c 0
 322 395 344 373 344 347 c 0
 344 321 322 298 296 298 c 0
 270 298 247 321 247 347 c 0
247 95 m 0
 247 121 270 144 296 144 c 0
 322 144 344 121 344 95 c 0
 344 69 322 47 296 47 c 0
 270 47 247 69 247 95 c 0
62 198 m 1
 59 206 57 213 57 220 c 0
 57 228 59 236 62 244 c 1
 529 244 l 1
 532 237 533 229 533 222 c 0
 533 214 532 206 529 198 c 1
 62 198 l 1
EndSplineSet
EndChar

StartChar: multiply
Encoding: 215 215 156
Width: 464
VWidth: 0
Flags: W
HStem: 373 20G<76.5 101.245 370.503 397>
DStem2: 82 393 48 360 0.708141 -0.706071<-1.99096 220.553 260.917 484.435> 48 52 82 19 0.708141 0.706071<-2.18343 221.329 261.693 484.487>
LayerCount: 3
Fore
SplineSet
48 52 m 1
 207 206 l 1
 48 360 l 1
 59 377 71 387 82 393 c 1
 235 234 l 1
 390 393 l 1
 404 386 417 370 423 360 c 1
 264 206 l 1
 423 52 l 1
 415 35 403 26 390 19 c 1
 235 178 l 1
 82 19 l 1
 64 26 54 39 48 52 c 1
EndSplineSet
EndChar

StartChar: cent
Encoding: 162 162 157
Width: 427
VWidth: 0
Flags: W
HStem: -13 58<168.753 287.183> 379 25<178.037 230>
VStem: 27 79<109.66 293.65>
DStem2: 62 -179 97 -188 0.281253 0.959634<-0.204902 193.369 276.406 575.925 614.526 895.074>
LayerCount: 3
Fore
SplineSet
144 85 m 1
 229 374 l 1
 230 378 l 1
 227 378 224 379 221 379 c 0
 163 379 106 322 106 217 c 0
 106 153 122 111 144 85 c 1
370 94 m 1
 324 6 247 -13 209 -13 c 0
 192 -13 170 -10 148 -3 c 1
 97 -188 l 1
 85 -188 74 -186 62 -179 c 1
 121 8 l 1
 72 34 27 88 27 197 c 0
 27 316 107 404 234 404 c 0
 235 404 236 404 237 404 c 2
 312 674 l 1
 318 675 325 676 331 676 c 0
 339 676 346 674 353 670 c 1
 268 401 l 1
 333 391 370 355 370 325 c 0
 370 310 356 289 334 289 c 0
 292 289 284 339 257 364 c 1
 168 64 l 1
 190 50 214 45 235 45 c 0
 282 45 319 64 354 108 c 1
 363 104 367 100 370 94 c 1
EndSplineSet
EndChar

StartChar: sterling
Encoding: 163 163 158
Width: 435
VWidth: 0
Flags: W
HStem: -13 40<293.031 363.073> 100 25<128 209.387> 251 31<25.0255 134 202 323.943> 631 33<243.664 324.382>
VStem: 125 83<283.93 536.078> 134 68<282 394.993> 338 80<532.329 622.376> 370 45<34.5897 109.84>
LayerCount: 3
Fore
SplineSet
17 25 m 0xf5
 17 76 92 96 120 115 c 1
 135 131 141 190 141 219 c 0
 141 221 139 235 138 251 c 1
 27 251 l 1
 26 256 25 260 25 265 c 0
 25 271 26 278 27 282 c 1
 134 282 l 1xf5
 130 323 125 375 125 396 c 0
 125 577 206 664 309 664 c 0
 365 664 418 624 418 573 c 0
 418 545 400 526 380 526 c 0
 362 526 345 538 338 575 c 0
 332 603 328 631 286 631 c 0
 254 631 207 605 207 521 c 0
 207 494 208 448 208 361 c 0xfa
 208 334 205 305 202 282 c 1
 322 282 l 1
 323 278 324 274 324 269 c 0
 324 263 323 257 322 251 c 1
 197 251 l 1
 181 174 153 122 153 122 c 1
 153 122 158 125 165 125 c 0
 251 125 281 27 334 27 c 0
 355 27 370 50 370 71 c 0
 370 104 330 113 330 146 c 0
 330 163 342 183 361 183 c 0
 393 183 415 139 415 100 c 0
 415 40 367 -13 296 -13 c 0
 233 -13 217 28 185 69 c 0
 168 90 156 100 145 100 c 0
 111 100 111 -11 51 -11 c 0
 31 -11 17 6 17 25 c 0xf5
EndSplineSet
EndChar

StartChar: currency
Encoding: 164 164 159
Width: 489
Flags: W
HStem: -16 20G<32 46 423.5 435> 26 50<164.625 303.201> 332 47<165.442 301.85>
VStem: 58 51<131.401 274.404> 360 52<132.711 273.782>
DStem2: 67 406 32 371 0.706152 -0.70806<-30.5846 90.4581 432.397 554.618> 32 35 67 -0 0.706152 0.70806<-30.6985 90.9199 432.146 553.893>
LayerCount: 3
Fore
SplineSet
109 202 m 0
 109 131 166 76 234 76 c 0
 302 76 360 133 360 203 c 0
 360 272 303 332 234 332 c 0
 164 332 109 272 109 202 c 0
15 8 m 0
 15 19 24.0653028808 26.9352258788 32 35 c 2
 93 97 l 1
 71 127 58 164 58 204 c 0
 58 243 70 280 92 309 c 1
 32 371 l 2
 30 373 15 384 15 398 c 0
 15 412 27 422 39 422 c 0
 50 422 59 414 67 406 c 2
 129 344 l 1
 158 366 195 379 234 379 c 0
 276 379 312 365 340 344 c 1
 402 406 l 2
 404 408 415 422 429 422 c 0
 443 422 454 410 454 398 c 0
 454 387 444.93574606 379.063741964 437 371 c 2
 375 308 l 1
 397 278 412 242 412 202 c 0
 412 163 397 127 375 98 c 1
 437 35 l 2
 438.983936515 32.9840645089 454 22 454 8 c 0
 454 -6 441 -17 429 -17 c 0
 418 -17 410 -8 402 -0 c 2
 340 62 l 1
 311 40 274 26 234 26 c 0
 195 26 158 39 129 61 c 1
 67 -0 l 2
 64.9838064697 -1.98367427981 53 -16 39 -16 c 0
 25 -16 15 -4 15 8 c 0
EndSplineSet
EndChar

StartChar: exclamdown
Encoding: 161 161 160
Width: 324
VWidth: 0
Flags: W
HStem: -15 21G<143.5 189.5> 544 96<131.332 210.668>
VStem: 114 102<-13.8292 185.018> 123 96<552.332 631.668> 155 38<198.191 439.93>
LayerCount: 3
Fore
SplineSet
219 592 m 0xd0
 219 566 197 544 171 544 c 0
 145 544 123 566 123 592 c 0
 123 618 145 640 171 640 c 0
 197 640 219 618 219 592 c 0xd0
176 440 m 0
 191 440 191 431 193 378 c 0xc8
 212 7 216 17 216 6 c 0xe0
 216 -10 207 -15 172 -15 c 2
 155 -15 l 2xc8
 132 -15 114 -13 114 5 c 0xe0
 114 19 131 125 155 378 c 0xc8
 161 435 163 440 176 440 c 0
EndSplineSet
EndChar

StartChar: questiondown
Encoding: 191 191 161
Width: 352
VWidth: 0
Flags: W
HStem: -16 21G<292 299.5> 17 80<151.57 280.268> 318 68<115.875 248> 549 90<230.301 305.699>
VStem: 73 29<158.818 296.199> 223 90<556.301 631.699> 250 33<399.122 503.282>
LayerCount: 3
Fore
SplineSet
313 594 m 0xfc
 313 570 292 549 268 549 c 0
 244 549 223 570 223 594 c 0
 223 618 244 639 268 639 c 0
 292 639 313 618 313 594 c 0xfc
291 97 m 2
 304 97 311 76 311 25 c 0
 311 -5 303 -16 296 -16 c 0
 288 -16 281 -5 273 4 c 0
 263 16 264 17 250 17 c 0
 195 17 137 22 103 97 c 0
 87 131 73 178 73 243 c 0
 73 334 95 379 140 386 c 0
 240 400 248 395 250 417 c 0
 256.541168492 488.952853416 261 504 269 504 c 0
 281 504 283 475 283 474 c 0xfa
 284 405 291 366 291 337 c 0
 291 326 287 318 271 318 c 2
 177 318 l 2
 114 318 102 291 102 233 c 2
 102 225 l 2
 102 191 108 97 237 97 c 2
 291 97 l 2
EndSplineSet
EndChar

StartChar: yen
Encoding: 165 165 162
Width: 680
VWidth: 0
Flags: HW
HStem: 0 21G<216.5 491.5> 161 31<148.006 302 395 550> 284 31<148.003 256 423 550.974> 616 20G<31.5 306.5 425.5 647.5>
VStem: 302 93<32.5851 161 192 273.717> 516 134<567 628>
DStem2: 273 496 121 543 0.509551 -0.86044<-108.001 147.077 182.923 224.485> 398 322 423 315 0.450611 0.89272<5.01624 277.546>
AnchorPoint: "r;x" 600 385 basechar 0
AnchorPoint: "r;o" 570 200 basechar 0
AnchorPoint: "r;bl" 560 10 basechar 0
AnchorPoint: "l;x" 80 385 basechar 0
AnchorPoint: "l;o" 125 200 basechar 0
AnchorPoint: "l;bl" 145 10 basechar 0
AnchorPoint: "r;hi" 680 610 basechar 0
AnchorPoint: "r;hi2" 670 670 basechar 0
AnchorPoint: "l;hi" 0 610 basechar 0
LayerCount: 3
Fore
SplineSet
302 161 m 1
 150 161 l 1
 149 166 148 171 148 176 c 0
 148 181 149 187 150 192 c 1
 302 192 l 1
 302 227 l 2
 302 236 293 252 288 261 c 2
 274 284 l 1
 150 284 l 1
 148 289 148 294 148 299 c 0
 148 305 149 311 150 315 c 1
 256 315 l 1
 121 543 l 2
 102 575 90 594 75 604 c 0
 55 618 30 610 30 626 c 0
 30 630 31 634 32 636 c 1
 306 636 l 1
 307 634 309 630 309 626 c 0
 309 609 269 617 238 606 c 0
 230 603 224 599 224 593 c 0
 224 583 246.416992188 544.232421875 273 496 c 2
 370 320 l 2
 377 308 380 300 383 300 c 0
 386 300 390 306 398 322 c 2
 495 518 l 2
 506.901367188 542.048828125 516 560 516 574 c 0
 516 588 506.982421875 596.961914062 494 603 c 0
 461.956054688 617.905273438 424 609 424 626 c 0
 424 630 425 634 426 636 c 1
 647 636 l 1
 648 634 650 630 650 626 c 0
 650 609 618.077148438 621.884765625 584 599 c 0
 557.061523438 580.909179688 539 542 514 494 c 2
 423 315 l 1
 548 315 l 1
 550 311 551 306 551 301 c 0
 551 295 550 289 548 284 c 1
 408 284 l 1
 401 268 395 253 395 246 c 2
 395 192 l 1
 548 192 l 1
 550 188 550 183 550 177 c 0
 550 171 550 165 548 161 c 1
 395 161 l 1
 395 75 l 2
 395 -1 493 36 493 10 c 0
 493 6 492 2 491 0 c 1
 217 0 l 1
 216 2 214 6 214 10 c 0
 214 37 302 -3 302 75 c 2
 302 161 l 1
EndSplineSet
EndChar

StartChar: brokenbar
Encoding: 166 166 163
Width: 158
VWidth: 0
Flags: W
HStem: -217 21G<70 77> 644 20G<69 76>
VStem: 50 46<-216.974 119.974 335 663.974>
LayerCount: 3
Fore
SplineSet
50 335 m 1
 50 661 l 1
 59 663 66 664 72 664 c 0
 80 664 87 663 96 661 c 1
 96 335 l 1
 91 334 84 333 76 333 c 0
 66 333 55 334 50 335 c 1
96 117 m 1
 96 -214 l 1
 87 -216 80 -217 74 -217 c 0
 66 -217 59 -216 50 -214 c 1
 50 117 l 1
 57 119 65 120 72 120 c 0
 80 120 88 119 96 117 c 1
EndSplineSet
EndChar

StartChar: section
Encoding: 167 167 164
Width: 449
VWidth: 0
Flags: W
HStem: -222 29<190.067 282.838> 68 20<272.874 328.422> 358 18<134.172 166> 633 31<170.407 258.74>
VStem: 63 45<242.537 344.503> 91 52<501.936 613.61> 94 79<-165.751 -62.951> 256 96<523.805 619.322> 316 53<-168.465 -57.7229> 345 43<97.0712 194.445>
LayerCount: 3
Fore
SplineSet
108 305 m 0xf840
 108 230 245 88 296 88 c 0
 324 88 345 104 345 132 c 0
 345 206 199 358 172 358 c 0
 132 358 108 335 108 305 c 0xf840
63 270 m 0
 63 350 112 376 154 376 c 0
 159 376 163 375 166 375 c 1
 164 380 91 453 91 542 c 0
 91 629 159 664 220 664 c 0
 300 664 352 614 352 571 c 0
 352 531 330 516 305 516 c 0
 277 516 256 537 256 559 c 0xf5
 256 588 261 595 261 611 c 0
 261 623 242 633 226 633 c 0
 186 633 143 618 143 557 c 0
 143 448 388 362 388 178 c 0xf440
 388 84 338 68 305 68 c 0
 291 68 282 71 272 73 c 1
 299 48 369 -15 369 -100 c 0
 369 -179 306 -222 241 -222 c 0
 169 -222 94 -177 94 -102 c 0
 94 -70 112 -38 144 -38 c 0
 167 -38 185 -53 185 -76 c 0
 185 -97 173 -124 173 -147 c 0xf280
 173 -170 193 -193 243 -193 c 0
 278 -193 316 -160 316 -117 c 0
 316 -41 219 12 143 91 c 0xf480
 81.2231424549 155.215417711 63 222 63 270 c 0
EndSplineSet
EndChar

StartChar: paragraph
Encoding: 182 182 165
Width: 599
VWidth: 0
Flags: W
HStem: -217 21G<349.5 356.5 469.5 476.5> 627 20G<349.5 371 469 476>
VStem: 330 41<-216.953 195> 450 41<-216.953 646.974>
LayerCount: 3
Fore
SplineSet
491 -214 m 1
 483 -216 480 -217 473 -217 c 0
 466 -217 458 -216 450 -214 c 1
 450 644 l 1
 459 646 466 647 472 647 c 0
 480 647 482 646 491 644 c 1
 491 -214 l 1
68 425 m 0
 68 654 328 642 371 644 c 1
 371 -214 l 1
 363 -216 360 -217 353 -217 c 0
 346 -217 338 -216 330 -214 c 1
 330 195 l 1
 141 199 68 305 68 425 c 0
EndSplineSet
EndChar

StartChar: registered
Encoding: 174 174 166
Width: 680
VWidth: 0
Flags: W
HStem: 186 31<263.301 416.592> 449 15<299 339.368> 589 20<299 368.388> 669 31<263.301 416.592>
VStem: 81 38<354.992 531.008> 247 52<333.574 449 464 588.859> 393 52<482.617 577.432> 560 38<354.992 531.008>
DStem2: 387 460 349 430 0.594759 -0.803904<0.616897 162.995>
LayerCount: 3
Fore
SplineSet
304 589 m 2
 300 589 299 585 299 579 c 2
 299 464 l 1
 313 464 l 2
 350 464 393 476 393 535 c 0
 393 563 375 581 349 587 c 0
 343 588 333 589 319 589 c 2
 304 589 l 2
506 322 m 0
 506 321 505 315 504 313 c 1
 439 313 l 2
 431 313 426 315 423 320 c 2
 349 430 l 2
 338 446 333 449 313 449 c 2
 299 449 l 1
 299 352 l 1
 300 321 348 343 348 322 c 0
 348 320 347 317 345 313 c 1
 210 313 l 1
 207 317 207 318 207 322 c 0
 207 343 247 320 247 351 c 2
 247 571 l 2
 247 604 207 581 207 600 c 0
 207 606 210 608 211 609 c 1
 315 609 l 2
 336 609 360 609 382 604 c 0
 412 596 445 575 445 531 c 0
 444 480 399 468 387 460 c 1
 388 459 389 457 392 453 c 0
 424 405 468 347 478 337 c 0
 490 326 506 337 506 322 c 0
119 443 m 0
 119 319 216 217 340 217 c 0
 464 217 560 319 560 443 c 0
 560 567 464 669 340 669 c 0
 216 669 119 567 119 443 c 0
81 443 m 0
 81 585 198 700 340 700 c 0
 482 700 598 585 598 443 c 0
 598 301 482 186 340 186 c 0
 198 186 81 301 81 443 c 0
EndSplineSet
EndChar

StartChar: copyright
Encoding: 169 169 167
Width: 735
VWidth: 0
Flags: W
HStem: -22 41<266.752 469.14> 110 58<317.159 444.332> 407 21G<465 504> 502 25<330.44 407.599> 615 41<266.752 469.14>
VStem: 26 50<208.165 425.835> 176 79<238.705 416.65> 659 50<208.165 425.835>
LayerCount: 3
Fore
SplineSet
529 217 m 1
 483 129 401 110 363 110 c 0
 303 110 176 141 176 320 c 0
 176 439 261 527 388 527 c 0
 474 527 529 478 529 443 c 0
 529 428 515 407 493 407 c 0
 437 407 436 502 375 502 c 0
 317 502 255 445 255 340 c 0
 255 198 337 168 389 168 c 0
 436 168 478 187 513 231 c 1
 522 227 526 223 529 217 c 1
76 317 m 0
 76 153 204 19 368 19 c 0
 532 19 659 153 659 317 c 0
 659 481 532 615 368 615 c 0
 204 615 76 481 76 317 c 0
26 317 m 0
 26 504 181 656 368 656 c 0
 555 656 709 504 709 317 c 0
 709 130 555 -22 368 -22 c 0
 181 -22 26 130 26 317 c 0
EndSplineSet
EndChar

StartChar: at
Encoding: 64 64 168
Width: 737
VWidth: 0
Flags: HW
HStem: -133 45<254.943 481.837> 22 45<259 371.084> 30 57<478 549.52> 254 25<387.965 424> 426 32<247.575 384.073>
VStem: 40 63<60.5869 277.661> 197 86<76.8885 179.844> 424 83<99.7065 254 274.778 392.862> 656 41<79.7721 296.717>
AnchorPoint: "l;bl" 0 10 basechar 0
AnchorPoint: "l;o" 0 200 basechar 0
AnchorPoint: "l;x" 0 385 basechar 0
AnchorPoint: "r;bl" 737 10 basechar 0
AnchorPoint: "r;o" 737 200 basechar 0
AnchorPoint: "r;x" 737 385 basechar 0
LayerCount: 3
Fore
SplineSet
283 134 m 0xdf80
 283 98 300 67 331 67 c 0
 342 67 424 86 424 147 c 2
 424 254 l 1
 362 235 283 211 283 134 c 0xdf80
533 448 m 1
 605 420 697 341 697 177 c 0
 697 -78 464 -133 348 -133 c 0
 197 -133 40 -30 40 169 c 0
 40 341 185 458 327 458 c 0
 426 458 507 432 507 293 c 2
 507 176 l 2
 507 121 510 87 531 87 c 0
 556 87 554 110 569 110 c 0
 575 110 577 104 577 96 c 0
 577 58 522 30 492 30 c 0xbf80
 464 30 438 39 428 92 c 1
 405 58 352 22 286 22 c 0
 232 22 197 57 197 117 c 0
 197 188 257 234 424 279 c 1
 424 316 l 2
 424 412 366 426 321 426 c 0
 191 426 103 301 103 181 c 0
 103 -35 261 -88 367 -88 c 0
 492 -88 656 -30 656 197 c 0
 656 275 631 373 523 424 c 1
 519 435 523 446 533 448 c 1
EndSplineSet
EndChar

StartChar: percent
Encoding: 37 37 169
Width: 771
Flags: W
HStem: -96 26<508.478 580.872> 173 26<510.694 583.064> 197 26<172.478 244.872> 413 31<331.942 472.668> 466 26<174.694 248.101>
VStem: 73 63<262.155 428.485> 284 65<263.893 422.083> 409 63<-30.8445 135.485> 620 65<-29.1071 135.852>
LayerCount: 3
Fore
SplineSet
685 54 m 0xdf80
 685 -42 615 -96 545 -96 c 0
 476 -96 409 -45 409 55 c 0
 409 149 477 199 547 199 c 0
 617 199 685 150 685 54 c 0xdf80
546 173 m 0
 488 173 472 96 472 42 c 0
 472 -29 501 -70 545 -70 c 0
 587 -70 620 -26 620 60 c 0
 620 131 592 173 546 173 c 0
210 466 m 0
 152 466 136 389 136 335 c 0
 136 264 165 223 209 223 c 0xbf80
 251 223 284 267 284 353 c 0
 284 424 256 466 210 466 c 0
392 444 m 0
 527 444 601 564 622 564 c 0
 626 564 636 558 636 553 c 0
 636 546 630 537 627 532 c 0
 168 -155 183 -157 171 -157 c 0
 163 -157 129 -153 129 -132 c 0
 129 -118 138 -107 169 -62 c 2
 334 175 l 2
 462.068215149 358.952527214 516 423 516 431 c 0
 516 434 514 435 512 435 c 2
 512 435 454 413 394 413 c 0
 371 413 349 413 331 423 c 1
 343 402 349 378 349 347 c 0
 349 251 279 197 209 197 c 0
 140 197 73 248 73 348 c 0
 73 442 141 492 211 492 c 0
 234 492 254 484 275 473 c 0
 316 453 357 444 392 444 c 0
EndSplineSet
EndChar

StartChar: dollar
Encoding: 36 36 170
Width: 458
Flags: W
HStem: -13 36<136.98 204> 555 37<150.741 205 239 288.402> 634 20G<216 231>
VStem: 35 60<58.5065 133.836> 57 52<406.79 516.815> 204 35<-129.942 -13 26 274 364 555 593 653.985> 346 54<84.7029 220.783>
DStem2: 204 364 204 281 0.965948 -0.258736<-82.7647 0 57.0944 145.239>
LayerCount: 3
Fore
SplineSet
239 26 m 1xe6
 276 26 346 61 346 157 c 0
 346 224 292 255 260 266 c 1
 239 274 l 1
 239 26 l 1xe6
109 460 m 0xee
 109 385 204 364 204 364 c 1
 205 555 l 1
 155 555 109 512 109 460 c 0xee
239 593 m 1
 274 593 373 571 374 505 c 0
 374 483 363 471 349 471 c 0
 312 471 323 524 270 550 c 0
 261 554 251 556 239 556 c 1
 239 354 l 1
 275 340 400 320 400 177 c 0
 400 27 267 -4 239 -11 c 1
 241 -94 l 2
 241 -126 234 -130 219 -130 c 0
 203 -130 202 -121 202 -112 c 0
 202 -84 204 -13 204 -13 c 1
 125 -13 35 31 35 100 c 0
 35 109 42 136 69 136 c 0
 77 136 90 132 95 124 c 0xf6
 105 107 89.0215995013 75.0297458172 129 46 c 0
 162.017838854 22.0245668308 196 24 204 23 c 1
 204 281 l 1
 160 297 57 322 57 437 c 0
 57 506 103 583 205 592 c 1
 205 606 203 620 203 634 c 0
 203 652 209 654 223 654 c 0
 239 654 241 649 241 641 c 0
 241 612 239 598 239 593 c 1
EndSplineSet
EndChar

StartChar: longs
Encoding: 383 383 171
Width: 270
VWidth: 0
Flags: HW
HStem: 0 21G<16.5 224.5> 623 41<195.98 300>
VStem: 77 77<23.2333 350>
AnchorPoint: "top" 224 730 basechar 0
AnchorPoint: "r;o" 270 200 basechar 0
AnchorPoint: "r;k;hi" 380 610 basechar 0
AnchorPoint: "r;x" 270 385 basechar 0
AnchorPoint: "r;bl" 245 10 basechar 0
AnchorPoint: "l;o" 0 200 basechar 0
AnchorPoint: "l;x" 0 385 basechar 0
AnchorPoint: "l;bl" 0 10 basechar 0
LayerCount: 3
Fore
SplineSet
17 0 m 1
 16 2 15 5 15 8 c 0
 15 30 77 -2 77 62 c 2
 77 350 l 1
 77 350 44 351 30 351 c 0
 22 351 16 352 16 362 c 0
 16 377 61 374 69 401 c 0
 90 467 81 520 150 607 c 0
 179 643 230 664 275 664 c 0
 325 664 365 647 365 613 c 0
 365 591 348 575 327 575 c 0
 276 575 266 623 224 623 c 0
 170 623 154 562 154 474 c 2
 154 62 l 2
 154 -3 226 31 226 8 c 0
 226 5 225 2 224 0 c 1
 17 0 l 1
EndSplineSet
EndChar

StartChar: germandbls
Encoding: 223 223 172
Width: 454
VWidth: 0
Flags: HW
HStem: -8 24<268.597 333.438> 0 21G<16.5 204.5> 631 33<195.021 271.474>
VStem: 77 77<22.0046 350> 210 73<26.0182 107.034> 294 76<475.802 614.62> 365 69<77.3906 237.126>
AnchorPoint: "top" 224 730 basechar 0
AnchorPoint: "r;k;hi" 380 610 basechar 0
AnchorPoint: "l;o" 0 200 basechar 0
AnchorPoint: "l;x" 0 385 basechar 0
AnchorPoint: "l;bl" 0 10 basechar 0
AnchorPoint: "r;bl" 454 10 basechar 0
AnchorPoint: "r;o" 454 200 basechar 0
AnchorPoint: "r;hi" 424 610 basechar 0
AnchorPoint: "r;x" 444 385 basechar 0
LayerCount: 3
Fore
SplineSet
297 16 m 0xba
 338 16 365 47 365 132 c 0xba
 365 240 310 320 222 367 c 0
 192.009765625 383.017578125 189 377 189 387 c 2
 189 394 l 2
 189 406 214.98046875 411.021484375 241 435 c 0
 265.98046875 458.020507812 294 496 294 541 c 0
 294 600 271 631 233 631 c 0
 210 631 190 617 177 596 c 0
 161 571 154 531 154 474 c 2
 154 62 l 2
 154 -2 206 30 206 8 c 0
 206 5 205 2 204 0 c 1
 17 0 l 1
 16 2 15 5 15 8 c 0
 15 30 77 -2 77 62 c 2
 77 350 l 1
 77 350 44 351 30 351 c 0
 22 351 16 352 16 362 c 0
 16 377 61 374 69 401 c 0
 90 467 80 520 149 607 c 0
 177 642 212 664 256 664 c 0
 336 664 370 604 370 551 c 0x7c
 370 422 226 400 226 400 c 1
 368 384 434 312 434 179 c 0
 434 81 380 -8 296 -8 c 0
 239 -8 210 30 210 65 c 0
 210 90 226 111 246 111 c 0
 270 111 283 96 283 66 c 0
 283 51 268 26 268 26 c 1
 270 24 279 16 297 16 c 0xba
EndSplineSet
Layer: 2
SplineSet
297 16 m 4xba
 338 16 365 47 365 132 c 4xba
 365 240 310 320 222 367 c 4
 192 383 189 377 189 387 c 6
 189 394 l 6
 189 406 215 411 241 435 c 4
 266 458 294 496 294 541 c 4
 294 600 271 631 233 631 c 4
 210 631 190 617 177 596 c 4
 161 571 154 531 154 474 c 6
 154 62 l 6
 154 -2 206 30 206 8 c 4
 206 5 205 2 204 0 c 5
 17 0 l 5
 16 2 15 5 15 8 c 4
 15 30 77 -2 77 62 c 6
 77 350 l 5
 77 350 49 351 35 351 c 4
 27 351 21 352 21 362 c 4
 21 377 61 374 69 401 c 4
 90 467 76 520 145 607 c 4
 173 642 212 664 256 664 c 4
 336 664 370 604 370 551 c 4x7c
 370 422 226 400 226 400 c 5
 368 384 434 312 434 179 c 4
 434 81 380 -8 296 -8 c 4
 239 -8 210 30 210 65 c 4
 210 90 226 111 246 111 c 4
 270 111 283 96 283 66 c 4
 283 51 268 26 268 26 c 5
 270 24 279 16 297 16 c 4xba
EndSplineSet
EndChar

StartChar: uni0307
Encoding: 775 775 173
Width: 0
VWidth: -40
Flags: W
HStem: 513 93<-268.72 -188.443>
VStem: -277 96<521.49 598.508>
AnchorPoint: "top" -230 500 mark 0
LayerCount: 3
Fore
SplineSet
-231 606 m 0
 -197 606 -181 582 -181 559 c 0
 -181 536 -196 513 -227 513 c 0
 -258 513 -277 537 -277 562 c 0
 -277 582 -264 606 -231 606 c 0
EndSplineSet
EndChar

StartChar: dotlessi
Encoding: 305 305 174
Width: 231
VWidth: 0
Flags: HW
HStem: 0 21G<16.5 214.5> 392 20G<93.5 148.5>
VStem: 77 77<22.8749 341.22>
AnchorPoint: "top" 117 500 basechar 0
AnchorPoint: "l;bl" 0 10 basechar 0
AnchorPoint: "l;x" 0 385 basechar 0
AnchorPoint: "l;o" 0 200 basechar 0
AnchorPoint: "r;bl" 231 10 basechar 0
AnchorPoint: "r;x" 221 385 basechar 0
AnchorPoint: "r;o" 231 200 basechar 0
LayerCount: 3
Fore
SplineSet
154 351 m 2
 154 62 l 6
 154 0 216 30 216 8 c 4
 216 5 215 2 214 0 c 5
 17 0 l 1
 16 2 15 5 15 8 c 0
 15 30 77 -2 77 62 c 2
 77 298 l 2
 77 369 16 330 16 355 c 0
 16 386 40 356 147 412 c 1
 150 412 155 410 156 406 c 0
 156 404 154 355 154 351 c 2
EndSplineSet
Layer: 2
SplineSet
154 351 m 6
 154 62 l 6
 154 0 216 30 216 8 c 4
 216 5 215 2 214 0 c 5
 17 0 l 5
 16 2 15 5 15 8 c 4
 15 30 77 -2 77 62 c 6
 77 298 l 6
 77 369 16 330 16 355 c 4
 16 386 40 352 147 412 c 5
 150 412 155 410 156 406 c 4
 156 404 154 355 154 351 c 6
EndSplineSet
EndChar

StartChar: uni0237
Encoding: 567 567 175
Width: 231
VWidth: 0
Flags: HW
HStem: -220 21G<27.5 33.5> 392 20G<93.5 148.5>
VStem: 77 77<-82.2889 341.22>
AnchorPoint: "top" 102 500 basechar 0
AnchorPoint: "l;bl" 0 10 basechar 0
AnchorPoint: "l;x" 0 385 basechar 0
AnchorPoint: "l;o" 0 200 basechar 0
AnchorPoint: "l;lo" 0 -200 basechar 0
AnchorPoint: "r;bl" 231 10 basechar 0
AnchorPoint: "r;x" 231 385 basechar 0
AnchorPoint: "r;o" 231 200 basechar 0
AnchorPoint: "r;lo" 191 -200 basechar 0
LayerCount: 3
Fore
SplineSet
154 351 m 2
 154 45 l 2
 154 -102 83 -177 46 -210 c 0
 40 -215 36 -220 31 -220 c 0
 24 -220 15 -209 15 -205 c 0
 15 -201 19 -196 24 -191 c 0
 73 -139 77 -108 77 48 c 2
 77 298 l 2
 77 369 16 330 16 355 c 0
 16 386 40 356 147 412 c 1
 150 412 155 410 156 406 c 0
 156 404 154 355 154 351 c 2
EndSplineSet
Layer: 2
SplineSet
154 351 m 6
 154 45 l 6
 154 -124 60 -198 32 -222 c 5
 23 -217 16 -212 13 -202 c 5
 72 -142 77 -119 77 48 c 6
 77 298 l 6
 77 369 16 330 16 355 c 4
 16 386 40 352 147 412 c 5
 150 412 155 410 156 406 c 4
 156 404 154 355 154 351 c 6
EndSplineSet
EndChar

StartChar: uni0308
Encoding: 776 776 176
Width: 0
VWidth: -40
Flags: W
HStem: 513 93<-348.72 -268.443 -188.72 -108.443>
VStem: -357 96<521.49 598.508> -197 96<521.49 598.508>
AnchorPoint: "top" -230 500 mark 0
LayerCount: 3
Fore
SplineSet
-311 606 m 0
 -277 606 -261 582 -261 559 c 0
 -261 536 -276 513 -307 513 c 0
 -338 513 -357 537 -357 562 c 0
 -357 582 -344 606 -311 606 c 0
-151 606 m 0
 -117 606 -101 582 -101 559 c 0
 -101 536 -116 513 -147 513 c 0
 -178 513 -197 537 -197 562 c 0
 -197 582 -184 606 -151 606 c 0
EndSplineSet
EndChar

StartChar: eth
Encoding: 240 240 189
Width: 429
VWidth: 0
Flags: HW
HStem: -13 29<185.993 269.237> 377 27<170.935 269.853> 639 20G<107.5 161>
VStem: 25 86<96.0497 300.07> 326 78<98.8709 322.321>
DStem2: 258 573 106 651 0.643096 -0.765785<-130.66 -22.2769 32.6497 172.785> 111 519 122 490 0.939571 0.342354<-2.16276 99.0201 167.776 265.813>
AnchorPoint: "l;bl" 30 10 basechar 0
AnchorPoint: "l;o" 0 200 basechar 0
AnchorPoint: "l;hi" 70 610 basechar 0
AnchorPoint: "l;x" 30 385 basechar 0
AnchorPoint: "r;bl" 399 10 basechar 0
AnchorPoint: "r;o" 429 200 basechar 0
AnchorPoint: "r;hi" 409 610 basechar 0
AnchorPoint: "r;x" 429 385 basechar 0
LayerCount: 3
Fore
SplineSet
404 210 m 0
 404 79 333 -13 210 -13 c 0
 84 -13 25 92 25 196 c 0
 25 294 78 404 214 404 c 0
 245 404 279 399 305 380 c 1
 295 418 258 482 225 528 c 1
 122 490 l 1
 115 498 112 508 111 519 c 1
 204 553 l 1
 167 602 132 637 106 651 c 0
 105 652 104 653 104 654 c 0
 104 659 106 659 109 659 c 2
 158 659 l 2
 164 659 166 657 170 655 c 0
 200 636 226 609 258 573 c 1
 358 609 l 1
 366 602 368 591 369 580 c 1
 279 548 l 1
 363 431 404 327 404 210 c 0
227 16 m 0
 267 16 326 49 326 186 c 0
 326 336 284 377 217 377 c 0
 131 377 111 277 111 212 c 0
 111 87 170 16 227 16 c 0
EndSplineSet
Layer: 2
SplineSet
404 210 m 4
 404 79 333 -13 210 -13 c 4
 84 -13 25 92 25 196 c 4
 25 294 78 404 214 404 c 4
 245 404 279 399 305 380 c 5
 295 418 258 482 225 528 c 5
 122 490 l 5
 115 498 112 508 111 519 c 5
 204 553 l 5
 167 602 132 637 106 651 c 4
 102 653 106 659 106 659 c 5
 164 659 l 5
 197 640 224 611 258 573 c 5
 358 609 l 5
 366 602 368 591 369 580 c 5
 279 548 l 5
 363 431 404 327 404 210 c 4
EndSplineSet
AlternateSubs2: "'aalt' Access All Alternates lookup 0 subtable" eth.sc
AlternateSubs2: "'aalt' Access All Alternates in Latin lookup 0 subtable" eth.sc
Substitution2: "'smcp' Lowercase to Small Capitals in Latin lookup 3 subtable" eth.sc
EndChar

StartChar: thorn
Encoding: 254 254 190
Width: 471
VWidth: 0
Flags: HW
HStem: -211 21G<16.5 224.5> -13 29<197.98 292.568> 363 41<204.796 301.507> 644 20G<93.5 148.5>
VStem: 77 77<-186.761 12 49.6366 334.742 348 595.22> 362 84<102.097 293.237>
AnchorPoint: "r;o" 471 200 basechar 0
AnchorPoint: "r;x" 451 385 basechar 0
AnchorPoint: "r;bl" 451 10 basechar 0
AnchorPoint: "l;lo" 0 -200 basechar 0
AnchorPoint: "l;hi2" 10 670 basechar 0
AnchorPoint: "l;o" 10 200 basechar 0
AnchorPoint: "l;x" 20 385 basechar 0
AnchorPoint: "l;bl" 10 10 basechar 0
LayerCount: 3
Fore
SplineSet
242 363 m 0
 193 363 152 319 152 291 c 2
 152 112 l 2
 152 69 189 16 243 16 c 0
 324 16 362 103 362 190 c 0
 362 277 324 363 242 363 c 0
154 12 m 1
 154 -149 l 2
 154 -171 161 -182 173 -187 c 0
 194 -196 226 -189 226 -203 c 0
 226 -206 225 -209 224 -211 c 1
 17 -211 l 1
 16 -209 15 -206 15 -203 c 0
 15 -181 77 -213 77 -149 c 2
 77 552 l 2
 77 623 16 584 16 609 c 0
 16 640 40 607 147 664 c 1
 150 664 155 662 156 658 c 0
 156 656 154 609 154 605 c 2
 154 348 l 1
 173 366 221 404 282 404 c 0
 393 404 446 303 446 201 c 0
 446 94 377 -13 246 -13 c 0
 203 -13 154 12 154 12 c 1
EndSplineSet
AlternateSubs2: "'aalt' Access All Alternates lookup 0 subtable" thorn.sc thorn.ld
AlternateSubs2: "'aalt' Access All Alternates in Latin lookup 0 subtable" thorn.sc thorn.ld
Substitution2: "'smcp' Lowercase to Small Capitals in Latin lookup 3 subtable" thorn.sc
Substitution2: "'ss01' Style Set 1 in Latin lookup 2 subtable" thorn.ld
EndChar

StartChar: acutecomb
Encoding: 769 769 191
Width: 0
VWidth: -40
Flags: W
HStem: 433 198
VStem: -249 118
AnchorPoint: "top" -230 500 mark 0
LayerCount: 3
Fore
SplineSet
-170 631 m 0
 -143 631 -131 612 -131 599 c 0
 -131 571 -170 524 -194 484 c 0
 -220 441 -223 433 -235 433 c 0
 -245 433 -249 440 -249 448 c 0
 -249 464 -240 486 -236 499 c 0
 -214 565 -218 631 -170 631 c 0
EndSplineSet
Layer: 2
SplineSet
-170 631 m 4
 -143 631 -131 612 -131 599 c 4
 -131 571 -170 524 -194 484 c 4
 -220 441 -223 424 -238 424 c 4
 -244 424 -254 427 -254 437 c 4
 -254 450 -242 482 -236 499 c 4
 -214 565 -218 631 -170 631 c 4
EndSplineSet
EndChar

StartChar: thorn.ld
Encoding: 65543 -1 215
Width: 471
VWidth: 0
Flags: HW
HStem: -270 21G<16.5 224.5> -13 29<197.98 292.568> 363 41<204.796 301.507> 644 20G<93.5 148.5>
VStem: 77 77<-245.761 12 49.6366 334.742 348 595.22> 362 84<102.097 293.237>
AnchorPoint: "l;bl" 10 10 basechar 0
AnchorPoint: "l;x" 20 385 basechar 0
AnchorPoint: "l;o" 10 200 basechar 0
AnchorPoint: "l;hi2" 10 670 basechar 0
AnchorPoint: "l;lo" 0 -200 basechar 0
AnchorPoint: "r;bl" 451 10 basechar 0
AnchorPoint: "r;x" 451 385 basechar 0
AnchorPoint: "r;o" 471 200 basechar 0
LayerCount: 3
Fore
SplineSet
242 363 m 0
 193 363 152 319 152 291 c 2
 152 112 l 2
 152 69 189 16 243 16 c 0
 324 16 362 103 362 190 c 0
 362 277 324 363 242 363 c 0
154 12 m 1
 154 -208 l 2
 154 -230 161 -241 173 -246 c 0
 194 -255 226 -248 226 -262 c 0
 226 -265 225 -268 224 -270 c 1
 17 -270 l 1
 16 -268 15 -265 15 -262 c 0
 15 -240 77 -272 77 -208 c 2
 77 552 l 2
 77 623 16 584 16 609 c 0
 16 640 40 607 147 664 c 1
 150 664 155 662 156 658 c 0
 156 656 154 609 154 605 c 2
 154 348 l 1
 173 366 221 404 282 404 c 0
 393 404 446 303 446 201 c 0
 446 94 377 -13 246 -13 c 0
 203 -13 154 12 154 12 c 1
EndSplineSet
AlternateSubs2: "'aalt' Access All Alternates lookup 0 subtable" thorn.sc
AlternateSubs2: "'aalt' Access All Alternates in Latin lookup 0 subtable" thorn.sc
Substitution2: "'smcp' Lowercase to Small Capitals in Latin lookup 3 subtable" thorn.sc
EndChar

StartChar: oslash
Encoding: 248 248 218
Width: 454
VWidth: 0
Flags: HW
HStem: -13 28<170.746 277.914> 376 28<183.008 279.872>
VStem: 25 88<88.7895 288.9> 341 88<101.364 302.792>
DStem2: 65 -59 91 -75 0.499531 0.866296<-2.85641 89.8922 143.754 453.841 513.548 605.404>
AnchorPoint: "r;o" 454 200 basechar 0
AnchorPoint: "r;x" 424 385 basechar 0
AnchorPoint: "r;bl" 424 10 basechar 0
AnchorPoint: "l;o" 0 200 basechar 0
AnchorPoint: "l;x" 30 385 basechar 0
AnchorPoint: "l;bl" 30 10 basechar 0
LayerCount: 3
Fore
SplineSet
429 200 m 0
 429 79 344 -13 222 -13 c 0
 192 -13 162 -7 136 4 c 1
 91 -75 l 1
 80 -72 71 -67 65 -59 c 1
 109 18 l 1
 59 50 25 108 25 196 c 0
 25 305 107 404 235 404 c 0
 268 404 297 398 322 387 c 1
 366 463 l 1
 376 462 388 455 392 447 c 1
 349 372 l 1
 402 336 429 273 429 200 c 0
157 39 m 1
 174 23 196 15 227 15 c 0
 316 15 341 104 341 193 c 0
 341 249 332 290 318 319 c 1
 157 39 l 1
299 347 m 1
 282 365 256 376 228 376 c 0
 162 376 113 306 113 194 c 0
 113 143 118 98 136 66 c 1
 299 347 l 1
EndSplineSet
Layer: 2
SplineSet
429 200 m 4
 429 79 344 -13 222 -13 c 4
 192 -13 162 -7 136 4 c 5
 91 -75 l 5
 80 -72 71 -67 65 -59 c 5
 109 18 l 5
 59 50 25 108 25 196 c 4
 25 305 107 404 235 404 c 4
 268 404 297 398 322 387 c 5
 366 463 l 5
 376 462 388 455 392 447 c 5
 349 372 l 5
 402 336 429 273 429 200 c 4
228 376 m 0
 162 376 113 306 113 194 c 0
 113 143 118 98 136 65 c 1
 299 347 l 1
 280 367 255 376 228 376 c 0
318 319 m 1
 156 38 l 1
 172 23 194 15 222 15 c 0
 314 15 341 103 341 194 c 0
 341 250 332 290 318 319 c 1
EndSplineSet
AlternateSubs2: "'aalt' Access All Alternates lookup 0 subtable" oslash.sc
AlternateSubs2: "'aalt' Access All Alternates in Latin lookup 0 subtable" oslash.sc
Substitution2: "'smcp' Lowercase to Small Capitals in Latin lookup 3 subtable" oslash.sc
EndChar

StartChar: Thorn
Encoding: 222 222 219
Width: 560
VWidth: 0
Flags: HW
HStem: 0 21G<32.5 295.5> 130 40<225.581 355.021> 478 25<215.748 346.935> 616 20G<31.5 294.5>
VStem: 117 93<30.7996 156 171.919 475.478 503 605.2> 430 90<238.202 409.135>
AnchorPoint: "l;bl" 0 10 basechar 0
AnchorPoint: "l;o" 0 200 basechar 0
AnchorPoint: "l;hi" 0 610 basechar 0
AnchorPoint: "l;x" 0 385 basechar 0
AnchorPoint: "r;o" 550 200 basechar 0
AnchorPoint: "r;x" 560 385 basechar 0
LayerCount: 3
Fore
SplineSet
210 75 m 2
 210 -1 297 36 297 10 c 0
 297 6 296 2 295 0 c 1
 33 0 l 1
 32 2 30 6 30 10 c 0
 30 37 117 -3 117 75 c 2
 117 561 l 2
 117 637 30 600 30 626 c 0
 30 630 31 634 32 636 c 1
 294 636 l 1
 295 634 297 630 297 626 c 0
 297 599 210 639 210 561 c 2
 210 503 l 1
 309 503 l 2
 344 503 403.990234375 495.986328125 451 464 c 0
 500.990234375 429.985351562 520 376 520 322 c 0
 520 275 505 228 481 197 c 0
 448 155 393 130 332 130 c 0
 267 130 210 156 210 156 c 1
 210 75 l 2
430 323 m 0
 430 385 400 478 281 478 c 2
 274 478 l 2
 219 478 210 477 210 429 c 2
 210 175 l 1
 210 175 238 170 261 170 c 0
 362 170 430 220 430 323 c 0
EndSplineSet
AlternateSubs2: "'aalt' Access All Alternates lookup 0 subtable" Thorn.c2
AlternateSubs2: "'aalt' Access All Alternates in Latin lookup 0 subtable" Thorn.c2
Substitution2: "'c2sc' Capitals to Small Capitals in Latin lookup 4 subtable" Thorn.c2
EndChar

StartChar: Eth
Encoding: 208 208 221
Width: 725
VWidth: 0
Flags: HW
HStem: 0 31<215.731 389.154> 308 31<30.0029 117 210 371.997> 608 28<214.535 398.197>
VStem: 117 93<34.3536 308 339 604.11> 576 109<200.054 434.641>
AnchorPoint: "r;o" 725 200 basechar 0
AnchorPoint: "r;hi" 685 610 basechar 0
AnchorPoint: "r;x" 725 385 basechar 0
AnchorPoint: "r;bl" 685 10 basechar 0
AnchorPoint: "l;o" 20 200 basechar 0
AnchorPoint: "l;hi" 0 610 basechar 0
AnchorPoint: "l;x" 20 385 basechar 0
AnchorPoint: "l;bl" 0 10 basechar 0
LayerCount: 3
Fore
SplineSet
210 339 m 1
 369 339 l 1
 371 335 372 329 372 323 c 0
 372 317 371 312 369 308 c 1
 210 308 l 1
 210 85 l 2
 210 32 220 31 280 31 c 0
 523 31 576 192 576 312 c 0
 576 460 500 533 467 559 c 0
 414 602 346 608 286 608 c 0
 212 608 210 603 210 563 c 2
 210 339 l 1
33 0 m 1
 32 2 30 6 30 10 c 0
 30 37 117 -3 117 75 c 2
 117 308 l 1
 33 308 l 1
 31 313 30 318 30 324 c 0
 30 329 31 334 33 339 c 1
 117 339 l 1
 117 561 l 2
 117 639 30 599 30 626 c 0
 30 630 32 634 33 636 c 1
 273 636 l 2
 387 636 450 629 520 600 c 0
 631 553 685 441 685 322 c 0
 685 182 607.943359375 44.29296875 426 9 c 0
 379.985351562 0.07421875 312 0 266 0 c 2
 33 0 l 1
EndSplineSet
AlternateSubs2: "'aalt' Access All Alternates lookup 0 subtable" Eth.c2
AlternateSubs2: "'aalt' Access All Alternates in Latin lookup 0 subtable" Eth.c2
Substitution2: "'c2sc' Capitals to Small Capitals in Latin lookup 4 subtable" Eth.c2
EndChar

StartChar: gravecomb
Encoding: 768 768 222
Width: 0
VWidth: 0
Flags: W
HStem: 433 198
VStem: -327 118
AnchorPoint: "top" -230 500 mark 0
LayerCount: 3
Fore
SplineSet
-288 631 m 0
 -240 631 -244 565 -222 499 c 0
 -218 486 -209 464 -209 448 c 0
 -209 440 -213 433 -223 433 c 0
 -235 433 -238 441 -264 484 c 0
 -288 524 -327 571 -327 599 c 0
 -327 612 -315 631 -288 631 c 0
EndSplineSet
Layer: 2
SplineSet
-288 631 m 4
 -240 631 -244 565 -222 499 c 4
 -216 482 -204 450 -204 437 c 4
 -204 427 -214 424 -220 424 c 4
 -235 424 -238 441 -264 484 c 4
 -288 524 -327 571 -327 599 c 4
 -327 612 -315 631 -288 631 c 4
EndSplineSet
EndChar

StartChar: uni030B
Encoding: 779 779 232
Width: 0
VWidth: -40
Flags: W
HStem: 433 198
VStem: -316 258
AnchorPoint: "top" -230 500 mark 0
LayerCount: 3
Fore
SplineSet
-237 631 m 0
 -210 631 -198 612 -198 599 c 0
 -198 571 -237 524 -261 484 c 0
 -287 441 -290 433 -302 433 c 0
 -312 433 -316 440 -316 448 c 0
 -316 464 -307 486 -303 499 c 0
 -281 565 -285 631 -237 631 c 0
-97 631 m 0
 -70 631 -58 612 -58 599 c 0
 -58 571 -97 524 -121 484 c 0
 -147 441 -150 433 -162 433 c 0
 -172 433 -176 440 -176 448 c 0
 -176 464 -167 486 -163 499 c 0
 -141 565 -145 631 -97 631 c 0
EndSplineSet
EndChar

StartChar: uni0302
Encoding: 770 770 249
Width: 0
VWidth: 960
Flags: W
HStem: 456 160
VStem: -348 234<462 469>
AnchorPoint: "top" -230 500 mark 0
LayerCount: 3
Fore
SplineSet
-231 537 m 1
 -302 479 -327 456 -337 456 c 0
 -340 456 -348 462 -348 465 c 0
 -348 469 -301 522 -249 614 c 1
 -249 614 -236 616 -232 616 c 0
 -225 616 -213 614 -213 614 c 1
 -160 521 -114 470 -114 465 c 0
 -114 462 -122 456 -125 456 c 0
 -135 456 -160 479 -231 537 c 1
EndSplineSet
EndChar

StartChar: tildecomb
Encoding: 771 771 250
Width: 996
VWidth: -40
Flags: W
HStem: 518 60<-219.524 -146.345> 561 60<-312.655 -238.356>
VStem: -352 245
AnchorPoint: "top" -230 500 mark 0
LayerCount: 3
Fore
SplineSet
-185 518 m 0xa0
 -223 518 -255 561 -291 561 c 0
 -321 561 -336 519 -336 519 c 1
 -339 519 -349 520 -352 522 c 1
 -352 522 -324 621 -274 621 c 0x60
 -236 621 -203 578 -168 578 c 0
 -138 578 -123 620 -123 620 c 1
 -120 620 -110 619 -107 617 c 1
 -107 617 -135 518 -185 518 c 0xa0
EndSplineSet
EndChar

StartChar: uni030C
Encoding: 780 780 274
Width: 0
VWidth: 960
Flags: W
HStem: 456 160
VStem: -348 234<603 610>
AnchorPoint: "top" -230 500 mark 0
LayerCount: 3
Fore
SplineSet
-231 535 m 1
 -160 593 -135 616 -125 616 c 0
 -122 616 -114 610 -114 607 c 0
 -114 603 -161 550 -213 458 c 1
 -213 458 -226 456 -230 456 c 0
 -237 456 -249 458 -249 458 c 1
 -302 551 -348 602 -348 607 c 0
 -348 610 -340 616 -337 616 c 0
 -327 616 -302 593 -231 535 c 1
EndSplineSet
EndChar

StartChar: uni0304
Encoding: 772 772 294
Width: 824
VWidth: -40
Flags: W
HStem: 555 45<-346 -112>
VStem: -346 234<555 600>
AnchorPoint: "top" -230 500 mark 0
LayerCount: 3
Fore
SplineSet
-112 555 m 1
 -346 555 l 1
 -346 600 l 1
 -112 600 l 1
 -112 555 l 1
EndSplineSet
EndChar

StartChar: uni0306
Encoding: 774 774 307
Width: 0
VWidth: 960
Flags: W
HStem: 486 59<-294.799 -163.201>
VStem: -343 25<582.411 615.994> -140 25<582.411 615.994>
AnchorPoint: "top" -230 500 mark 0
LayerCount: 3
Fore
SplineSet
-229 545 m 0
 -148 545 -144 603 -140 614 c 1
 -140 614 -135 616 -128 616 c 0
 -121 616 -115 614 -115 614 c 1
 -115 613 l 2
 -115 599 -122 486 -229 486 c 0
 -336 486 -343 599 -343 613 c 2
 -343 614 l 1
 -343 614 -337 616 -330 616 c 0
 -323 616 -318 614 -318 614 c 1
 -314 603 -310 545 -229 545 c 0
EndSplineSet
EndChar

StartChar: uni030A
Encoding: 778 778 320
Width: 0
VWidth: -40
Flags: W
HStem: 470 37<-262.96 -193.617> 589 37<-263.634 -195.482>
VStem: -310 40<513.865 584.293> -188 40<511.58 582.673>
AnchorPoint: "top" -230 500 mark 0
LayerCount: 3
Fore
SplineSet
-231 589 m 0
 -259 589 -270 567 -270 549 c 0
 -270 527 -254 507 -227 507 c 0
 -200 507 -188 527 -188 547 c 0
 -188 567 -202 589 -231 589 c 0
-231 626 m 0
 -174 626 -148 586 -148 547 c 0
 -148 508 -177 470 -227 470 c 0
 -277 470 -310 510 -310 552 c 0
 -310 586 -287 626 -231 626 c 0
EndSplineSet
EndChar

StartChar: dcroat
Encoding: 273 273 337
Width: 473
VWidth: 0
Flags: HW
HStem: -13 40<179.128 272.606> 380 24<180.55 276.133> 488 31<192.003 319 396 456.997> 644 20G<335 390.5>
VStem: 25 85<108.701 285.851> 319 77<50.1562 349.5 389 488 519 595.22>
AnchorPoint: "r;o" 473 200 basechar 0
AnchorPoint: "r;hi" 463 610 basechar 0
AnchorPoint: "r;x" 463 385 basechar 0
AnchorPoint: "r;bl" 473 10 basechar 0
AnchorPoint: "l;o" 0 200 basechar 0
AnchorPoint: "l;x" 20 385 basechar 0
AnchorPoint: "l;bl" 20 10 basechar 0
LayerCount: 3
Fore
SplineSet
321 127 m 2
 321 256 l 2
 321 340 290 380 225 380 c 0
 148 380 110 298 110 214 c 0
 110 125 151 27 241 27 c 0
 270 27 294 40 309 66 c 0
 318 82 321 81 321 127 c 2
396 488 m 1
 396 92 l 2
 396 9 457 60 457 28 c 0
 457 4 428 23 336 -13 c 1
 327 -13 l 1
 325 42 l 1
 294 16 248 -13 199 -13 c 0
 88 -13 25 86 25 188 c 0
 25 295 93 404 247 404 c 0
 270 404 305 394 319 389 c 1
 319 488 l 1
 195 488 l 1
 193 493 192 498 192 504 c 0
 192 509 193 514 195 519 c 1
 319 519 l 1
 319 552 l 2
 319 623 258 584 258 609 c 0
 258 640 281 611 389 664 c 1
 392 664 397 662 398 658 c 0
 398 656 396 609 396 605 c 2
 396 519 l 1
 454 519 l 1
 456 515 457 509 457 503 c 0
 457 497 456 492 454 488 c 1
 396 488 l 1
EndSplineSet
Layer: 2
SplineSet
321 127 m 6
 321 256 l 6
 321 340 290 380 225 380 c 4
 148 380 110 298 110 214 c 4
 110 122 155 27 241 27 c 4
 284 27 321 60 321 127 c 6
247 404 m 4
 276 404 298 396 319 391 c 5
 319 488 l 5
 195 488 l 5
 193 493 192 498 192 504 c 4
 192 509 193 514 195 519 c 5
 319 519 l 5
 319 552 l 6
 319 623 258 584 258 609 c 4
 258 640 282 607 389 664 c 5
 392 664 397 662 398 658 c 4
 398 656 396 609 396 605 c 6
 396 519 l 5
 454 519 l 5
 456 515 457 509 457 503 c 4
 457 497 456 492 454 488 c 5
 396 488 l 5
 396 92 l 6
 396 9 457 60 457 28 c 4
 457 4 426 26 334 -13 c 5
 325 -13 l 5
 325 42 l 5
 294 16 259 -13 199 -13 c 4
 88 -13 25 86 25 188 c 4
 25 295 93 404 247 404 c 4
EndSplineSet
AlternateSubs2: "'aalt' Access All Alternates lookup 0 subtable" dcroat.sc
AlternateSubs2: "'aalt' Access All Alternates in Latin lookup 0 subtable" dcroat.sc
Substitution2: "'smcp' Lowercase to Small Capitals in Latin lookup 3 subtable" dcroat.sc
EndChar

StartChar: hbar
Encoding: 295 295 338
Width: 486
VWidth: 0
Flags: HW
HStem: 0 21G<16.5 214.5 271.5 469.5> 354 50<210.883 312.329> 488 31<16.0029 77 154 280.997> 644 20G<93.5 148.5>
VStem: 77 77<22.8749 324.477 330 488 519 595.22> 332 77<22.8749 334.5>
AnchorPoint: "r;o" 476 200 basechar 0
AnchorPoint: "r;x" 476 385 basechar 0
AnchorPoint: "r;bl" 486 10 basechar 0
AnchorPoint: "l;o" 10 200 basechar 0
AnchorPoint: "l;x" 20 385 basechar 0
AnchorPoint: "l;bl" 0 10 basechar 0
AnchorPoint: "l;hi2" 10 670 basechar 0
LayerCount: 3
Fore
SplineSet
77 488 m 1
 19 488 l 1
 17 493 16 498 16 504 c 0
 16 509 17 514 19 519 c 1
 77 519 l 1
 77 552 l 2
 77 623 16 584 16 609 c 0
 16 640 40 610 147 664 c 1
 150 664 155 662 156 658 c 0
 156 656 154 609 154 605 c 2
 154 519 l 1
 278 519 l 1
 280 515 281 509 281 503 c 0
 281 497 280 492 278 488 c 1
 154 488 l 1
 154 330 l 1
 183 362 217 404 290 404 c 0
 392 404 409 346 409 227 c 2
 409 62 l 2
 409 0 471 30 471 8 c 0
 471 5 470 2 469 0 c 1
 272 0 l 1
 271 2 270 5 270 8 c 0
 270 30 332 -2 332 62 c 2
 332 221 l 2
 332 318 321 354 254 354 c 0
 223 354 204 347 186 333 c 0
 166 318 154 302 154 288 c 2
 154 62 l 2
 154 0 216 30 216 8 c 0
 216 5 215 2 214 0 c 1
 17 0 l 1
 16 2 15 5 15 8 c 0
 15 30 77 -2 77 62 c 2
 77 488 l 1
EndSplineSet
Layer: 2
SplineSet
17 0 m 5
 16 2 15 5 15 8 c 4
 15 30 77 -2 77 62 c 6
 77 488 l 5
 19 488 l 5
 17 493 16 498 16 504 c 4
 16 509 17 514 19 519 c 5
 77 519 l 5
 77 552 l 6
 77 623 16 584 16 609 c 4
 16 640 40 607 147 664 c 5
 150 664 155 662 156 658 c 4
 156 656 154 609 154 605 c 6
 154 519 l 5
 278 519 l 5
 280 515 281 509 281 503 c 4
 281 497 280 492 278 488 c 5
 154 488 l 5
 154 332 l 5
 158 338 167 344 173 352 c 4
 193 377 231 404 286 404 c 4
 399 404 409 346 409 227 c 6
 409 62 l 6
 409 0 471 30 471 8 c 4
 471 5 470 2 469 0 c 5
 272 0 l 5
 271 2 270 5 270 8 c 4
 270 30 332 -2 332 62 c 6
 332 221 l 6
 332 318 317 354 250 354 c 4
 193 354 154 314 154 288 c 6
 154 62 l 6
 154 0 216 30 216 8 c 4
 216 5 215 2 214 0 c 5
 17 0 l 5
EndSplineSet
AlternateSubs2: "'aalt' Access All Alternates lookup 0 subtable" hbar.sc
AlternateSubs2: "'aalt' Access All Alternates in Latin lookup 0 subtable" hbar.sc
Substitution2: "'smcp' Lowercase to Small Capitals in Latin lookup 3 subtable" hbar.sc
EndChar

